<svg width="128" height="41" viewBox="0 0 128 41" fill="none" xmlns="http://www.w3.org/2000/svg">
<path d="M89.2455 4.15376C87.3153 5.17359 85.4987 6.53337 84.1362 8.11977C81.2977 11.1793 79.7081 14.5787 80.957 15.4852C81.4112 15.8251 82.4331 15.9385 84.3633 14.1254C86.1799 12.539 87.5424 10.6127 88.4507 8.45971C89.6997 5.51354 89.2455 4.15376 89.2455 4.15376ZM104.46 9.59286C101.394 8.00645 99.1236 6.08011 96.7392 4.83365C94.3549 3.58719 93.1059 3.24725 91.2893 3.47387C91.0622 3.47387 90.8351 3.58719 90.4945 3.7005C90.4945 3.7005 91.4028 6.87331 87.7695 12.1991C84.0226 17.5249 80.6164 17.6382 79.7081 16.1651C78.7998 14.692 80.0487 11.4059 82.206 8.57302C84.0226 6.42005 86.1799 4.60702 88.5643 3.13393C88.5643 3.13393 87.3153 2.34073 84.1362 4.15376C78.7998 7.43988 74.2581 11.8591 70.8519 16.9583C65.9696 23.9838 64.9477 27.8365 64.2665 30.7827C63.5852 33.8421 64.153 37.0149 67.5592 37.0149C70.9654 37.0149 74.8258 31.9158 75.9612 30.1028C78.005 26.8167 79.3675 21.7175 76.5289 22.3974C75.1664 22.7373 74.031 24.2104 73.3498 25.6835C72.8956 26.59 72.555 27.6099 72.3279 28.6297C71.306 29.0829 70.3977 29.5362 69.6029 30.2161C68.6946 30.896 67.7863 31.6892 66.9915 32.4824C67.2186 30.2161 67.8998 28.0631 68.9217 26.1368C70.2842 23.0773 73.1227 20.9243 76.4154 20.2444C78.232 20.1311 80.6164 21.6042 78.5727 27.2699C76.5289 32.9356 70.7383 39.8478 64.4936 39.8478C58.8165 39.9611 55.0697 32.709 63.0175 20.0178C71.7602 6.08011 81.9789 1.77416 85.3851 1.3209C88.7914 0.867643 89.8132 2.34073 89.8132 2.34073C91.857 1.54753 94.0143 1.20759 96.1715 1.3209C100.259 1.54753 103.438 4.4937 107.639 6.53336C106.504 7.43988 105.482 8.57303 104.46 9.59286ZM122.854 4.83365C120.015 6.64668 116.155 8.3464 112.408 7.89314C111.5 8.91297 110.478 10.0461 109.456 11.2926C116.041 12.539 121.718 8.57303 124.784 5.06028C125.919 3.81382 126.828 2.45404 127.622 0.980957C126.033 2.56736 124.557 3.81382 122.854 4.83365ZM114.225 23.1906C114.225 23.0773 114.338 22.964 114.338 22.964C114.338 22.624 114.111 22.3974 113.77 22.3974C113.089 22.3974 112.294 22.5107 110.137 24.8903C108.32 26.93 106.731 29.1963 105.368 31.5759C104.119 33.8421 103.552 35.6552 104.346 36.1084C104.574 36.2218 104.914 36.2217 105.141 36.2217C105.595 36.1084 106.163 35.6552 107.071 34.6353C107.412 34.1821 107.98 33.5022 108.434 32.8223C109.796 30.896 113.43 24.5504 114.225 23.1906ZM91.0622 25.9101C91.4028 24.8903 91.857 23.0773 90.9486 22.2841C89.9268 21.4909 87.2018 23.3039 87.2018 25.2302C87.3153 26.59 88.2237 27.8365 89.5861 28.1764C89.8132 28.2897 89.9268 28.2897 90.0403 28.0631C90.3809 27.3832 90.7216 26.7033 91.0622 25.9101ZM89.0184 29.5362C88.3372 29.1963 87.7695 28.8563 87.2018 28.4031C86.6341 27.9498 86.1799 27.3832 85.8393 26.7033C85.8393 26.59 85.7258 26.7033 85.7258 26.7033C85.1581 27.3832 84.5903 28.1764 84.1362 28.9696C82.6601 31.1226 80.5029 35.4286 82.5466 36.1084C83.7956 36.5617 85.9528 34.4087 87.0882 32.8223C87.883 31.8025 88.5643 30.6693 89.2455 29.5362C89.132 29.5362 89.132 29.5362 89.0184 29.5362ZM111.613 34.522C111.045 35.4285 110.478 37.015 112.294 35.9951C114.452 34.7487 117.631 29.9895 117.631 29.9895H118.993C117.744 31.9158 116.268 33.8421 114.792 35.5419C112.635 37.9215 109.91 40.1878 107.98 39.9611C105.709 39.7345 106.504 36.7883 106.504 36.7883C106.504 36.7883 103.325 40.1878 101.167 39.9611C98.2153 39.6212 99.1236 35.9951 99.1236 35.9951C99.1236 35.9951 95.7174 40.0744 93.4465 39.9611C89.8132 39.7345 90.7216 35.4286 91.7434 32.3691C92.3111 30.6693 92.7653 29.4229 92.7653 29.4229C92.7653 29.4229 92.4247 29.5362 91.6299 29.6495C91.2893 29.6495 90.4945 29.7628 90.4945 29.7628C90.4945 29.7628 89.0184 32.3691 87.7695 33.9555C86.5205 35.5419 81.5247 40.981 78.5727 39.8478C75.8477 38.828 76.756 34.6353 78.3456 31.2359C80.7299 26.3634 87.2018 19.3379 91.0622 20.2444C94.809 21.1509 91.1757 28.4031 91.1757 28.4031C91.4028 28.4031 91.6299 28.4031 91.9705 28.4031C92.4247 28.2897 92.9924 28.1764 93.4465 27.9498C95.8309 23.0773 98.5559 18.5447 101.735 14.2387C106.05 8.79965 114.792 -0.492131 118.199 1.77416C118.993 2.34073 118.653 4.26708 117.517 6.53336C117.063 6.64668 116.495 6.87331 115.928 6.98662C116.495 5.96679 117.063 4.83365 117.29 3.7005C117.744 0.867643 111.272 6.75999 106.617 13.1056C103.779 16.9583 101.281 20.9243 99.1236 25.2302C99.9184 24.777 100.827 24.0971 101.508 23.5305C103.552 21.8308 105.595 19.9045 107.412 17.9781C109.229 16.1651 110.932 14.2387 112.521 12.1991C112.976 12.1991 113.543 12.0858 113.997 12.0858C112.294 14.3521 110.478 16.6184 108.434 18.658C106.617 20.5844 104.574 22.5107 102.757 24.0971C101.167 25.4569 99.5778 26.7033 97.8746 27.7232C97.8746 27.7232 93.7872 35.8818 95.9445 36.4484C97.3069 36.7883 99.8048 32.8223 99.8048 32.8223C99.8048 32.8223 103.211 27.7232 105.255 25.3436C107.98 22.1708 110.364 20.3577 112.749 20.3577C113.657 20.471 114.452 21.0376 114.906 21.8308L115.587 20.811H119.675C119.788 20.811 112.294 33.5022 111.613 34.522ZM122.854 4.83365C120.015 6.64668 116.155 8.3464 112.408 7.89314C111.5 8.91297 110.478 10.0461 109.456 11.2926C116.041 12.539 121.718 8.57303 124.784 5.06028C125.919 3.81382 126.828 2.45404 127.622 0.980957C126.033 2.56736 124.557 3.81382 122.854 4.83365ZM115.928 37.6948H116.495C116.609 37.6948 116.836 37.6948 116.95 37.6948C117.177 37.8082 117.29 37.9215 117.177 38.1481C117.177 38.2614 117.063 38.3747 116.95 38.488C116.836 38.488 116.836 38.6014 116.722 38.6014C116.836 38.6014 116.95 38.7147 117.063 38.828C117.177 38.9413 117.177 39.0546 117.177 39.0546V39.2812V39.3946H116.95V39.1679C116.95 38.9413 116.95 38.828 116.836 38.7147C116.722 38.7147 116.609 38.6014 116.495 38.6014H116.268V39.2812H115.928V37.6948ZM116.95 38.1481C116.95 38.0348 116.95 37.9215 116.836 37.9215C116.722 37.9215 116.609 37.8082 116.495 37.8082H116.268V38.488H116.495C116.609 38.488 116.722 38.488 116.836 38.488C116.95 38.488 116.95 38.3747 116.95 38.1481ZM118.085 38.6014C118.085 39.2812 117.631 39.9611 116.95 40.1878C116.268 40.4144 115.474 40.0744 115.133 39.3946C114.792 38.7147 114.906 37.9215 115.36 37.4682C116.041 36.9016 116.95 36.9016 117.631 37.4682C117.971 37.6948 118.085 38.1481 118.085 38.6014ZM116.495 37.1283C116.155 37.1283 115.814 37.2416 115.474 37.5815C115.246 37.8082 115.019 38.1481 115.019 38.6014C115.019 38.9413 115.133 39.2812 115.474 39.6212C115.701 39.8478 116.041 40.0744 116.495 39.9611C116.836 39.9611 117.29 39.8478 117.517 39.6212C117.744 39.3946 117.971 38.9413 117.971 38.6014C117.971 38.2614 117.858 37.9215 117.517 37.5815C117.29 37.3549 116.95 37.2416 116.495 37.1283ZM66.4238 11.1793H62.5634L60.4061 14.5787H64.2665L66.4238 11.1793ZM48.2572 23.1906C49.8468 20.9243 54.3884 13.2189 54.3884 13.2189C54.3884 12.879 54.0478 12.6523 53.8207 12.6523C53.253 12.6523 52.1176 12.879 50.0739 15.3719C48.2572 17.5249 46.6676 19.6778 45.3051 22.1708C44.0562 24.437 43.4885 26.1368 44.1697 26.59C44.3968 26.7033 44.7374 26.7033 44.9645 26.7033C45.7593 26.3634 46.5541 25.7968 47.0083 25.1169C47.3489 24.5504 47.803 23.8705 48.2572 23.1906ZM27.7063 12.6523C26.6844 11.8591 23.9594 13.6722 23.9594 15.5985C23.9594 17.5249 26.3438 18.2048 26.6844 18.2048C26.7979 18.2048 27.025 18.2048 27.025 18.0914C27.1386 17.9781 27.3656 17.2982 27.8198 16.3917C28.274 15.3719 28.7281 13.4455 27.7063 12.6523ZM26.2302 19.4512C25.4354 19.2246 24.7542 18.8846 24.073 18.5447C23.5052 18.0914 22.9375 17.5249 22.5969 16.9583C22.5969 16.845 22.4834 16.9583 22.4834 16.9583C22.4834 16.9583 22.2563 17.2982 20.7803 19.4512C19.3042 21.4909 17.2605 25.9101 19.1907 26.59C20.4396 27.0433 22.5969 24.777 23.7323 23.3039C24.6407 22.1708 25.4354 20.9243 26.1167 19.6778C26.2302 19.4512 26.2302 19.4512 26.2302 19.4512ZM57.3405 20.6977H58.703C58.703 20.6977 51.6634 30.7827 47.6895 30.3294C45.5322 30.1028 46.0999 27.3832 46.0999 27.3832C46.0999 27.3832 43.0343 31.0093 40.1958 30.3294C37.6979 29.6495 39.401 25.3436 39.401 25.3436C39.0604 25.4569 33.4969 31.8025 29.5229 30.2161C25.549 28.6297 27.4792 23.3039 28.3875 21.7175C29.0688 20.3577 29.75 19.1113 29.75 19.1113C29.75 19.1113 29.0688 19.3379 28.7281 19.3379L27.7063 19.5645C27.7063 19.5645 25.7761 22.7373 24.5271 24.3237C23.2782 25.9101 18.2824 31.3492 15.3303 30.2161C12.3782 29.0829 13.0595 25.0036 14.7626 21.7175C17.4876 16.2784 23.9594 9.70617 27.8198 10.726C31.6802 11.7458 28.5011 18.0914 28.5011 18.0914C28.5011 18.0914 29.2958 18.2048 31.1125 16.9583C33.8375 15.1453 37.3573 10.1594 41.2177 10.726C43.0343 10.9526 44.7374 12.879 42.3531 16.3917C41.5583 17.5249 40.4229 18.5447 39.401 17.5249C38.8333 16.9583 39.2875 15.8251 39.9687 15.0319C40.4229 14.3521 41.2177 14.0121 42.0124 14.1254C42.0124 14.1254 42.6937 12.6523 40.9906 12.6523C39.6281 12.6523 36.3354 15.7118 34.5187 18.7713C32.8156 21.6042 30.2042 26.3634 32.8156 27.4965C35.2 28.4031 39.7416 23.0773 41.8989 20.2444C44.0562 17.4116 48.8249 10.9526 52.7988 10.726C53.7072 10.726 54.502 11.1793 54.9561 11.8591L55.4103 11.0659H59.4978C59.4978 11.0659 51.8905 23.7572 51.3228 24.6637C50.8686 25.4569 50.1874 27.1566 52.0041 26.1368C53.8207 25.1169 57.454 20.6977 57.3405 20.6977ZM55.2967 40.981C52.3447 38.9413 48.7114 37.9215 45.1916 38.0348C43.2614 38.0348 41.3312 39.0546 40.1958 40.7543C38.7198 38.0348 35.6541 36.4484 30.8854 36.4484C23.2782 36.5617 15.7845 40.0744 9.76678 40.0744C4.08973 40.0744 -0.111294 36.4484 0.00224745 30.1028C0.22933 18.8846 9.76678 8.79965 16.8063 4.26708C20.8938 1.66084 24.3 0.867642 26.4573 1.09427C27.4792 1.20759 28.3875 1.88747 28.9552 2.9073C29.4094 3.81382 29.4094 4.94696 28.8417 5.96679C27.025 10.0461 24.5271 9.70617 24.6407 7.77982C24.7542 6.75999 25.3219 5.85348 26.1167 5.28691C26.5709 5.06028 27.025 4.94696 27.5927 4.94696C27.9333 4.60702 28.274 2.45404 25.3219 3.13393C22.3698 3.81382 18.8501 6.75999 15.5574 10.3861C12.2647 14.0121 7.04179 21.0376 5.6793 28.4031C5.1116 31.8025 5.45222 38.0348 13.5136 37.9215C20.3261 37.9215 30.4313 33.3889 39.7416 33.5022C42.9208 33.5022 46.0999 34.2954 48.9384 35.9951C51.3228 37.2416 53.4801 38.9413 55.2967 40.981Z" fill="#14463A"/>
</svg>
