<svg width="103" height="65" viewBox="0 0 103 65" fill="none" xmlns="http://www.w3.org/2000/svg">
<path d="M52.8975 58.4674C51.1258 58.2141 49.5939 57.3037 48.5105 55.8606C48.1016 55.3158 47.6359 54.4232 47.4223 53.7748C47.0919 52.7717 46.9453 51.5535 47.0199 50.4318C47.2516 46.9501 49.3583 44.3449 52.5133 43.6383C52.9343 43.544 53.0977 43.5329 54.0509 43.5339C55.2048 43.5347 55.6862 43.5957 56.5667 43.851C57.3012 44.0639 58.1875 44.4788 58.487 44.7499L58.5891 44.8423V46.5566C58.5891 47.6805 58.573 48.2809 58.5425 48.2998C58.5168 48.3156 58.3804 48.223 58.2393 48.094C56.7942 46.773 54.2997 46.2157 52.6996 46.8565C51.7995 47.2169 51.0019 48.0257 50.6041 48.9814C50.3041 49.7021 50.2654 49.9285 50.2663 50.9544C50.2671 51.8154 50.2762 51.9189 50.3876 52.3389C50.7107 53.5575 51.4724 54.5445 52.4398 54.9982C53.0531 55.2859 53.296 55.334 54.1189 55.3309C54.7431 55.3285 54.9024 55.3125 55.2535 55.2168L55.6619 55.1054L55.6754 54.4938C55.6989 53.4191 55.5522 52.7311 55.0996 51.7942C54.9549 51.4946 54.7 51.0459 54.533 50.7971C54.3661 50.5483 54.2357 50.3134 54.2432 50.2751C54.2553 50.2134 54.5026 50.2072 56.4116 50.2211C57.5967 50.2297 58.5816 50.2463 58.6004 50.2578C58.6191 50.2694 58.6345 51.8082 58.6345 53.6775V57.0762L58.4977 57.1736C58.302 57.313 57.3258 57.7692 56.8192 57.958C56.253 58.1691 55.667 58.3339 55.1627 58.4239C54.5926 58.5257 53.4578 58.5475 52.8975 58.4674ZM67.0528 58.4609C65.468 58.2203 64.1592 57.5136 63.1174 56.3357C61.4571 54.4586 60.802 51.8604 61.3167 49.1931C61.8278 46.5438 63.7068 44.3494 66.0625 43.6506C66.8567 43.415 67.9284 43.3515 68.758 43.4907C70.7385 43.8233 72.5111 45.1716 73.4937 47.0931C74.7096 49.4707 74.6662 52.7028 73.3874 55.0043C72.4239 56.7382 70.8066 57.9706 68.9589 58.3788C68.6485 58.4473 67.3361 58.5039 67.0528 58.4609ZM68.7202 55.0747C69.8228 54.6617 70.603 53.7038 70.9654 52.3181C71.1182 51.7342 71.1588 50.6828 71.0542 50.0222C70.6938 47.7461 68.9904 46.3023 67.1525 46.7151C66.1908 46.9312 65.4314 47.5779 64.9201 48.6163C64.5153 49.4384 64.3683 50.1928 64.4115 51.2264C64.4627 52.4516 64.8577 53.476 65.5702 54.2315C66.0256 54.7143 66.4076 54.955 67.0074 55.137C67.4222 55.2629 68.3036 55.2308 68.7202 55.0747ZM16.8691 58.3369C16.8511 58.2898 23.1144 44.4884 23.3662 44.0204C23.4183 43.9236 23.4485 43.9182 23.9404 43.9182C24.4289 43.9182 24.4637 43.9247 24.5265 44.0204C24.5632 44.0766 25.0214 45.0928 25.5448 46.2786C29.7456 55.7979 30.8153 58.2405 30.8153 58.3139C30.8153 58.3777 30.7815 58.3984 30.6772 58.3984C30.2228 58.3984 28.7234 57.9325 28.0692 57.588C27.8361 57.4653 27.2711 57.1203 26.8137 56.8215C26.3563 56.5226 25.8289 56.1948 25.6417 56.0931C24.7033 55.583 23.1843 55.1677 22.0112 55.1005L21.5347 55.0731L21.285 55.5865C21.1478 55.8689 20.9418 56.2443 20.8274 56.4207C20.1833 57.4139 19.0171 58.0923 17.5424 58.3315C17.0335 58.4141 16.8991 58.4149 16.8691 58.3369ZM24.7948 51.2081C24.3496 50.1955 23.9665 49.3729 23.9436 49.3801C23.8846 49.3985 22.6925 52.1512 22.7295 52.1835C22.7463 52.1981 22.9336 52.2462 23.1457 52.2902C23.7297 52.4115 24.5179 52.6505 25.0744 52.875C25.349 52.9857 25.5806 53.0703 25.589 53.0628C25.5974 53.0555 25.24 52.2207 24.7948 51.2081ZM5.74219 58.2545C5.73001 58.2213 5.7147 55.7123 5.70818 52.6789C5.69904 48.4237 5.68353 47.135 5.64031 47.0379C5.6095 46.9686 5.42938 46.7347 5.24004 46.5181C4.62006 45.8088 4.13132 44.9683 3.9644 44.3242C3.83495 43.8248 3.51849 43.8728 6.9381 43.8728C8.6871 43.8728 10.1252 43.8925 10.3999 43.9202C13.2901 44.2118 15.4477 45.6321 16.4101 47.8765C16.6199 48.3659 16.7703 48.8613 16.8916 49.4624C16.9827 49.9142 16.9956 50.1132 16.996 51.0675C16.9965 52.3181 16.9434 52.7086 16.6505 53.606C16.1611 55.1058 15.2788 56.2571 13.9211 57.1672C13.1778 57.6655 12.3532 57.9889 11.3464 58.177C10.8626 58.2673 10.6399 58.2759 8.29442 58.2947C6.21655 58.3113 5.76038 58.3041 5.74219 58.2545ZM10.6883 55.0167C12.3183 54.6498 13.3147 53.7437 13.7127 52.2662C13.8006 51.9402 13.8155 51.7721 13.8156 51.1129C13.8156 50.2204 13.7382 49.8274 13.4399 49.2064C13.0761 48.4493 12.5524 47.9269 11.7775 47.5483C11.0515 47.1936 10.4283 47.0653 9.32689 47.0438L8.69154 47.0314L8.67982 51.024C8.67338 53.22 8.67894 55.045 8.69221 55.0798C8.72523 55.1663 10.2356 55.1185 10.6883 55.0167ZM32.4878 58.1977C32.4515 58.118 32.4486 56.1493 32.4774 51.0144L32.5171 43.9409L32.7934 43.9276L33.0697 43.9143L37.1603 47.6612C39.4101 49.7219 41.2616 51.408 41.2747 51.408C41.2878 51.408 41.2985 49.7473 41.2985 47.7176C41.2985 44.9078 41.3115 44.0142 41.353 43.9728C41.4159 43.9098 44.3209 43.8937 44.4187 43.9557C44.4639 43.9845 44.4732 45.4511 44.4641 51.1384L44.4526 58.2849L44.1785 58.2982L43.9044 58.3115L39.8262 54.5534C37.5831 52.4864 35.7205 50.7789 35.6869 50.7589C35.6359 50.7286 35.6258 51.3376 35.6258 54.4434C35.6258 56.4897 35.6134 58.1964 35.5982 58.2358C35.5739 58.2993 35.3952 58.3076 34.0543 58.3076H32.5379L32.4878 58.1977ZM79.7657 58.2058C79.7506 58.1496 79.7381 55.6065 79.7377 52.5545L79.737 47.0053H77.7493C76.2638 47.0053 75.7478 46.9915 75.7071 46.9508C75.6671 46.9107 75.6527 46.5207 75.6527 45.4787C75.6527 44.2506 75.6622 44.0517 75.724 43.9899C75.788 43.9258 76.3593 43.9186 81.34 43.9192C84.3896 43.9196 86.9105 43.9364 86.9421 43.9563C86.9868 43.9847 86.9968 44.3219 86.9874 45.4876L86.9755 46.9825L84.9674 46.9944L82.9592 47.0062V52.5853C82.9592 55.6537 82.9468 58.1967 82.9316 58.2361C82.9073 58.2997 82.7251 58.308 81.3486 58.308H79.793L79.7657 58.2058ZM89.4125 58.2534C89.3402 58.181 89.3327 44.1415 89.4053 44.0064C89.4512 43.9204 89.5504 43.9186 94.0456 43.9193C96.5875 43.9196 98.6669 43.9377 98.7016 43.9597C98.7884 44.0147 98.7378 44.3185 98.5422 44.9167C98.1554 46.0993 97.4679 46.8117 96.5732 46.9569C96.4014 46.9848 95.4907 47.0048 94.3844 47.0049L92.4897 47.0054V49.4558L94.8609 49.4676L97.2321 49.4794V52.4752L94.8609 52.487L92.4897 52.4988V55.1761H95.2094C97.6213 55.1761 97.9371 55.1842 98.0004 55.2475C98.0621 55.3092 98.0717 55.5072 98.0717 56.7257C98.0717 57.6087 98.0542 58.1653 98.0247 58.2204C97.9788 58.3063 97.8831 58.3082 93.7225 58.3082C90.4734 58.3082 89.4541 58.295 89.4125 58.2534ZM26.1212 40.2269C26.0445 40.1709 26.0578 40.1446 26.3106 39.8525C26.7271 39.3711 28.2289 37.9148 28.8638 37.3766C30.9243 35.6302 33.4429 34.0283 35.8527 32.9314C38.6764 31.6462 41.6016 30.776 44.6184 30.324C45.0513 30.2591 45.4482 30.1972 45.5003 30.1864C45.5645 30.1731 45.6476 30.0605 45.7583 29.8367C45.9573 29.4344 46.187 29.1587 46.4532 29.0026L46.6536 28.8852V28.5314C46.6536 28.2821 46.6185 28.059 46.5345 27.7754C46.3033 26.9946 46.2429 26.7339 46.2102 26.3764L46.1771 26.0151L45.9963 26.3247C45.7807 26.6938 45.3819 27.1399 45.0154 27.4219C44.5703 27.7646 44.5137 27.7789 43.613 27.7775C42.0873 27.7751 40.8406 27.5141 39.7328 26.9652C39.2012 26.7017 38.9701 26.5265 38.9932 26.4044C39.0032 26.3517 39.2107 26.26 39.6878 26.0978C40.5967 25.7889 41.0588 25.5936 41.8381 25.1892C44.2217 23.9524 45.8178 22.1863 46.5358 19.9914C46.8116 19.148 46.9664 18.1035 46.8283 18.0181C46.7481 17.9686 46.678 18.0969 46.4962 18.6259C46.1272 19.6995 45.4512 20.599 44.4486 21.3506C43.9875 21.6963 43.1496 22.1757 43.0067 22.1757C42.9134 22.1757 42.911 22.0486 42.9971 21.6679C43.123 21.1111 43.1422 20.4484 43.0323 20.4518C43.0147 20.4523 42.9187 20.5688 42.8188 20.7105C42.5513 21.0903 41.3565 22.3013 40.7338 22.8239C39.4778 23.8778 38.0688 24.8329 36.9155 25.4122C36.4286 25.6567 35.725 25.9409 35.5285 25.9723C35.2921 26.0101 35.2981 25.9623 35.6009 25.3898C36.1517 24.3485 36.954 22.3018 37.2078 21.2906C37.283 20.991 37.3872 20.5212 37.4393 20.2466C37.537 19.731 37.7126 18.4867 37.6909 18.4627C37.6841 18.4554 37.5435 18.5514 37.3783 18.6765C37.0576 18.9193 36.7453 19.0468 36.6658 18.9673C36.5928 18.8943 36.6098 17.1867 36.69 16.5358C36.8663 15.1049 37.21 13.9592 37.8305 12.7341C38.6483 11.1194 39.8362 9.81905 41.0011 9.26322C41.5131 9.01894 41.7319 8.96659 42.2407 8.96659C42.7133 8.96659 43.0014 9.04158 43.4769 9.28817C44.0544 9.58775 44.486 9.99601 44.7281 10.4718L44.8357 10.6832L44.6053 10.9711C44.0395 11.6779 43.8657 12.379 44.064 13.1544C44.1761 13.5926 44.297 13.8277 44.5483 14.0965C44.8375 14.4057 45.2062 14.5615 45.7082 14.5864C46.0847 14.6051 46.6708 14.5175 46.8274 14.419C46.8757 14.3887 46.8556 14.2866 46.7271 13.9094C46.5165 13.2912 46.4544 12.8703 46.4868 12.2802C46.5282 11.526 46.7633 10.7508 47.1375 10.1346L47.3059 9.85727L47.1726 9.76372C46.7552 9.47075 46.1131 8.55794 46.3246 8.55807C46.3433 8.55809 46.4709 8.60275 46.6082 8.6573C46.8004 8.73365 46.9571 8.75715 47.289 8.7594C47.7718 8.76263 47.8155 8.7465 48.4576 8.32577C48.9023 8.03443 49.6164 7.68919 50.0573 7.55248C50.3215 7.47052 50.5042 7.44679 50.8741 7.44642C51.3039 7.44598 51.3759 7.45835 51.6075 7.57212C51.9029 7.71723 52.1371 7.95695 52.3027 8.28371C52.3894 8.45499 52.4602 8.52945 52.5862 8.58211C52.9128 8.71861 53.0817 8.97711 53.126 9.4086C53.1535 9.67623 53.085 10.1778 53.0108 10.252C52.9859 10.277 52.9001 10.2394 52.7954 10.1576C52.3044 9.77451 51.6086 9.85201 51.161 10.3397C51.0024 10.5125 50.7519 10.9097 50.7938 10.9221C50.8006 10.9237 50.9694 10.9333 51.1691 10.9425C52.3707 10.9979 53.2661 11.7998 53.8199 13.3165C53.8898 13.508 53.9823 13.8179 54.0254 14.0051C54.1383 14.4956 54.1176 14.4627 54.2777 14.4069C54.4972 14.3304 54.8813 13.9492 55.0158 13.6746C55.2751 13.1448 55.3183 12.4321 55.1247 11.8752C55.0111 11.5486 54.7156 11.0456 54.5483 10.8941C54.3778 10.7399 54.4336 10.6377 54.9716 10.1189C55.7945 9.32525 56.3576 9.06316 57.3257 9.02303C57.9362 8.99772 58.3041 9.06254 58.8849 9.29768C60.5998 9.99194 62.3128 12.4743 62.9871 15.2425C63.2002 16.1169 63.2681 16.6702 63.2956 17.7565C63.3235 18.8591 63.3095 18.9983 63.1705 18.9983C63.0426 18.9983 62.5716 18.7533 62.3858 18.5901C62.3003 18.515 62.2151 18.4536 62.1964 18.4536C62.1777 18.4536 62.1731 18.8366 62.1862 19.3047C62.2126 20.2449 62.287 20.7503 62.5852 22.0169C62.9977 23.7687 63.3039 24.7417 63.6999 25.5596C63.9078 25.9887 63.9272 26.0566 63.855 26.1012C63.7852 26.1444 63.1662 25.9183 62.6633 25.6659C61.6782 25.1714 60.683 24.4646 59.4112 23.3559C58.5954 22.6449 57.6364 21.3084 56.9241 19.8898C56.7171 19.4777 56.6636 19.4009 56.6344 19.4749C56.5765 19.6221 56.5874 20.1653 56.66 20.7476C56.6972 21.0463 56.7279 21.357 56.7281 21.4381C56.7285 21.5707 56.7151 21.5857 56.5971 21.5857C56.3909 21.5857 55.8777 21.4125 55.4804 21.209C55.2192 21.0752 55.0172 20.9237 54.7602 20.6688C54.5637 20.474 54.4001 20.3147 54.3966 20.3147C54.3931 20.3147 54.3979 20.7539 54.4072 21.2908C54.4465 23.5578 54.1144 25.1857 53.2364 27.0293C52.9113 27.712 52.8256 28.0166 52.8256 28.4892V28.7488L53.1546 28.8476C53.983 29.0964 54.6198 29.5569 54.7301 29.9872C54.7584 30.0974 54.7883 30.2086 54.7967 30.2344C54.8051 30.2602 54.993 30.3074 55.2143 30.3395C55.7212 30.4127 56.8254 30.625 57.4772 30.7744C62.5456 31.9363 67.0797 34.1872 70.9169 37.4465C71.7061 38.1168 73.6105 40.0265 73.6105 40.1475C73.6105 40.2844 73.423 40.3118 73.0459 40.2299C72.5797 40.1287 72.0144 39.9077 70.3204 39.164C67.5138 37.932 66.1732 37.3987 64.3526 36.7899C56.0165 34.0022 47.4694 33.6991 38.7568 35.8823C35.9349 36.5893 33.5079 37.4425 29.7488 39.0489C27.8658 39.8535 27.3138 40.0712 26.8472 40.1931C26.4293 40.3023 26.2365 40.3113 26.1212 40.2269ZM50.5965 29.7351C50.7347 29.4225 50.9538 29.1294 51.1617 28.9787C51.4102 28.7987 51.4252 28.7649 51.424 28.3883C51.4227 27.98 51.3319 27.7101 51.0511 27.2798C50.6315 26.6369 50.2595 25.795 50.1044 25.1376C50.0735 25.0065 50.0324 24.8993 50.013 24.8993C49.9937 24.8993 49.912 25.0882 49.8314 25.3191C49.664 25.799 49.3794 26.3912 49.2042 26.6242C49.1384 26.7116 48.8791 27.0282 48.6278 27.3278C48.3766 27.6273 48.1412 27.944 48.1049 28.0313C48.0685 28.1187 48.0385 28.3117 48.0383 28.4602L48.0378 28.7301L48.3862 28.7845C48.8593 28.8582 49.264 28.9992 49.5434 29.1874C49.7957 29.3573 49.9165 29.5022 50.0271 29.7676C50.0942 29.9286 50.1091 29.9378 50.3024 29.9378C50.5008 29.9378 50.5095 29.9322 50.5965 29.7351Z" fill="#14463A"/>
<path d="M52.9845 58.4413C51.0848 58.1848 49.3946 57.1355 48.3395 55.5576C46.9085 53.4175 46.6305 50.3608 47.6382 47.8471C48.5663 45.5321 50.5239 43.9712 52.9618 43.6022C53.4431 43.5294 54.6141 43.5395 55.2375 43.622C56.4434 43.7815 57.5691 44.1715 58.3509 44.7005L58.5438 44.831V46.531C58.5438 48.3658 58.5443 48.3628 58.3135 48.1111C57.9332 47.6963 56.9997 47.1535 56.2228 46.8955C55.5241 46.6634 55.1433 46.594 54.4115 46.5655C53.3757 46.5252 52.7675 46.6843 52.0031 47.1957C51.1817 47.7453 50.6131 48.5884 50.3168 49.6964C50.2291 50.0244 50.2175 50.179 50.2203 50.9773C50.2233 51.8073 50.2338 51.9232 50.3424 52.329C50.6814 53.5956 51.3982 54.5348 52.3945 55.018C53.0227 55.3226 53.2806 55.3781 54.0737 55.3792C54.7574 55.38 55.1913 55.3151 55.5773 55.1538L55.7301 55.0899V54.485C55.7301 53.7441 55.6722 53.2575 55.522 52.7366C55.3407 52.1079 54.881 51.1931 54.4508 50.6048C54.1403 50.1803 53.9838 50.2093 56.3973 50.2436C57.5629 50.2602 58.5331 50.2902 58.5532 50.3103C58.5733 50.3304 58.5845 51.8675 58.5781 53.7261L58.5665 57.1052L57.9273 57.423C56.9535 57.9071 56.0503 58.2206 55.1855 58.3748C54.6778 58.4653 53.4391 58.5028 52.9845 58.4413ZM66.7623 58.374C64.1262 57.9128 61.9193 55.5933 61.3574 52.6931C60.9961 50.8281 61.2231 48.8889 61.9879 47.3078C62.9733 45.2706 64.7267 43.8838 66.7546 43.5379C67.2956 43.4456 68.1946 43.4443 68.7548 43.5354C70.1531 43.7621 71.5564 44.5721 72.5147 45.7056C73.7877 47.2114 74.4061 49.1231 74.3229 51.2954C74.2378 53.5193 73.4754 55.3019 72.0103 56.7026C71.1427 57.532 70.1335 58.072 68.959 58.3354C68.5033 58.4375 67.2508 58.4594 66.7623 58.374ZM68.7203 55.1205C69.8432 54.7005 70.6473 53.7166 71.01 52.3187C71.1671 51.7133 71.2052 50.6656 71.0943 50.0022C70.8948 48.809 70.4056 47.9089 69.6069 47.2653C69.042 46.8101 68.2572 46.5589 67.5666 46.6121C65.628 46.7617 64.2499 48.7505 64.3689 51.227C64.4525 52.9657 65.2408 54.3646 66.4816 54.976C66.9592 55.2113 67.2407 55.2668 67.8698 55.2497C68.3165 55.2375 68.4694 55.2143 68.7203 55.1205ZM16.9397 58.2287C16.9616 58.1021 23.2779 44.2541 23.3995 44.0663C23.4614 43.9706 23.497 43.9642 23.9626 43.9642H24.4596L24.5286 44.0977C24.6783 44.3872 30.7395 58.1557 30.7594 58.2514C30.778 58.3413 30.7623 58.3535 30.6278 58.3535C30.2108 58.3535 28.7387 57.8903 28.0925 57.5561C27.8803 57.4464 27.2983 57.0892 26.7991 56.7624C25.4839 55.9014 24.8404 55.6107 23.5543 55.2962C23.0234 55.1665 22.1374 55.0399 21.7597 55.0399H21.5127L21.2123 55.6413C21.047 55.9721 20.8246 56.3653 20.7181 56.5151C20.2111 57.2277 19.3981 57.7807 18.3926 58.0968C18.0285 58.2113 17.2854 58.3535 17.0515 58.3535C16.9311 58.3535 16.9203 58.3415 16.9397 58.2287ZM25.6282 53.0409C25.5666 52.8053 23.9803 49.2769 23.9417 49.2897C23.8889 49.3072 22.6313 52.18 22.6627 52.2114C22.6748 52.2235 22.9059 52.2814 23.1762 52.34C23.8336 52.4826 24.6162 52.7241 25.1426 52.9468C25.6462 53.1598 25.66 53.1625 25.6282 53.0409ZM5.78654 58.206C5.77527 58.1748 5.7606 55.6777 5.75393 52.6568C5.74305 47.7303 5.73431 47.148 5.66905 47.0055C5.62903 46.9181 5.44994 46.6857 5.27106 46.4891C4.9056 46.0874 4.53599 45.5498 4.29975 45.0763C4.12629 44.7286 3.94922 44.1988 3.94922 44.0275V43.9188H6.96891C8.76002 43.9188 10.1679 43.9382 10.4293 43.9663C13.1068 44.2549 15.0294 45.4148 16.1437 47.414C16.5023 48.0574 16.8269 49.1284 16.9294 50.007C17.0104 50.7007 16.9637 52.1544 16.8413 52.7476C16.4571 54.6108 15.4964 56.0579 13.9584 57.0903C12.989 57.741 12.0775 58.059 10.7338 58.2151C10.1159 58.2868 5.81289 58.279 5.78654 58.206ZM10.6511 55.0671C11.1344 54.968 11.728 54.7483 12.0913 54.534C12.5142 54.2847 13.1422 53.6556 13.3596 53.2637C13.8695 52.3444 14.023 51.0536 13.7528 49.956C13.6369 49.485 13.3288 48.8427 13.0512 48.4934C12.2633 47.5019 10.924 46.9799 9.25892 47.0152L8.64626 47.0282L8.63467 51.0404C8.62559 54.1824 8.63535 55.0674 8.67941 55.1206C8.72713 55.1781 8.85724 55.1843 9.53057 55.1611C9.96772 55.1461 10.4719 55.1038 10.6511 55.0671ZM32.5223 58.1916C32.4863 58.0977 32.4871 44.2009 32.5232 44.0663C32.5475 43.9757 32.5794 43.9642 32.8062 43.9642H33.0619L37.1462 47.7073C39.3926 49.766 41.256 51.4512 41.2871 51.4522C41.3316 51.4538 41.346 50.6626 41.3552 47.7204L41.3668 43.9869H44.4074L44.4301 51.0681C44.4425 54.9627 44.4451 58.1757 44.4358 58.208C44.4238 58.2496 44.3408 58.2629 44.1527 58.2534L43.8866 58.24L39.7963 54.4725C37.5467 52.4003 35.6779 50.6984 35.6436 50.6903C35.591 50.678 35.5793 51.2742 35.5695 54.4579L35.5579 58.24L34.054 58.252C32.7122 58.2626 32.5471 58.2561 32.5223 58.1916ZM79.8171 58.252C79.8111 58.2456 79.7958 55.7072 79.783 52.6115L79.7599 46.9828L77.7404 46.9601L75.7209 46.9375L75.7089 45.5024C75.6992 44.3311 75.7084 44.0577 75.7592 44.0156C75.8051 43.9774 77.2757 43.967 81.3758 43.9754L86.9303 43.987V46.9375L84.9335 46.9601L82.9367 46.9828L82.914 52.6114L82.8913 58.24L81.3596 58.252C80.5172 58.2584 79.8231 58.2585 79.8171 58.252ZM89.4338 58.2325C89.4172 58.2159 89.4036 55.0216 89.4036 51.1342C89.4036 45.2347 89.4138 44.0577 89.4653 44.015C89.5103 43.9776 90.76 43.9669 94.1056 43.9754L98.6842 43.9869L98.6727 44.2074C98.6572 44.5055 98.3724 45.347 98.1689 45.6959C97.7834 46.3568 97.2116 46.7996 96.5997 46.9111C96.434 46.9412 95.5824 46.9601 94.3866 46.9601H92.4427L92.4548 48.2197L92.4669 49.4793L94.8388 49.4911L97.2106 49.5029L97.1987 50.9664L97.1867 52.4299L94.8268 52.4525L92.4669 52.4752L92.4549 53.8483L92.4429 55.2214H95.1801C97.2486 55.2214 97.9306 55.2347 97.9718 55.2759C98.0118 55.3159 98.0263 55.7008 98.0263 56.7248C98.0263 57.4917 98.0139 58.1514 97.9987 58.1909C97.9739 58.2557 97.5544 58.2627 93.7177 58.2627C91.3783 58.2627 89.4505 58.2491 89.4338 58.2325ZM26.141 40.1573C26.141 40.1027 27.101 39.096 27.7294 38.4918C32.2201 34.174 38.4821 31.2171 45.0342 30.3206L45.6157 30.241L45.7477 29.9497C45.9355 29.5355 46.164 29.2443 46.4507 29.054L46.6991 28.8891V28.5335C46.6991 28.2812 46.6643 28.0609 46.5795 27.7756C46.5137 27.5543 46.4207 27.2405 46.3728 27.0783C46.3249 26.916 46.271 26.5687 46.253 26.3066L46.2202 25.83L46.0788 26.1026C45.7762 26.6862 45.2113 27.2904 44.6716 27.6078L44.4527 27.7365L43.5904 27.7324C42.052 27.726 40.7584 27.451 39.6745 26.9004C39.3314 26.7261 39.0295 26.5027 39.0295 26.4232C39.0295 26.3815 39.2312 26.2921 39.6082 26.1669C42.3449 25.2573 44.3377 23.8794 45.571 22.0437C46.136 21.2028 46.5088 20.3626 46.7461 19.3952C46.9538 18.5486 46.9812 17.954 46.8127 17.954C46.7127 17.954 46.6315 18.1079 46.4324 18.6745C45.9606 20.0171 44.8847 21.1897 43.4296 21.9468C42.9979 22.1715 42.9611 22.1745 42.9902 21.9826C43.0024 21.9015 43.0476 21.613 43.0904 21.3415C43.1652 20.8676 43.156 20.3599 43.0726 20.3599C43.0535 20.3599 42.9079 20.5284 42.7491 20.7343C41.3423 22.5586 38.1848 24.9185 36.0006 25.778C35.5948 25.9377 35.399 25.9802 35.399 25.9087C35.399 25.8897 35.5381 25.5986 35.7081 25.2618C36.3055 24.0786 37.0041 22.2824 37.2541 21.287C37.4835 20.3737 37.7926 18.4994 37.7305 18.3989C37.718 18.3787 37.6011 18.4491 37.4707 18.5553C37.174 18.797 36.841 18.9759 36.7519 18.9417C36.5928 18.8807 36.6226 17.1405 36.8016 16.0408C36.9894 14.8872 37.2921 13.9318 37.7991 12.8928C38.7448 10.9544 40.2594 9.42401 41.5748 9.07766C41.9483 8.97932 42.5271 8.98001 42.8702 9.07927C43.5742 9.28282 44.3618 9.87211 44.6483 10.4097L44.7915 10.6784L44.5581 10.9686C44.0459 11.6055 43.8497 12.3045 43.9872 13.0024C44.1349 13.7524 44.4535 14.2096 45.0131 14.4748C45.3013 14.6114 45.3395 14.6177 45.8595 14.6146C46.2744 14.6121 46.4635 14.5905 46.6537 14.5238C46.9484 14.4204 46.9484 14.4204 46.7543 13.8688C46.5657 13.333 46.5001 12.8732 46.5289 12.2905C46.5659 11.5432 46.8009 10.7637 47.1745 10.1484C47.3372 9.88056 47.3684 9.78354 47.2916 9.78354C47.127 9.78354 46.2845 8.76882 46.3547 8.65517C46.3703 8.62993 46.4803 8.65114 46.6197 8.70694C46.7997 8.77862 46.9632 8.8025 47.2891 8.80471C47.7719 8.80794 47.8156 8.79181 48.4577 8.37107C48.9013 8.0804 49.6155 7.73495 50.0574 7.59729C50.5537 7.44264 51.257 7.44509 51.5769 7.60294C51.862 7.74324 52.1373 8.02441 52.2727 8.31345C52.3599 8.49972 52.4169 8.5561 52.6129 8.6499C52.7925 8.73585 52.8753 8.81106 52.9618 8.96685C53.062 9.14726 53.0752 9.2247 53.0748 9.63003C53.0741 10.2163 53.0276 10.2932 52.7872 10.1059C52.3151 9.73805 51.6096 9.81137 51.1598 10.275C50.962 10.4788 50.7187 10.896 50.7593 10.9617C50.774 10.9855 50.8824 10.9939 51.0003 10.9806C51.2898 10.9476 51.8292 11.0672 52.1903 11.2444C52.9576 11.6208 53.6692 12.7057 53.9649 13.9493C54.0789 14.4289 54.1068 14.4864 54.2158 14.467C54.3843 14.437 54.7337 14.1738 54.8928 13.9569C55.1305 13.633 55.2417 13.2842 55.2665 12.7844C55.3008 12.0946 55.124 11.5443 54.7016 11.0255C54.5501 10.8395 54.5036 10.748 54.5225 10.6729C54.5627 10.5125 55.4001 9.7314 55.7629 9.51588C56.271 9.214 56.6952 9.09392 57.3412 9.06908C57.9674 9.04497 58.4331 9.13173 58.968 9.37211C60.6493 10.1276 62.3306 12.6239 62.9601 15.2991C63.1655 16.1719 63.2256 16.6954 63.2508 17.829C63.2727 18.8141 63.2682 18.9088 63.1977 18.9359C63.0904 18.9771 62.6995 18.7874 62.4123 18.5547C62.2152 18.3951 62.1675 18.3735 62.1444 18.4337C62.129 18.474 62.1277 18.878 62.1416 19.3315C62.1722 20.3304 62.2565 20.8434 62.6552 22.4597C63.0818 24.1886 63.275 24.7829 63.6818 25.6174C63.8022 25.8643 63.8504 26.0102 63.8213 26.0393C63.758 26.1026 63.1478 25.8713 62.525 25.5481C61.0196 24.7667 59.1372 23.199 58.2341 21.9746C57.8004 21.3865 57.2925 20.5436 56.9264 19.8043C56.7811 19.5109 56.6483 19.2709 56.6312 19.2709C56.523 19.2709 56.5491 20.4172 56.6752 21.2021C56.7207 21.4856 56.7037 21.5405 56.5706 21.5405C56.3896 21.5405 55.8576 21.3572 55.4969 21.1704C55.1197 20.9752 54.6596 20.5882 54.5026 20.3342C54.4482 20.2461 54.3908 20.1868 54.3752 20.2025C54.3595 20.2181 54.3529 20.735 54.3606 21.351C54.3887 23.6099 54.0675 25.1887 53.217 26.9718C52.8559 27.729 52.7589 28.0886 52.7889 28.5598C52.8028 28.7787 52.8047 28.7811 53.0072 28.8415C53.7296 29.0571 54.2605 29.3496 54.5193 29.6746C54.5928 29.767 54.6771 29.9505 54.7069 30.0828L54.7611 30.3233L55.4838 30.446C61.5697 31.4795 66.9636 34.0134 71.3188 37.8849C72.0133 38.5022 73.5757 40.0976 73.5409 40.1539C73.5264 40.1775 73.4318 40.1968 73.3308 40.1968C72.9128 40.1968 72.3034 39.9715 70.1389 39.0169C66.2223 37.2897 63.8477 36.4438 60.7855 35.6853C58.2492 35.0571 55.9706 34.7011 53.0072 34.4699C52.0063 34.3919 48.2861 34.3906 47.289 34.4683C44.0235 34.7218 41.6365 35.0972 38.8339 35.7983C35.8603 36.5422 33.5483 37.3554 29.6022 39.0453C28.0483 39.7107 27.3764 39.9771 26.9126 40.1116C26.6093 40.1996 26.141 40.2271 26.141 40.1573ZM50.6822 29.6658C50.8218 29.3685 50.9874 29.1669 51.3212 28.8878C51.4581 28.7734 51.4642 28.7538 51.4642 28.4308C51.4642 27.9782 51.3803 27.723 51.072 27.2371C50.6975 26.6472 50.4041 26.0037 50.2077 25.342C50.1132 25.0237 50.0221 24.7633 50.0052 24.7633C49.9883 24.7633 49.9304 24.9011 49.8766 25.0696C49.5936 25.9552 49.2666 26.5231 48.5766 27.3279C48.0741 27.9141 48.0002 28.0582 47.9959 28.4599L47.9925 28.7748L48.3574 28.8275C49.0643 28.9296 49.5946 29.1789 49.8545 29.5312C49.9161 29.6149 49.9666 29.6984 49.9666 29.7169C49.9666 29.7353 49.9865 29.8029 50.0108 29.8669C50.0507 29.9718 50.0789 29.9833 50.2945 29.9825L50.5339 29.9817L50.6822 29.6658Z" fill="#14463A"/>
<path d="M52.7125 58.3733C51.8639 58.2156 51.1528 57.9525 50.4459 57.5349C48.3346 56.2876 47.0624 53.8389 47.0624 51.0222C47.0624 47.4593 49.1104 44.5787 52.2083 43.7842C53.6324 43.4189 55.417 43.5142 56.9484 44.0373C57.3594 44.1777 58.2215 44.6081 58.4108 44.7675L58.5441 44.8797V46.5249C58.5441 47.4297 58.53 48.1841 58.5129 48.2013C58.4958 48.2184 58.409 48.1626 58.32 48.0773C57.6355 47.4207 56.5395 46.8858 55.3673 46.6363C54.691 46.4923 53.6848 46.4915 53.1663 46.6347C51.1113 47.2016 49.8989 49.2432 50.1962 51.6363C50.4372 53.5768 51.569 54.9671 53.2117 55.3407C53.8821 55.4932 54.989 55.4184 55.6107 55.1787L55.7407 55.1287L55.7186 54.1876C55.7001 53.4008 55.6803 53.1908 55.5978 52.9061C55.3803 52.1556 55.085 51.525 54.6141 50.8051C54.4543 50.5609 54.3236 50.3411 54.3236 50.3167C54.3236 50.2884 55.0806 50.2768 56.4225 50.2843L58.5214 50.296V57.101L57.9995 57.3646C57.0833 57.8273 56.1684 58.156 55.2993 58.3348C54.7824 58.4412 53.2041 58.4646 52.7125 58.3733ZM67.0759 58.3963C64.7274 58.1055 62.6894 56.407 61.7414 53.9506C61.4143 53.103 61.2665 52.3145 61.2345 51.2466C61.1895 49.742 61.4324 48.5136 62.0147 47.2999C62.6785 45.9166 63.9599 44.613 65.2207 44.0383C65.6611 43.8375 66.3248 43.6269 66.7582 43.5504C67.2513 43.4634 68.3703 43.4737 68.8541 43.5696C71.361 44.0669 73.3684 46.0574 74.0357 48.7077C74.3515 49.9622 74.3883 51.5426 74.1308 52.7925C73.6156 55.2929 71.9505 57.2947 69.7187 58.097C68.9796 58.3626 67.8433 58.4913 67.0759 58.3963ZM68.368 55.2432C69.7109 54.9587 70.7416 53.7511 71.0989 52.0436C71.1985 51.5679 71.2099 50.4534 71.1204 49.9555C70.8144 48.2543 69.7926 46.9985 68.4385 46.6596C68.0007 46.55 67.2013 46.5906 66.7926 46.7431C65.9104 47.0725 65.1655 47.8183 64.7548 48.7836C64.1817 50.1307 64.2011 51.9191 64.8027 53.2033C65.5225 54.7396 66.9338 55.5471 68.368 55.2432ZM30.2766 58.2814C29.5422 58.1187 28.5759 57.7839 28.0664 57.5157C27.8647 57.4095 27.3169 57.0721 26.849 56.7659C25.7395 56.0398 25.2951 55.8105 24.4705 55.5386C23.5548 55.2366 22.8101 55.0857 22.0763 55.0533L21.4829 55.0272L21.2257 55.5582C21.0842 55.8503 20.8798 56.2258 20.7714 56.3928C20.1719 57.3161 19.0551 57.9883 17.7066 58.2376C17.3201 58.309 16.9288 58.3303 16.9288 58.2798C16.9288 58.2059 23.429 44.0305 23.4768 44.0001C23.5764 43.9368 24.4004 43.9573 24.4561 44.0245C24.5217 44.1035 30.7321 58.1729 30.7409 58.2623C30.7499 58.3535 30.6248 58.3586 30.2766 58.2814ZM25.6875 53.1275C25.6875 53.0143 23.9871 49.2287 23.9428 49.2433C23.886 49.2619 22.6469 52.0761 22.6469 52.1865C22.6469 52.2409 22.7019 52.2713 22.8398 52.2933C23.4646 52.393 24.6215 52.7426 25.3018 53.0374C25.6593 53.1924 25.6875 53.1989 25.6875 53.1275ZM5.8242 58.2056C5.804 58.1744 5.77727 55.6568 5.76479 52.611C5.74582 47.9813 5.73169 47.0548 5.67864 46.9613C5.64373 46.8999 5.46361 46.6762 5.27837 46.4643C4.85649 45.9816 4.5008 45.4496 4.27089 44.9573C4.0639 44.5141 3.92311 44.0174 3.98652 43.9539C4.05013 43.8903 10.1849 43.9375 10.6434 44.0051C12.9402 44.3439 14.573 45.2179 15.6542 46.6872C15.9769 47.1258 16.4161 47.9894 16.5877 48.5227C16.9739 49.7231 17.0707 51.2681 16.8426 52.5892C16.5746 54.1412 15.7937 55.5534 14.6674 56.5227C13.4349 57.5832 12.2014 58.0697 10.3711 58.217C9.52307 58.2852 5.86982 58.276 5.8242 58.2056ZM10.5299 55.0989C11.0789 55.0101 11.6278 54.8234 12.0675 54.5759C12.5588 54.2993 13.1684 53.679 13.42 53.1997C14.0466 52.0059 14.0641 50.2987 13.4619 49.1026C13.1157 48.415 12.5893 47.8885 11.8914 47.5315C11.1334 47.1438 10.4845 47.0039 9.38442 46.991L8.64655 46.9823V55.1529L8.94154 55.1801C9.34335 55.2171 10.0104 55.1833 10.5299 55.0989ZM32.5711 58.2327C32.5541 58.2156 32.5402 55.0106 32.5402 51.1103C32.5402 44.6857 32.547 44.0162 32.612 43.9913C32.7465 43.9396 32.9736 43.9635 33.086 44.0413C33.1901 44.1132 34.5122 45.319 39.3587 49.762C40.4008 50.7173 41.2709 51.4988 41.2923 51.4988C41.3722 51.4988 41.389 50.798 41.3894 47.447L41.3898 44.0079L42.8988 44.0198L44.4077 44.0318V58.2395L44.2111 58.2536C44.0856 58.2627 43.974 58.2412 43.9024 58.1943C43.8407 58.1539 41.9627 56.4368 39.729 54.3786C37.4952 52.3203 35.6481 50.6363 35.6242 50.6363C35.5976 50.6363 35.5783 51.1698 35.5745 52.0094C35.571 52.7647 35.5557 54.4754 35.5404 55.8111L35.5127 58.2395L34.0573 58.2515C33.2569 58.2579 32.588 58.25 32.5711 58.2327ZM79.8591 58.2327C79.8421 58.2156 79.8283 55.6837 79.8283 52.6061C79.8283 49.4678 79.8109 46.9996 79.7886 46.9859C79.7669 46.9724 78.8733 46.9602 77.8029 46.9587C76.7325 46.9571 75.8311 46.9401 75.7997 46.9207C75.7553 46.8933 75.7452 46.5667 75.7546 45.4587L75.7666 44.0319H86.9305L86.9426 45.4731C86.949 46.2658 86.949 46.9189 86.9426 46.9245C86.9361 46.9301 86.0218 46.9453 84.9111 46.9585L82.8916 46.9824L82.8689 52.611L82.8463 58.2396L81.3682 58.2516C80.5552 58.258 79.8761 58.2499 79.8591 58.2327ZM89.4797 58.2321C89.463 58.2154 89.4493 55.0084 89.4493 51.1054V44.0091H98.6618V44.1367C98.6618 44.3195 98.5016 44.9058 98.3598 45.2421C98.186 45.6539 97.7911 46.2375 97.5553 46.4307C97.3073 46.634 96.9773 46.8033 96.7085 46.8653C96.5868 46.8934 95.7083 46.9124 94.5036 46.913C92.8626 46.9138 92.4916 46.9254 92.4493 46.9764C92.4128 47.0205 92.4012 47.3966 92.4097 48.2588L92.4218 49.4788L94.8044 49.5025C96.1148 49.5156 97.1923 49.5309 97.1989 49.5365C97.2053 49.5422 97.2053 50.1852 97.1989 50.9654L97.1869 52.3839L94.8539 52.3956C93.223 52.4039 92.5025 52.4227 92.46 52.458C92.3706 52.5322 92.3707 55.1409 92.46 55.215C92.5029 55.2507 93.3235 55.2691 95.2396 55.2774L97.9583 55.2891V58.2395L93.7342 58.2512C91.411 58.2576 89.4965 58.2487 89.4797 58.2321ZM26.1867 40.1306C26.1867 39.9989 27.8718 38.3106 28.7735 37.5389C33.1851 33.7631 38.5978 31.318 44.5891 30.3943C45.0883 30.3174 45.5376 30.2452 45.5875 30.2341C45.6477 30.2206 45.7051 30.1384 45.7579 29.9896C45.8732 29.6648 46.2117 29.2286 46.4758 29.0643C46.6136 28.9787 46.7122 28.8809 46.7292 28.813C46.7835 28.5968 46.7018 28.0914 46.5147 27.4863C46.3486 26.9491 46.3224 26.805 46.3026 26.3175C46.2902 26.0117 46.2635 25.7614 46.2434 25.7614C46.2233 25.7614 46.1542 25.8764 46.0899 26.0168C45.7745 26.7059 44.9257 27.5592 44.4446 27.6709C44.205 27.7266 43.0663 27.7233 42.5338 27.6653C41.2822 27.5293 40.0831 27.1591 39.3368 26.6783C39.1934 26.5859 39.0758 26.4772 39.0756 26.4369C39.0753 26.3836 39.2022 26.3234 39.5404 26.2167C42.2565 25.3594 44.4437 23.8356 45.667 21.9483C46.3392 20.9114 46.8252 19.5771 46.9522 18.4199C46.9767 18.1965 46.9677 18.1133 46.9093 18.0242C46.7704 17.8122 46.6468 17.9584 46.4469 18.5711C46.3114 18.9861 46.0747 19.464 45.7975 19.8818C45.536 20.276 44.8354 20.9913 44.3849 21.3242C43.8363 21.7296 43.0698 22.146 43.0003 22.0765C42.9899 22.0661 43.0212 21.8645 43.0699 21.6285C43.1644 21.1704 43.1879 20.472 43.1126 20.3596C43.0606 20.282 43.0893 20.2534 42.6277 20.8438C42.2331 21.3485 41.0273 22.5182 40.316 23.0865C38.794 24.3022 37.1714 25.3057 36.0118 25.7484C35.4975 25.9447 35.4446 25.9582 35.4446 25.8935C35.4446 25.8629 35.5652 25.6011 35.7126 25.3116C36.3345 24.0902 37.0336 22.2739 37.3039 21.1768C37.5495 20.1802 37.8336 18.317 37.74 18.317C37.7224 18.317 37.6073 18.4038 37.4844 18.5099C37.3615 18.616 37.1535 18.7584 37.0222 18.8263C36.6585 19.0145 36.6556 19.0058 36.6852 17.7949C36.731 15.9219 37.0536 14.5027 37.7791 12.9834C38.7239 11.0045 40.2575 9.4442 41.5938 9.10235C42.2394 8.93719 42.7112 8.99187 43.3638 9.30753C43.9774 9.60434 44.5158 10.1038 44.699 10.5462C44.7545 10.6804 44.7481 10.6969 44.5444 10.9471C44.135 11.4498 43.9311 11.9878 43.9311 12.5652C43.9311 13.4244 44.3399 14.1896 44.9543 14.4803C45.2389 14.615 45.7571 14.6977 46.0817 14.6603C46.367 14.6274 46.9122 14.4728 46.9481 14.4146C46.9626 14.3911 46.9247 14.2535 46.8638 14.1087C46.3426 12.8701 46.4846 11.2724 47.218 10.1257C47.3072 9.98629 47.3801 9.85564 47.3801 9.83536C47.3801 9.81512 47.279 9.73298 47.1555 9.65292C46.8919 9.48208 46.3135 8.74684 46.3858 8.67452C46.3965 8.66388 46.5276 8.69661 46.6771 8.74733C46.9981 8.8562 47.5032 8.87444 47.7659 8.78668C47.8657 8.75329 48.1516 8.59462 48.4012 8.43402C49.196 7.92261 49.9344 7.61116 50.5874 7.51184C51.3219 7.40012 51.9068 7.67441 52.2308 8.28249C52.3447 8.49623 52.4157 8.57463 52.5437 8.62811C52.9144 8.78303 53.0504 9.03981 53.0519 9.58736C53.0524 9.7917 53.0328 10.0117 53.0083 10.0762L52.9637 10.1935L52.7805 10.0608C52.278 9.69667 51.5753 9.7963 51.1138 10.2971C50.9163 10.5114 50.677 10.9323 50.7253 10.9806C50.7408 10.9961 50.9084 11.0091 51.0977 11.0094C51.7767 11.0102 52.277 11.2246 52.7849 11.7315C53.3336 12.2792 53.6867 12.9631 53.9579 14.0037C54.1 14.5489 54.1296 14.5732 54.433 14.3953C55.0257 14.0479 55.3692 13.2872 55.3063 12.4614C55.2644 11.911 55.0559 11.409 54.6807 10.9553C54.5841 10.8385 54.5051 10.7243 54.5051 10.7015C54.5051 10.617 55.4904 9.70524 55.7531 9.54659C57.2155 8.66352 59.0455 9.01636 60.3999 10.4426C61.5058 11.6071 62.4358 13.345 62.8804 15.078C63.1308 16.0542 63.2287 16.8374 63.2354 17.9174C63.239 18.5107 63.2239 18.8742 63.1943 18.9039C63.1248 18.9736 62.6296 18.7249 62.3802 18.4949C62.2661 18.3898 62.1579 18.3187 62.1397 18.3369C62.1215 18.3551 62.1094 18.7207 62.1128 19.1492C62.1199 20.0495 62.2075 20.6875 62.4908 21.903C62.9042 23.677 63.2192 24.6915 63.6331 25.5825C63.7371 25.8064 63.8094 26.0024 63.7938 26.018C63.7527 26.0592 63.118 25.8253 62.6965 25.6137C61.7302 25.1283 60.6971 24.3939 59.4563 23.3102C58.6176 22.5776 57.6483 21.211 56.9047 19.7125C56.7715 19.444 56.6416 19.2312 56.6162 19.2396C56.5378 19.2657 56.5375 20.3709 56.6157 20.9366C56.6549 21.2201 56.6747 21.4719 56.6597 21.4961C56.6085 21.5791 55.942 21.3761 55.4822 21.1376C55.1444 20.9623 54.6595 20.5415 54.5025 20.2875C54.4499 20.2023 54.3907 20.1327 54.3709 20.1327C54.3512 20.1327 54.3372 20.7098 54.3399 21.415C54.3489 23.7474 54.0428 25.2096 53.167 27.016C52.8464 27.6774 52.7678 27.9819 52.789 28.4804L52.8033 28.8163L53.1209 28.9026C53.7251 29.0667 54.3083 29.4156 54.5529 29.7593C54.6058 29.8336 54.6629 29.9907 54.6797 30.1084L54.7103 30.3223L55.5494 30.4635C61.5739 31.4771 66.989 34.0276 71.322 37.8925C72.0802 38.5688 73.5202 40.0335 73.5202 40.1285C73.5202 40.1774 73.4686 40.1961 73.3338 40.1961C72.934 40.1961 72.3158 39.9729 70.5023 39.1734C66.5464 37.4297 64.4596 36.6596 61.5945 35.8862C54.3307 33.9254 46.5004 33.887 38.9164 35.7751C35.898 36.5265 33.5544 37.3488 29.5904 39.0471C27.4114 39.9806 26.8134 40.1961 26.4024 40.1961C26.2445 40.1961 26.1867 40.1786 26.1867 40.1306ZM50.6666 29.7671C50.7938 29.4522 50.9927 29.1793 51.2075 29.025C51.4347 28.8617 51.5053 28.7185 51.5073 28.4169C51.51 27.9992 51.3975 27.6918 51.0369 27.1326C50.6526 26.5364 50.384 25.912 50.175 25.1285C50.1188 24.9176 50.052 24.7382 50.0266 24.7297C50.0011 24.7213 49.9035 24.9346 49.8097 25.2038C49.5393 25.9793 49.2516 26.4867 48.7351 27.0991C48.4845 27.3963 48.2311 27.7028 48.1721 27.7803C48.0317 27.9644 47.9142 28.4141 47.9499 28.6311C47.9741 28.7784 47.996 28.8027 48.1213 28.8209C48.7859 28.9173 48.9614 28.9633 49.2891 29.1274C49.6804 29.3233 49.8777 29.5216 49.9623 29.8039L50.0159 29.9829L50.2977 29.9827L50.5795 29.9826L50.6666 29.7671Z" fill="#14463A"/>
<path d="M52.7125 58.3733C51.8639 58.2156 51.1528 57.9525 50.4459 57.5349C48.3346 56.2876 47.0624 53.8389 47.0624 51.0222C47.0624 47.4593 49.1104 44.5787 52.2083 43.7842C53.6324 43.4189 55.417 43.5142 56.9484 44.0373C57.3594 44.1777 58.2215 44.6081 58.4108 44.7675L58.5441 44.8797V46.5249C58.5441 47.4297 58.53 48.1841 58.5129 48.2013C58.4958 48.2184 58.409 48.1626 58.32 48.0773C57.6355 47.4207 56.5395 46.8858 55.3673 46.6363C54.691 46.4923 53.6848 46.4915 53.1663 46.6347C51.1113 47.2016 49.8989 49.2432 50.1962 51.6363C50.4372 53.5768 51.569 54.9671 53.2117 55.3407C53.8821 55.4932 54.989 55.4184 55.6107 55.1787L55.7407 55.1287L55.7186 54.1876C55.7001 53.4008 55.6803 53.1908 55.5978 52.9061C55.3803 52.1556 55.085 51.525 54.6141 50.8051C54.4543 50.5609 54.3236 50.3411 54.3236 50.3167C54.3236 50.2884 55.0806 50.2768 56.4225 50.2843L58.5214 50.296V57.101L57.9995 57.3646C57.0833 57.8273 56.1684 58.156 55.2993 58.3348C54.7824 58.4412 53.2041 58.4646 52.7125 58.3733ZM67.0759 58.3963C64.7274 58.1055 62.6894 56.407 61.7414 53.9506C61.4143 53.103 61.2665 52.3145 61.2345 51.2466C61.1895 49.742 61.4324 48.5136 62.0147 47.2999C62.6785 45.9166 63.9599 44.613 65.2207 44.0383C65.6611 43.8375 66.3248 43.6269 66.7582 43.5504C67.2513 43.4634 68.3703 43.4737 68.8541 43.5696C71.361 44.0669 73.3684 46.0574 74.0357 48.7077C74.3515 49.9622 74.3883 51.5426 74.1308 52.7925C73.6156 55.2929 71.9505 57.2947 69.7187 58.097C68.9796 58.3626 67.8433 58.4913 67.0759 58.3963ZM68.368 55.2432C69.7109 54.9587 70.7416 53.7511 71.0989 52.0436C71.1985 51.5679 71.2099 50.4534 71.1204 49.9555C70.8144 48.2543 69.7926 46.9985 68.4385 46.6596C68.0007 46.55 67.2013 46.5906 66.7926 46.7431C65.9104 47.0725 65.1655 47.8183 64.7548 48.7836C64.1817 50.1307 64.2011 51.9191 64.8027 53.2033C65.5225 54.7396 66.9338 55.5471 68.368 55.2432ZM30.2766 58.2814C29.5422 58.1187 28.5759 57.7839 28.0664 57.5157C27.8647 57.4095 27.3169 57.0721 26.849 56.7659C25.7395 56.0398 25.2951 55.8105 24.4705 55.5386C23.5548 55.2366 22.8101 55.0857 22.0763 55.0533L21.4829 55.0272L21.2257 55.5582C21.0842 55.8503 20.8798 56.2258 20.7714 56.3928C20.1719 57.3161 19.0551 57.9883 17.7066 58.2376C17.3201 58.309 16.9288 58.3303 16.9288 58.2798C16.9288 58.2059 23.429 44.0305 23.4768 44.0001C23.5764 43.9368 24.4004 43.9573 24.4561 44.0245C24.5217 44.1035 30.7321 58.1729 30.7409 58.2623C30.7499 58.3535 30.6248 58.3586 30.2766 58.2814ZM25.6875 53.1275C25.6875 53.0143 23.9871 49.2287 23.9428 49.2433C23.886 49.2619 22.6469 52.0761 22.6469 52.1865C22.6469 52.2409 22.7019 52.2713 22.8398 52.2933C23.4646 52.393 24.6215 52.7426 25.3018 53.0374C25.6593 53.1924 25.6875 53.1989 25.6875 53.1275ZM5.8242 58.2056C5.804 58.1744 5.77727 55.6568 5.76479 52.611C5.74582 47.9813 5.73169 47.0548 5.67864 46.9613C5.64373 46.8999 5.46361 46.6762 5.27837 46.4643C4.85649 45.9816 4.5008 45.4496 4.27089 44.9573C4.0639 44.5141 3.92311 44.0174 3.98652 43.9539C4.05013 43.8903 10.1849 43.9375 10.6434 44.0051C12.9402 44.3439 14.573 45.2179 15.6542 46.6872C15.9769 47.1258 16.4161 47.9894 16.5877 48.5227C16.9739 49.7231 17.0707 51.2681 16.8426 52.5892C16.5746 54.1412 15.7937 55.5534 14.6674 56.5227C13.4349 57.5832 12.2014 58.0697 10.3711 58.217C9.52307 58.2852 5.86982 58.276 5.8242 58.2056ZM10.5299 55.0989C11.0789 55.0101 11.6278 54.8234 12.0675 54.5759C12.5588 54.2993 13.1684 53.679 13.42 53.1997C14.0466 52.0059 14.0641 50.2987 13.4619 49.1026C13.1157 48.415 12.5893 47.8885 11.8914 47.5315C11.1334 47.1438 10.4845 47.0039 9.38442 46.991L8.64655 46.9823V55.1529L8.94154 55.1801C9.34335 55.2171 10.0104 55.1833 10.5299 55.0989ZM32.5711 58.2327C32.5541 58.2156 32.5402 55.0106 32.5402 51.1103C32.5402 44.6857 32.547 44.0162 32.612 43.9913C32.7465 43.9396 32.9736 43.9635 33.086 44.0413C33.1901 44.1132 34.5122 45.319 39.3587 49.762C40.4008 50.7173 41.2709 51.4988 41.2923 51.4988C41.3722 51.4988 41.389 50.798 41.3894 47.447L41.3898 44.0079L42.8988 44.0198L44.4077 44.0318V58.2395L44.2111 58.2536C44.0856 58.2627 43.974 58.2412 43.9024 58.1943C43.8407 58.1539 41.9627 56.4368 39.729 54.3786C37.4952 52.3203 35.6481 50.6363 35.6242 50.6363C35.5976 50.6363 35.5783 51.1698 35.5745 52.0094C35.571 52.7647 35.5557 54.4754 35.5404 55.8111L35.5127 58.2395L34.0573 58.2515C33.2569 58.2579 32.588 58.25 32.5711 58.2327ZM79.8591 58.2327C79.8421 58.2156 79.8283 55.6837 79.8283 52.6061C79.8283 49.4678 79.8109 46.9996 79.7886 46.9859C79.7669 46.9724 78.8733 46.9602 77.8029 46.9587C76.7325 46.9571 75.8311 46.9401 75.7997 46.9207C75.7553 46.8933 75.7452 46.5667 75.7546 45.4587L75.7666 44.0319H86.9305L86.9426 45.4731C86.949 46.2658 86.949 46.9189 86.9426 46.9245C86.9361 46.9301 86.0218 46.9453 84.9111 46.9585L82.8916 46.9824L82.8689 52.611L82.8463 58.2396L81.3682 58.2516C80.5552 58.258 79.8761 58.2499 79.8591 58.2327ZM89.4797 58.2321C89.463 58.2154 89.4493 55.0084 89.4493 51.1054V44.0091H98.6618V44.1367C98.6618 44.3195 98.5016 44.9058 98.3598 45.2421C98.186 45.6539 97.7911 46.2375 97.5553 46.4307C97.3073 46.634 96.9773 46.8033 96.7085 46.8653C96.5868 46.8934 95.7083 46.9124 94.5036 46.913C92.8626 46.9138 92.4916 46.9254 92.4493 46.9764C92.4128 47.0205 92.4012 47.3966 92.4097 48.2588L92.4218 49.4788L94.8044 49.5025C96.1148 49.5156 97.1923 49.5309 97.1989 49.5365C97.2053 49.5422 97.2053 50.1852 97.1989 50.9654L97.1869 52.3839L94.8539 52.3956C93.223 52.4039 92.5025 52.4227 92.46 52.458C92.3706 52.5322 92.3707 55.1409 92.46 55.215C92.5029 55.2507 93.3235 55.2691 95.2396 55.2774L97.9583 55.2891V58.2395L93.7342 58.2512C91.411 58.2576 89.4965 58.2487 89.4797 58.2321ZM54.3546 30.4775C53.9327 30.2548 53.0089 30.111 51.4932 30.032C51.0223 30.0075 50.626 29.9763 50.6125 29.9629C50.578 29.9284 50.7323 29.588 50.8876 29.3561C50.9597 29.2486 51.1036 29.0996 51.2075 29.0249C51.4347 28.8617 51.5053 28.7184 51.5073 28.4168C51.51 27.9991 51.3975 27.6918 51.0369 27.1326C50.6526 26.5364 50.384 25.9119 50.175 25.1284C50.1188 24.9176 50.052 24.7382 50.0266 24.7297C50.0011 24.7212 49.9035 24.9346 49.8097 25.2038C49.5393 25.9792 49.2516 26.4866 48.7351 27.0991C48.4845 27.3962 48.2311 27.7028 48.1721 27.7802C48.0317 27.9643 47.9142 28.4141 47.9499 28.6311C47.9741 28.7783 47.996 28.8026 48.1213 28.8208C48.7869 28.9174 48.9613 28.9632 49.2913 29.1284C49.6794 29.3227 49.8441 29.4886 49.9649 29.807C50.0481 30.0261 50.0153 30.2849 49.8987 30.3296C49.8632 30.3433 49.7262 30.302 49.5942 30.238C49.1034 30 48.3294 29.9774 46.5529 30.1492C46.1105 30.192 45.7348 30.2134 45.7182 30.1967C45.6645 30.143 45.839 29.7632 46.0476 29.4799C46.1642 29.3214 46.346 29.1449 46.4758 29.0642C46.6136 28.9786 46.7122 28.8808 46.7292 28.813C46.7835 28.5967 46.7018 28.0913 46.5147 27.4863C46.3486 26.949 46.3224 26.8049 46.3026 26.3174C46.2902 26.0116 46.2635 25.7614 46.2434 25.7614C46.2233 25.7614 46.1542 25.8763 46.0899 26.0168C45.7745 26.7058 44.9257 27.5592 44.4446 27.6709C44.205 27.7265 43.0663 27.7232 42.5338 27.6652C41.2822 27.5293 40.0831 27.1591 39.3368 26.6782C39.1934 26.5858 39.0758 26.4772 39.0756 26.4368C39.0753 26.3835 39.2022 26.3234 39.5404 26.2166C42.2565 25.3593 44.4437 23.8355 45.667 21.9483C46.3392 20.9113 46.8252 19.577 46.9522 18.4198C46.9767 18.1964 46.9677 18.1133 46.9093 18.0241C46.7704 17.8122 46.6468 17.9583 46.4469 18.571C46.3114 18.9861 46.0747 19.4639 45.7975 19.8817C45.536 20.2759 44.8354 20.9912 44.3849 21.3241C43.8363 21.7295 43.0698 22.1459 43.0003 22.0764C42.9899 22.066 43.0212 21.8644 43.0699 21.6284C43.1644 21.1703 43.1879 20.4719 43.1126 20.3595C43.0606 20.282 43.0893 20.2533 42.6277 20.8437C42.2331 21.3484 41.0273 22.5181 40.316 23.0864C38.794 24.3022 37.1714 25.3057 36.0118 25.7483C35.4975 25.9446 35.4446 25.9581 35.4446 25.8934C35.4446 25.8628 35.5652 25.601 35.7126 25.3116C36.3345 24.0901 37.0336 22.2738 37.3039 21.1767C37.5495 20.1802 37.8336 18.317 37.74 18.317C37.7224 18.317 37.6073 18.4038 37.4844 18.5099C37.3615 18.616 37.1535 18.7584 37.0222 18.8263C36.6585 19.0145 36.6556 19.0058 36.6852 17.7949C36.731 15.9219 37.0536 14.5027 37.7791 12.9834C38.7239 11.0045 40.2575 9.4442 41.5938 9.10235C42.2394 8.93719 42.7112 8.99187 43.3638 9.30753C43.9774 9.60434 44.5158 10.1038 44.699 10.5462C44.7545 10.6804 44.7481 10.6969 44.5444 10.9471C44.135 11.4498 43.9311 11.9878 43.9311 12.5652C43.9311 13.4244 44.3399 14.1896 44.9543 14.4803C45.2389 14.615 45.7571 14.6977 46.0817 14.6603C46.367 14.6274 46.9122 14.4728 46.9481 14.4146C46.9626 14.3911 46.9247 14.2535 46.8638 14.1087C46.3426 12.8701 46.4846 11.2724 47.218 10.1257C47.3072 9.98629 47.3801 9.85564 47.3801 9.83536C47.3801 9.81512 47.279 9.73298 47.1555 9.65292C46.8919 9.48208 46.3135 8.74684 46.3858 8.67452C46.3965 8.66388 46.5276 8.69661 46.6771 8.74733C46.9981 8.8562 47.5032 8.87444 47.7659 8.78668C47.8657 8.75329 48.1516 8.59462 48.4012 8.43402C49.196 7.92261 49.9344 7.61116 50.5874 7.51184C51.3219 7.40012 51.9068 7.67441 52.2308 8.28249C52.3447 8.49623 52.4157 8.57463 52.5437 8.62811C52.9144 8.78303 53.0504 9.03981 53.0519 9.58736C53.0524 9.7917 53.0328 10.0117 53.0083 10.0762L52.9637 10.1935L52.7805 10.0608C52.278 9.69667 51.5753 9.7963 51.1138 10.2971C50.9163 10.5114 50.677 10.9323 50.7253 10.9806C50.7408 10.9961 50.9084 11.0091 51.0977 11.0094C51.7767 11.0102 52.277 11.2246 52.7849 11.7315C53.3336 12.2792 53.6867 12.9631 53.9579 14.0037C54.1 14.5489 54.1296 14.5732 54.433 14.3953C55.0257 14.0479 55.3692 13.2872 55.3063 12.4614C55.2644 11.911 55.0559 11.409 54.6807 10.9553C54.5841 10.8385 54.5051 10.7243 54.5051 10.7015C54.5051 10.617 55.4904 9.70524 55.7531 9.54659C57.2155 8.66352 59.0455 9.01636 60.3999 10.4426C61.5058 11.6071 62.4358 13.345 62.8804 15.078C63.1308 16.0542 63.2287 16.8374 63.2354 17.9174C63.239 18.5107 63.2239 18.8742 63.1943 18.9039C63.1248 18.9736 62.6296 18.7249 62.3802 18.4949C62.2661 18.3898 62.1579 18.3187 62.1397 18.3369C62.1215 18.3551 62.1094 18.7207 62.1128 19.1492C62.1199 20.0495 62.2075 20.6875 62.4908 21.903C62.9042 23.677 63.2192 24.6915 63.6331 25.5825C63.7371 25.8064 63.8094 26.0024 63.7938 26.018C63.7527 26.0592 63.118 25.8253 62.6965 25.6137C61.7302 25.1283 60.6971 24.3939 59.4563 23.3102C58.6176 22.5776 57.6483 21.211 56.9047 19.7125C56.7715 19.444 56.6416 19.2312 56.6162 19.2396C56.5378 19.2657 56.5375 20.3709 56.6157 20.9366C56.6549 21.2201 56.6747 21.4719 56.6597 21.4961C56.6085 21.5791 55.942 21.3761 55.4822 21.1376C55.1444 20.9623 54.6595 20.5415 54.5025 20.2875C54.4499 20.2023 54.3907 20.1327 54.3709 20.1327C54.3512 20.1327 54.3372 20.7098 54.3399 21.415C54.3489 23.7474 54.0428 25.2096 53.167 27.016C52.8464 27.6774 52.7678 27.9819 52.789 28.4804L52.8033 28.8163L53.1209 28.9026C53.7845 29.0829 54.4438 29.5073 54.6124 29.8629C54.7035 30.0548 54.7204 30.4094 54.643 30.5028C54.5708 30.5897 54.5665 30.5894 54.3546 30.4775Z" fill="#14463A"/>
<path d="M53.2341 58.4138C51.0854 58.2017 49.2723 57.0421 48.1484 55.1613C47.6912 54.396 47.3137 53.2838 47.1739 52.2894C47.0825 51.6402 47.0837 50.4435 47.1764 49.7815C47.57 46.968 49.2952 44.7658 51.7504 43.9426C52.4233 43.7169 52.8872 43.6411 53.7564 43.6144C55.4952 43.561 57.1336 43.9564 58.2829 44.7069L58.4985 44.8476V48.1944L58.2375 47.9698C56.8345 46.7621 54.5765 46.1885 53.0333 46.6477C51.4241 47.1265 50.2914 48.6387 50.153 50.4928C50.1114 51.0503 50.1693 51.8156 50.2902 52.3068C50.4983 53.1523 50.849 53.7928 51.4162 54.3631C51.8661 54.8156 52.2613 55.0625 52.8779 55.2762C53.2891 55.4188 53.3254 55.4234 54.051 55.4244C54.6927 55.4252 54.8602 55.4101 55.2221 55.3177C55.4543 55.2583 55.6738 55.1803 55.7099 55.1442C55.8019 55.0522 55.7996 53.8751 55.7063 53.332C55.5656 52.5129 55.2123 51.6717 54.645 50.8051C54.4029 50.4353 54.3406 50.3093 54.3903 50.2903C54.4264 50.2764 55.3707 50.2822 56.4886 50.3033L58.5211 50.3415V57.0595L58.0219 57.3191C56.4024 58.1611 54.6749 58.5561 53.2341 58.4138ZM66.9229 58.3518C64.87 58.0286 63.0856 56.6649 62.0841 54.6538C60.6339 51.7416 61.0752 47.9939 63.1449 45.6454C64.0635 44.603 65.2517 43.9021 66.5904 43.613C66.8729 43.5519 67.1637 43.5332 67.8017 43.5345C68.5602 43.5361 68.6888 43.5482 69.1333 43.6594C71.7491 44.3142 73.6299 46.4647 74.1636 49.411C74.2938 50.1301 74.3049 51.6124 74.1854 52.3388C74.0299 53.284 73.8203 53.9534 73.4483 54.6923C72.5083 56.5597 70.898 57.8476 68.9545 58.2863C68.58 58.3708 67.3051 58.4119 66.9229 58.3518ZM68.4598 55.2371C69.4738 55.011 70.4048 54.1263 70.865 52.9517C71.1275 52.2817 71.1804 51.9519 71.1816 50.977C71.1829 49.9514 71.1328 49.6384 70.8548 48.936C70.6118 48.3216 70.3632 47.934 69.9346 47.501C69.613 47.1761 69.4769 47.0756 69.1177 46.8983C68.2076 46.4489 67.3265 46.438 66.463 46.8656C65.4426 47.3709 64.7153 48.4056 64.4185 49.7742C64.3186 50.2347 64.283 51.2008 64.348 51.6877C64.5742 53.3845 65.4916 54.69 66.7885 55.1609C67.307 55.3491 67.8471 55.3737 68.4598 55.2371ZM16.9759 58.2512C16.9769 58.2199 18.4344 55.0079 20.2145 51.1132L23.4511 44.032L23.9271 44.0192C24.2725 44.0099 24.4159 44.0224 24.4499 44.0646C24.4993 44.1258 30.7246 58.2281 30.7246 58.2786C30.7246 58.3397 30.4816 58.3027 29.8984 58.1528C28.6845 57.8406 28.1797 57.6075 26.8908 56.7639C25.5273 55.8716 24.8684 55.5689 23.6268 55.2645C22.7445 55.0481 21.6408 54.9269 21.4833 55.029C21.455 55.0473 21.2997 55.3302 21.1381 55.6575C20.7903 56.3622 20.6274 56.6099 20.2891 56.9488C19.6427 57.5962 18.6631 58.0567 17.5412 58.2406C17.0425 58.3223 16.9733 58.3236 16.9759 58.2512ZM24.8962 51.2191C24.4307 50.1619 24.0309 49.2664 24.0079 49.2291C23.9708 49.1691 23.9589 49.1691 23.9035 49.2296C23.8329 49.3066 22.6001 52.1281 22.6008 52.2111C22.6013 52.2704 22.6704 52.2968 22.9416 52.3413C23.5266 52.4372 24.6563 52.785 25.3469 53.0816C25.5216 53.1566 25.6821 53.2008 25.7036 53.1797C25.7253 53.1585 25.3654 52.2845 24.8962 51.2191ZM5.83169 58.1604C5.82027 58.1292 5.8056 55.632 5.79908 52.6112C5.79009 48.4463 5.774 47.0891 5.73253 46.9963C5.70245 46.929 5.54536 46.7295 5.38343 46.553C5.02569 46.1631 4.65092 45.6377 4.40813 45.1857C4.21993 44.8354 3.99463 44.221 3.99463 44.0581V43.9639H6.97878C9.32733 43.9639 10.0855 43.9783 10.5383 44.0313C13.4765 44.375 15.4846 45.784 16.4304 48.1655C16.9788 49.5464 17.0914 51.6059 16.7019 53.1318C16.2614 54.8576 15.2416 56.2381 13.6881 57.2117C12.8915 57.7109 11.9635 58.0158 10.8441 58.1461C10.0404 58.2396 5.86503 58.2515 5.83169 58.1604ZM10.6885 55.1095C11.7518 54.8696 12.5627 54.4061 13.0961 53.7333C13.3644 53.3949 13.682 52.75 13.8053 52.2934C13.9375 51.8041 13.9512 50.5124 13.8294 50.03C13.4318 48.456 12.375 47.4516 10.7339 47.0879C10.2709 46.9852 8.7883 46.899 8.65763 46.967C8.5829 47.006 8.57821 47.2474 8.57821 51.0604C8.57821 54.2402 8.59043 55.125 8.63494 55.1713C8.71461 55.2542 10.2523 55.2079 10.6885 55.1095ZM32.5776 58.161C32.5677 58.1295 32.5673 54.9324 32.5767 51.0565L32.5937 44.0093H32.8185C33.0405 44.0093 33.0497 44.015 33.5518 44.4765C33.8314 44.7335 35.3979 46.1681 37.0328 47.6647C38.6676 49.1612 40.2893 50.6464 40.6364 50.9651C40.9835 51.2837 41.2949 51.5444 41.3282 51.5444C41.3783 51.5444 41.3909 50.8874 41.4005 47.7882L41.4121 44.032H44.3619L44.3734 51.1245L44.3849 58.2171H43.9325L39.7919 54.4037C37.5146 52.3063 35.6303 50.5973 35.6046 50.6059C35.5733 50.6164 35.5504 51.8701 35.5352 54.4079L35.5125 58.1944L34.054 58.2064C32.9101 58.2158 32.5916 58.2059 32.5776 58.161ZM79.8601 58.0248C79.847 57.9184 79.8329 55.3903 79.8286 52.4069C79.8245 49.4235 79.8064 46.9674 79.7886 46.949C79.7709 46.9305 78.8586 46.9101 77.7613 46.9036L75.7663 46.8917L75.7543 45.502C75.7445 44.3689 75.7538 44.1027 75.8046 44.0606C75.8505 44.0225 77.3086 44.012 81.3758 44.0205L86.8849 44.032L86.8969 45.4727L86.9089 46.9135L84.9001 46.9253L82.8913 46.9371L82.8687 52.5658L82.8459 58.1944L81.3649 58.2064L79.8839 58.2183L79.8601 58.0248ZM89.4792 58.1868C89.4414 58.149 89.4388 44.1796 89.4768 44.0811C89.5016 44.0163 89.9479 44.0093 94.0618 44.0093C97.725 44.0093 98.6237 44.0207 98.6416 44.0674C98.6908 44.1956 98.431 45.0442 98.2037 45.4975C97.7949 46.313 97.2604 46.75 96.5289 46.8666C96.3594 46.8936 95.4178 46.9138 94.3158 46.914L92.3977 46.9146L92.4097 48.2196L92.4217 49.5246L94.7936 49.5364L97.1654 49.5481L97.1534 50.9663L97.1414 52.3844L94.7815 52.407L92.4217 52.4297L92.4097 53.8482L92.3977 55.2667H95.1348C97.2032 55.2667 97.8853 55.28 97.9265 55.3212C97.9664 55.3611 97.981 55.736 97.981 56.7247C97.981 57.4666 97.9686 58.1059 97.9534 58.1454C97.9286 58.2102 97.5131 58.2173 93.7177 58.2173C91.4033 58.2173 89.4959 58.2034 89.4792 58.1868ZM54.3543 30.4778C53.9584 30.2688 52.9965 30.1087 51.8046 30.0532C50.8413 30.0084 50.6473 29.9843 50.6473 29.9099C50.6473 29.703 51.098 29.0658 51.2867 29.0059C51.4368 28.9582 51.5234 28.722 51.5187 28.3724C51.5136 27.9833 51.3972 27.6295 51.1571 27.2732C50.7308 26.6405 50.4539 26.0278 50.2175 25.1942C50.1297 24.8848 50.0532 24.6949 50.0164 24.6949C49.9812 24.6949 49.8769 24.9219 49.7615 25.2495C49.4758 26.0603 49.2638 26.422 48.6286 27.1824C48.2487 27.6372 48.0445 27.9217 47.996 28.0641C47.9096 28.3178 47.901 28.7373 47.9812 28.7882C48.0124 28.808 48.2393 28.8583 48.4856 28.9C49.0088 28.9886 49.5196 29.2173 49.7302 29.4572C49.9804 29.7422 50.0805 30.26 49.8989 30.3297C49.8632 30.3434 49.726 30.3023 49.594 30.2382C49.1032 30.0002 48.3292 29.9777 46.5527 30.1495C46.1102 30.1923 45.7357 30.2148 45.7204 30.1995C45.6685 30.1475 45.9722 29.5852 46.1729 29.3621C46.2828 29.2397 46.4471 29.0996 46.5379 29.0507C46.6294 29.0014 46.7148 28.9151 46.7293 28.8571C46.7911 28.611 46.7111 28.0021 46.5492 27.4865C46.3528 26.8615 46.2788 26.432 46.2986 26.034C46.307 25.8672 46.2936 25.7291 46.268 25.7162C46.243 25.7038 46.1511 25.8365 46.0637 26.0113C45.9763 26.186 45.8408 26.4213 45.7625 26.534C45.5983 26.7705 45.0364 27.3135 44.7609 27.5019C44.1686 27.9068 41.7418 27.6862 40.2216 27.0893C39.7312 26.8968 39.0602 26.5095 39.0855 26.4336C39.0937 26.4088 39.4164 26.2821 39.8025 26.152C43.7339 24.8275 46.2281 22.3223 46.8792 19.0441C47.0337 18.2662 47.0055 17.9088 46.7895 17.9088C46.6751 17.9088 46.579 18.0784 46.4228 18.5565C45.9896 19.8828 44.9799 21.0289 43.5326 21.8373C43.2761 21.9805 43.0547 22.0862 43.0407 22.0721C43.0266 22.058 43.0483 21.8866 43.089 21.6912C43.2284 21.0216 43.2265 20.3294 43.0852 20.2823C43.0585 20.2734 42.9348 20.4047 42.8104 20.574C41.9093 21.8012 39.9605 23.4815 38.0864 24.6471C37.2984 25.1372 36.0076 25.7676 35.5685 25.8768C35.4456 25.9073 35.4507 25.8926 35.819 25.1426C36.3688 24.0231 36.9422 22.5826 37.2145 21.6361C37.4925 20.6702 37.8702 18.4106 37.7704 18.3107C37.7423 18.2827 37.6389 18.3424 37.4818 18.4776C37.1797 18.7374 36.8134 18.9331 36.7493 18.869C36.6656 18.7853 36.7375 16.6913 36.8455 16.0704C37.1911 14.082 37.9276 12.3801 39.0218 11.0415C39.6237 10.3051 40.4894 9.57771 41.0908 9.30305C41.6338 9.05501 42.3117 8.98834 42.8578 9.12924C43.4684 9.28682 44.1793 9.78224 44.5139 10.2834C44.7323 10.6106 44.7464 10.7249 44.5866 10.8751C44.4019 11.0487 44.164 11.4356 44.0408 11.7628C43.6353 12.8404 44.1226 14.195 45.043 14.5487C45.5271 14.7347 46.293 14.7206 46.8035 14.5163C47.0085 14.4342 47.0091 14.4046 46.8166 13.9001C46.4111 12.8377 46.5081 11.5469 47.0766 10.4417C47.1664 10.267 47.2807 10.0623 47.3304 9.98694C47.4349 9.82861 47.4229 9.80261 47.1697 9.63858C47.0667 9.57182 46.9112 9.429 46.8242 9.32124C46.616 9.06337 46.4084 8.74277 46.4335 8.71773C46.4444 8.70676 46.582 8.7378 46.7391 8.78675C47.0812 8.89324 47.5222 8.9015 47.7915 8.80642C47.8995 8.76836 48.1726 8.61766 48.3986 8.4716C48.9356 8.12443 49.5328 7.82779 50.012 7.67024C50.5442 7.49524 51.1893 7.48412 51.5426 7.64387C51.8185 7.76862 52.0911 8.04614 52.2543 8.36833C52.3433 8.54405 52.4051 8.60725 52.5272 8.64755C52.7614 8.72487 52.9447 8.96042 53.008 9.26535C53.0625 9.52809 53.034 10.0793 52.9636 10.1229C52.9435 10.1353 52.8748 10.1043 52.811 10.0541C52.6182 9.90242 52.3891 9.82895 52.1091 9.82895C51.7635 9.82895 51.4762 9.92997 51.2352 10.1363C50.999 10.3386 50.6841 10.8131 50.7022 10.9396C50.7143 11.0239 50.7512 11.0326 51.1287 11.0405C51.9315 11.0574 52.4837 11.3469 53.0364 12.0407C53.4243 12.5276 53.8747 13.5646 53.9813 14.2165C53.9983 14.3203 54.0395 14.4426 54.073 14.4884C54.1317 14.5687 54.1413 14.568 54.3403 14.4713C54.9658 14.1674 55.3245 13.5145 55.3323 12.666C55.338 12.0414 55.1621 11.5401 54.7481 11.0013C54.6392 10.8596 54.5502 10.7237 54.5502 10.6992C54.5502 10.6279 55.3238 9.86276 55.5602 9.70024C56.2019 9.25911 56.8325 9.08174 57.6362 9.11636C58.2486 9.14273 58.6131 9.24239 59.1675 9.53495C59.8429 9.89142 60.4379 10.4365 61.0492 11.2588C62.2253 12.841 62.9597 14.7948 63.171 16.9036C63.2297 17.4887 63.233 18.8475 63.1758 18.8828C63.095 18.9328 62.6296 18.6854 62.3996 18.4702C62.2108 18.2936 62.1599 18.2659 62.1232 18.3196C62.0953 18.3603 62.0862 18.731 62.0992 19.2932C62.1245 20.3836 62.1881 20.7769 62.6278 22.5615C62.9763 23.9762 63.2506 24.8283 63.5812 25.5233C63.7911 25.9646 63.7974 25.9886 63.7032 25.9882C63.5267 25.9875 62.588 25.5511 61.999 25.1958C61.0348 24.6142 59.6045 23.4833 58.9912 22.8177C58.2939 22.0608 57.6261 21.0669 57.0274 19.8948C56.8255 19.4998 56.64 19.1721 56.615 19.1668C56.5901 19.1611 56.5507 19.3202 56.5274 19.5197C56.4882 19.8569 56.5096 20.2466 56.6231 21.2627L56.6505 21.5073L56.4739 21.4742C55.7222 21.3335 54.9534 20.8731 54.5678 20.3325C54.4537 20.1727 54.3437 20.0523 54.3231 20.0649C54.3026 20.0776 54.2971 20.5628 54.3108 21.1432C54.3669 23.5158 54.0367 25.1655 53.1317 27.0326C52.9303 27.4482 52.8187 27.7415 52.7848 27.9442C52.7279 28.2845 52.7202 28.7109 52.7696 28.7845C52.7879 28.8118 52.9552 28.8801 53.1414 28.9362C53.853 29.1507 54.4285 29.5365 54.6014 29.915C54.6962 30.1227 54.7122 30.4384 54.6318 30.5187C54.563 30.5875 54.562 30.5874 54.3543 30.4778Z" fill="#14463A"/>
<path d="M52.6896 58.3096C51.3086 58.0562 50.2139 57.4817 49.2382 56.4982C48.4368 55.6904 47.9175 54.8471 47.5601 53.773C46.9787 52.0256 46.9707 50.0751 47.5378 48.3435C48.3068 45.9954 50.1543 44.2819 52.4571 43.7811C54.2629 43.3883 56.5924 43.7362 58.079 44.6207L58.4394 44.8351L58.4688 45.4774C58.5055 46.2806 58.5076 48.0942 58.4718 48.0942C58.4572 48.0942 58.2843 47.9655 58.0878 47.8082C57.0431 46.9722 55.567 46.4608 54.1967 46.4603C52.5744 46.4596 51.2305 47.3344 50.5279 48.8484C50.0689 49.8375 49.9757 51.2348 50.2886 52.4362C50.3928 52.8364 50.6989 53.5145 50.9242 53.8444C51.2963 54.389 51.8721 54.8748 52.47 55.1484C53.0379 55.4084 53.3512 55.4686 54.1191 55.4653C54.7061 55.4629 54.862 55.4458 55.251 55.342C55.4991 55.2758 55.7238 55.2 55.7502 55.1735C55.8298 55.094 55.7995 53.5836 55.7099 53.163C55.5466 52.3959 55.1694 51.5392 54.6452 50.7445L54.3791 50.3411L56.3821 50.3292C57.4837 50.3228 58.4107 50.3276 58.4421 50.3393C58.4873 50.3567 58.4967 51.0551 58.4875 53.7102L58.4758 57.0592L58.1582 57.2281C57.3021 57.6832 56.2156 58.0815 55.3218 58.2677C54.6657 58.4044 53.3228 58.4257 52.6896 58.3096ZM66.726 58.2832C65.0503 57.9767 63.481 56.877 62.4785 55.3066C61.2159 53.3289 60.9137 50.5879 61.6993 48.2396C62.3992 46.1476 63.9076 44.5326 65.7737 43.8775C67.0155 43.4416 68.4196 43.4258 69.6385 43.8339C71.4765 44.4495 73.0282 46.011 73.7531 47.9745C74.3805 49.6739 74.4118 51.9789 73.8308 53.7001C73.0159 56.1141 71.0587 57.8856 68.7643 58.2858C68.2922 58.3681 67.1826 58.3666 66.726 58.2832ZM68.4205 55.29C69.6627 54.9969 70.6842 53.889 71.0698 52.4164C71.3529 51.3353 71.291 49.9833 70.9125 48.9793C70.2853 47.3159 68.8772 46.3479 67.382 46.5523C65.8604 46.7604 64.7133 48.0462 64.3463 49.9553C64.2621 50.3933 64.2733 51.5769 64.3661 52.0341C64.5605 52.9929 64.9366 53.7496 65.5284 54.3727C65.9574 54.8244 66.6152 55.1959 67.1891 55.3107C67.4888 55.3706 68.1238 55.3599 68.4205 55.29ZM17.0297 58.1896C17.047 58.1287 22.8506 45.4053 23.4313 44.155C23.4776 44.0554 23.4981 44.0519 23.9579 44.0642L24.4364 44.077L24.6505 44.5536C25.0909 45.5342 30.6793 58.2222 30.6793 58.2417C30.6793 58.3374 29.5215 58.0537 28.8186 57.7857C28.2363 57.5637 27.7949 57.3233 26.9345 56.7593C25.6459 55.9146 25.3673 55.769 24.4846 55.4794C23.8461 55.2698 23.3683 55.1508 22.8279 55.0667C22.2758 54.9807 21.5494 54.9341 21.4846 54.9806C21.457 55.0003 21.2873 55.3072 21.1076 55.6624C20.7251 56.4181 20.4777 56.7642 20.0772 57.1041C19.3733 57.7013 18.2993 58.1434 17.3043 58.2454C17.0245 58.2741 17.0067 58.2705 17.0297 58.1896ZM25.7525 53.1827C25.7776 53.142 24.0823 49.2453 24.0036 49.1629C23.9774 49.1354 23.9379 49.1438 23.8964 49.1855C23.806 49.2765 22.5472 52.1822 22.5712 52.2446C22.5818 52.2722 22.8532 52.3515 23.1745 52.4209C23.7864 52.5531 24.8985 52.9076 25.3242 53.1062C25.5864 53.2285 25.7105 53.2507 25.7525 53.1827ZM5.89009 58.1886C5.8772 58.1666 5.8526 55.6872 5.83541 52.6788C5.81643 49.3569 5.78667 47.1418 5.75962 47.0377C5.7304 46.9253 5.59879 46.7385 5.37697 46.4945C4.82181 45.8839 4.35174 45.1188 4.13341 44.4706C4.08206 44.3181 4.04004 44.1394 4.04004 44.0736V43.9538L7.11467 43.9769C10.2422 44.0005 10.4609 44.0117 11.3919 44.1964C13.9341 44.7009 15.7611 46.2327 16.5145 48.4915C17.1417 50.3717 17.0185 52.7162 16.2027 54.4258C15.3844 56.1407 13.6849 57.5034 11.8066 57.9506C10.9836 58.1466 10.5533 58.1766 8.18756 58.2032C6.88985 58.2178 5.90346 58.2115 5.89009 58.1886ZM10.1117 55.2189C11.2865 55.0929 12.153 54.7192 12.8448 54.0402C13.6087 53.2907 13.9553 52.3651 13.9496 51.0901C13.9454 50.1776 13.8016 49.5866 13.4131 48.886C13.1931 48.4892 12.5277 47.8194 12.118 47.5823C11.3303 47.1264 10.5839 46.9494 9.41781 46.9419L8.60093 46.9371V55.1944L8.71439 55.2259C8.89075 55.275 9.62479 55.2709 10.1117 55.2189ZM32.6187 58.1895C32.6003 58.1712 32.5853 54.9822 32.5853 51.1029V44.0497L32.8284 44.0634L33.0715 44.077L37.1603 47.8219C39.4091 49.8815 41.2857 51.5667 41.3306 51.5667C41.4083 51.5667 41.4127 51.3907 41.4237 47.8105L41.4354 44.0543H44.3371L44.35 46.653C44.3571 48.0823 44.3681 51.2586 44.3744 53.7115L44.3859 58.1713H43.9281L39.8111 54.3768C37.5467 52.2898 35.6676 50.5714 35.6353 50.5582C35.603 50.545 35.5622 50.5486 35.5446 50.5663C35.5269 50.5839 35.5023 52.3074 35.4898 54.3962L35.4671 58.194L34.0595 58.2085C33.2854 58.2165 32.637 58.2079 32.6187 58.1895ZM79.9043 58.187C79.8873 58.17 79.8734 55.641 79.8734 52.5669C79.8734 48.2802 79.8607 46.9649 79.8189 46.9231C79.7783 46.8824 79.2621 46.8687 77.7761 46.8687H75.7877L75.7997 45.4729L75.8117 44.0771H86.8849L86.897 45.4729L86.909 46.8687H84.9171C83.3019 46.8687 82.9156 46.8802 82.8744 46.9299C82.8377 46.974 82.8205 48.5447 82.8121 52.5926L82.8006 58.1941L81.3679 58.206C80.5799 58.2124 79.9213 58.2044 79.9043 58.187ZM89.4944 51.1128V44.0543H98.6278L98.5974 44.2472C98.5449 44.5802 98.3864 45.0619 98.2053 45.4388C97.8917 46.0916 97.4724 46.5228 96.9371 46.7431C96.6929 46.8436 96.6408 46.8463 94.5318 46.8686L92.3762 46.8913L92.3641 48.185C92.3531 49.3609 92.3593 49.4838 92.4295 49.5354C92.489 49.579 93.0444 49.5922 94.8361 49.5922H97.1653L97.1533 50.9653L97.1413 52.3384L94.8082 52.3502C93.1627 52.3585 92.4571 52.377 92.4137 52.413C92.3639 52.4543 92.3545 52.7322 92.3641 53.8765L92.3761 55.2889L95.1444 55.3116L97.9128 55.3342L97.9248 56.7527L97.9368 58.1712H89.4944L89.4944 51.1128ZM54.346 30.4276C53.956 30.2218 53.2379 30.0948 52.0786 30.0266C50.7962 29.9512 50.6928 29.939 50.6928 29.8638C50.6928 29.6644 51.0909 29.1294 51.3323 29.0046C51.5072 28.9141 51.5723 28.683 51.543 28.2561C51.5158 27.8595 51.4252 27.6225 51.1298 27.1755C50.7363 26.5801 50.4349 25.8843 50.2139 25.061C50.0484 24.4448 50.0078 24.4466 49.7895 25.0803C49.4486 26.0693 49.2804 26.3631 48.5764 27.1994C48.0426 27.8334 47.9231 28.0532 47.8904 28.4619C47.8629 28.8038 47.9291 28.893 48.2113 28.8939C48.6717 28.8956 49.3353 29.1372 49.6431 29.4153C49.8853 29.6343 50.0345 30.0776 49.9244 30.2516C49.8901 30.3057 49.8403 30.2968 49.6175 30.1968C49.0784 29.9549 48.3176 29.9314 46.554 30.1023C46.133 30.1431 45.7777 30.1656 45.7644 30.1523C45.7511 30.139 45.8044 30.0009 45.8829 29.8454C46.0469 29.5204 46.3521 29.1748 46.5867 29.0485C46.6758 29.0005 46.7603 28.9142 46.7749 28.8563C46.8375 28.6067 46.7538 28.0433 46.5644 27.4408C46.3957 26.9037 46.3683 26.7564 46.3426 26.2486C46.3261 25.92 46.2938 25.6663 46.268 25.6624C46.2431 25.6584 46.121 25.8479 45.9967 26.0829C45.8162 26.4242 45.6838 26.5979 45.3387 26.9462C45.101 27.186 44.8044 27.4414 44.6796 27.5136L44.4527 27.645L43.5451 27.6434C42.3534 27.641 41.396 27.4867 40.4268 27.1404C39.8945 26.9503 39.0522 26.491 39.121 26.4284C39.1331 26.4174 39.4289 26.312 39.7784 26.1942C42.9183 25.1357 45.1374 23.3609 46.2471 21.0206C46.6651 20.1389 46.9377 19.1999 46.999 18.4305C47.0243 18.1127 47.017 18.0539 46.9401 17.9595C46.8748 17.8792 46.8268 17.8597 46.7526 17.8833C46.632 17.9216 46.5479 18.0765 46.3979 18.5365C46.1293 19.3599 45.7409 19.9706 45.049 20.657C44.7473 20.9563 44.3708 21.2736 44.1151 21.4438C43.6626 21.7451 43.0686 22.064 43.0686 22.0057C43.0686 21.9867 43.1001 21.8077 43.1385 21.608C43.1769 21.4083 43.2083 21.0494 43.2083 20.8105C43.2083 20.1041 43.1506 20.0689 42.7864 20.5526C41.3725 22.4306 38.2393 24.8038 36.0061 25.6882C35.7783 25.7784 35.5715 25.8522 35.5464 25.8522C35.5214 25.8522 35.6374 25.5815 35.8043 25.2507C36.3235 24.2216 37.0208 22.4649 37.2592 21.5853C37.5267 20.599 37.8885 18.471 37.8194 18.2909C37.7809 18.1907 37.7374 18.2099 37.4669 18.4467C37.1865 18.6922 36.8289 18.8999 36.7767 18.8477C36.7153 18.7863 36.7035 17.7591 36.7568 17.119C36.8887 15.5355 37.2179 14.2864 37.8498 12.9728C38.3622 11.9077 38.9164 11.1256 39.6941 10.3701C41.0138 9.08805 42.1791 8.76416 43.3519 9.35338C43.9172 9.63735 44.3433 10.0208 44.583 10.4614L44.7058 10.6871L44.5459 10.8641C44.0078 11.4598 43.7713 12.245 43.9034 12.9969C44.1083 14.1629 44.9118 14.8111 46.0346 14.7162C46.4229 14.6833 46.9661 14.5255 47.0006 14.4355C47.014 14.4006 46.9637 14.2128 46.8888 14.0182C46.4202 12.8011 46.5436 11.3959 47.2218 10.2269C47.3337 10.034 47.4253 9.84456 47.4253 9.80593C47.4253 9.7673 47.3765 9.71712 47.3168 9.69443C47.2572 9.67178 47.1334 9.58733 47.0417 9.5068C46.8631 9.34997 46.4474 8.79442 46.4824 8.75941C46.494 8.7478 46.5897 8.76876 46.6951 8.80593C46.8004 8.8431 47.0146 8.88664 47.1709 8.90267C47.5535 8.94185 47.8627 8.84703 48.3146 8.55189C48.838 8.20999 49.4333 7.90454 49.8986 7.73918C50.4207 7.55361 51.0523 7.50539 51.4089 7.62385C51.7129 7.72486 52.0047 7.98912 52.1843 8.32629C52.3019 8.547 52.3678 8.61732 52.5214 8.68606C52.7521 8.78931 52.8596 8.90386 52.9415 9.13346C53.0051 9.31181 53.021 9.81746 52.9687 9.99961L52.9392 10.1024L52.7743 9.99026C52.2854 9.65749 51.5454 9.75428 51.1082 10.2082C50.9341 10.389 50.6474 10.8643 50.6474 10.9722C50.6474 11.0635 50.6496 11.064 51.0365 11.055C51.3997 11.0465 51.8688 11.1589 52.1936 11.332C52.9699 11.7459 53.6448 12.8373 53.9362 14.1501C54.0383 14.6103 54.0757 14.6379 54.3891 14.4845C54.9826 14.1941 55.3671 13.4701 55.3671 12.643C55.3671 12.0503 55.1854 11.5315 54.7966 11.0142C54.6861 10.8671 54.5956 10.7326 54.5956 10.7152C54.5956 10.6423 54.9602 10.2461 55.2764 9.97572C56.2651 9.12989 57.4057 8.90922 58.6264 9.32754C59.882 9.75777 61.0703 11.0184 62.0132 12.9202C62.714 14.3339 63.0783 15.7387 63.1713 17.3863C63.2124 18.1136 63.1861 18.8617 63.1195 18.8617C63.0073 18.8617 62.5803 18.6011 62.3903 18.4166C62.0758 18.1113 62.0603 18.146 62.0639 19.1478C62.068 20.2916 62.1649 20.8772 62.6962 22.9698C62.9985 24.1603 63.2045 24.78 63.5146 25.4323C63.7916 26.0148 63.7886 26.0205 63.3055 25.825C61.6873 25.1704 59.4087 23.4181 58.3709 22.0302C57.9011 21.4018 57.46 20.6758 57.0321 19.8265C56.8277 19.4209 56.6363 19.089 56.6068 19.0889C56.5773 19.0888 56.5395 19.1317 56.5228 19.1842C56.4687 19.3548 56.4939 20.5523 56.5609 20.9952C56.5968 21.2324 56.6175 21.436 56.6069 21.4477C56.5663 21.4927 55.9632 21.3033 55.6167 21.1367C55.1506 20.9125 54.8274 20.6507 54.5679 20.2869C54.3685 20.0075 54.3079 19.9568 54.262 20.0311C54.2502 20.0501 54.2563 20.433 54.2755 20.882C54.3779 23.283 54.0049 25.2107 53.0765 27.0777C52.8127 27.6082 52.7537 27.8059 52.7106 28.3033C52.6679 28.7948 52.7018 28.8533 53.0862 28.9522C53.743 29.1213 54.4231 29.5645 54.5781 29.9247C54.6685 30.1345 54.6543 30.5323 54.5567 30.5256C54.5407 30.5248 54.4459 30.4803 54.346 30.4276Z" fill="#14463A"/>
<path d="M52.7804 58.2891C50.5697 57.8975 48.8467 56.5594 47.8808 54.4841C46.9657 52.518 46.9206 49.8234 47.7695 47.84C48.727 45.603 50.4809 44.1773 52.8031 43.7483C53.3629 43.6449 54.6683 43.647 55.3444 43.7524C56.3647 43.9114 57.1939 44.1787 57.9312 44.5864C58.51 44.9065 58.4531 44.6984 58.4531 46.4953V48.0596L58.2771 47.9005C57.367 47.0781 55.8344 46.4946 54.4141 46.4298C52.4761 46.3414 50.9129 47.4348 50.3149 49.2973C50.1174 49.9121 50.0817 50.1663 50.0818 50.9541C50.0818 51.7334 50.1392 52.1319 50.3381 52.74C50.6154 53.5879 51.2065 54.415 51.853 54.8599C52.6047 55.3772 53.7154 55.6315 54.6355 55.4969C55.0756 55.4326 55.6828 55.2792 55.7638 55.212C55.8361 55.1519 55.8429 53.7047 55.7728 53.2691C55.6645 52.595 55.1969 51.4862 54.72 50.7724C54.6116 50.6102 54.5075 50.452 54.4885 50.4208C54.4612 50.3757 54.866 50.364 56.4536 50.364H58.4531V57.0372L57.8414 57.3321C56.8324 57.8184 56.2006 58.0445 55.3597 58.22C54.7645 58.3442 53.3114 58.3832 52.7804 58.2891ZM67.2118 58.3071C64.4088 58.0469 62.0224 55.6567 61.4462 52.5323C61.3241 51.8707 61.2818 50.7322 61.3536 50.0441C61.5472 48.189 62.2609 46.6403 63.4875 45.4131C64.4397 44.4605 65.4613 43.9042 66.7031 43.6618C67.2916 43.547 68.3211 43.5589 68.9333 43.6876C71.1672 44.1574 73.0089 45.8753 73.7912 48.2188C74.2478 49.5865 74.3342 51.3376 74.0197 52.8457C73.8249 53.7799 73.3977 54.7749 72.8621 55.5419C72.4868 56.0793 71.5984 56.9547 71.077 57.301C69.9022 58.0813 68.5557 58.4318 67.2118 58.3071ZM68.4055 55.3289C70.0623 54.9556 71.1842 53.3462 71.2811 51.2038C71.3516 49.6456 70.8628 48.276 69.9163 47.3799C69.2007 46.7024 68.348 46.4019 67.4361 46.506C65.8505 46.6868 64.6403 48.0359 64.3009 50.0009C64.209 50.5323 64.2319 51.5682 64.3477 52.1215C64.5105 52.8998 64.8168 53.5824 65.2461 54.1233C66.0421 55.1263 67.2535 55.5885 68.4055 55.3289ZM17.0784 58.1601C17.0912 58.1289 17.5038 57.225 17.9953 56.1515C18.4868 55.078 19.4204 53.0353 20.07 51.6123C21.487 48.508 22.331 46.6602 22.7241 45.8021C22.8842 45.4526 23.129 44.9157 23.268 44.609L23.5208 44.0513L23.9559 44.0642L24.3911 44.0771L25.3048 46.1425C25.8074 47.2784 27.1229 50.2607 28.2283 52.7698C29.3336 55.2788 30.3249 57.5257 30.4312 57.7629L30.6243 58.1941L30.517 58.2084C30.3797 58.2266 29.4978 57.9916 28.924 57.7838C28.3293 57.5685 27.9057 57.3371 26.8942 56.6751C26.4263 56.3689 25.8528 56.0179 25.6197 55.8952C25.0991 55.6211 24.0253 55.2617 23.2689 55.1085C22.6766 54.9886 21.6447 54.8838 21.5019 54.9292C21.4513 54.9452 21.3008 55.1907 21.1191 55.5536C20.7749 56.241 20.631 56.464 20.3117 56.804C19.6787 57.478 18.7698 57.9418 17.6774 58.1482C17.2269 58.2333 17.0467 58.2369 17.0784 58.1601ZM25.8234 53.202C25.8234 53.1704 25.6175 52.6772 25.3658 52.1061C25.1141 51.5349 24.7132 50.6233 24.475 50.0803C24.0154 49.0326 23.9495 48.9472 23.81 49.2178C23.7746 49.2864 23.466 49.9861 23.1243 50.7725C22.677 51.8022 22.5149 52.2213 22.5454 52.2699C22.5687 52.3069 22.6572 52.3519 22.742 52.3697C23.8507 52.6022 24.4672 52.7911 25.4333 53.1944C25.7021 53.3066 25.8234 53.3093 25.8234 53.202ZM5.8947 57.5474C5.89139 57.2041 5.87607 54.6967 5.86067 51.9755C5.83745 47.8737 5.82187 47.0083 5.76954 46.9142C5.73483 46.8518 5.57932 46.6577 5.42395 46.483C4.83606 45.8217 4.3922 45.1043 4.1787 44.4704C4.12741 44.3182 4.08545 44.1501 4.08545 44.0971V44.0006L7.16008 44.0223C9.13937 44.0363 10.3641 44.0628 10.5978 44.0967C13.3189 44.4916 15.1306 45.6606 16.1254 47.6632C17.2416 49.9102 17.0962 53.0377 15.78 55.0915C15.0075 56.2968 13.6598 57.333 12.278 57.7839C11.3552 58.0851 10.3631 58.1699 7.75005 58.1708L5.90073 58.1715L5.8947 57.5474ZM10.6748 55.1738C11.7187 54.961 12.3929 54.6016 13.015 53.9263C13.751 53.1274 14.114 51.8901 13.982 50.6298C13.8222 49.1025 13.1146 48.0243 11.8685 47.4087C11.1061 47.0321 10.1239 46.8466 9.05478 46.8772L8.55558 46.8915V55.2437L8.7598 55.2742C9.11348 55.3269 10.2041 55.2701 10.6748 55.1738ZM32.6307 51.1366V44.1016L32.7475 44.0723C32.8118 44.0562 32.9102 44.0638 32.9662 44.0894C33.0222 44.1149 33.4444 44.4806 33.9045 44.9021C34.3646 45.3236 35.4762 46.3416 36.3748 47.1642C37.2733 47.9869 38.7396 49.3307 39.6331 50.1504C40.8845 51.2984 41.2807 51.6375 41.3576 51.6265L41.4576 51.6123L41.4692 47.8561L41.4808 44.0999H44.2798L44.3094 44.7467C44.3257 45.1025 44.339 48.2562 44.3391 51.7549V58.1163L44.2288 58.1439C44.0516 58.1884 43.9158 58.1083 43.4907 57.7085C43.2704 57.5013 42.3348 56.6375 41.4115 55.789C40.4883 54.9405 38.8372 53.4187 37.7426 52.4073C36.6479 51.3958 35.7038 50.5492 35.6445 50.5258C35.5853 50.5024 35.5211 50.499 35.5019 50.5185C35.4827 50.5377 35.4615 52.2676 35.4548 54.3626L35.4429 58.1718H32.6307V51.1366ZM79.9188 52.5445C79.9188 47.0276 79.9171 46.9165 79.831 46.8704C79.7744 46.8401 79.0493 46.8234 77.7888 46.8234H75.8344V44.0999H86.8623V46.8234H84.9079C83.6474 46.8234 82.9223 46.8401 82.8657 46.8704C82.7796 46.9165 82.7779 47.0276 82.7779 52.5445V58.1715H79.9188V52.5445ZM89.5703 58.1415C89.5535 58.1247 89.5398 54.9585 89.5398 51.1054V44.0999H94.0553C98.367 44.0999 98.5708 44.1039 98.5708 44.1813C98.5708 44.3569 98.3264 45.0956 98.1471 45.4617C97.8924 45.9819 97.3614 46.5322 96.9598 46.6922C96.6881 46.8005 96.6831 46.8008 94.5474 46.8138C92.8307 46.8243 92.3973 46.8388 92.357 46.8874C92.3222 46.9293 92.3105 47.3503 92.3188 48.2588L92.3309 49.5697L94.7248 49.5815L97.1187 49.5932V52.316H94.7679C93 52.316 92.4036 52.3294 92.3626 52.3705C92.3226 52.4105 92.3081 52.7992 92.3081 53.8366C92.3081 54.8741 92.3226 55.2628 92.3626 55.3028C92.4038 55.344 93.0859 55.3573 95.1543 55.3573H97.8915L97.8794 56.7531L97.8674 58.1489L93.7341 58.1605C91.4608 58.167 89.5871 58.158 89.5703 58.1415ZM54.2777 30.3233C53.7926 30.1187 52.7621 29.9687 51.4529 29.9121C50.9364 29.8897 50.7382 29.8657 50.7382 29.8256C50.7382 29.702 51.1048 29.2131 51.2963 29.0814C51.5328 28.9186 51.6004 28.7653 51.6004 28.3922C51.6004 28.0234 51.4557 27.5998 51.1913 27.1947C50.7564 26.5283 50.4263 25.7683 50.2365 24.9966C50.0762 24.3448 49.9835 24.3717 49.7202 25.1466C49.4316 25.9962 49.2082 26.3936 48.673 27.0097C48.0071 27.7762 47.8936 27.9752 47.8488 28.4551C47.8126 28.8429 47.8797 28.9143 48.3144 28.9509C48.9495 29.0043 49.6113 29.3239 49.792 29.6645C49.8896 29.8485 49.9068 30.2099 49.8179 30.2099C49.7861 30.2099 49.7165 30.1795 49.6635 30.1423C49.3553 29.9264 48.0818 29.8759 46.6197 30.0216C46.0702 30.0764 45.8369 30.0848 45.8369 30.0499C45.8369 29.9818 46.139 29.4844 46.2573 29.3579C46.3102 29.3012 46.4519 29.1918 46.5721 29.1146C46.7043 29.0298 46.802 28.9295 46.8192 28.8609C46.8801 28.6178 46.7942 28.0488 46.6047 27.4409C46.4285 26.8761 46.4119 26.7791 46.3923 26.2015C46.3719 25.6007 46.3672 25.5755 46.2777 25.5887C46.2114 25.5986 46.1278 25.7153 45.9887 25.9919C45.7629 26.4411 45.3839 26.913 44.9958 27.2281C44.5596 27.5822 44.5267 27.5931 43.8323 27.6139C42.3813 27.6576 40.7845 27.339 39.7557 26.8006C39.4035 26.6163 39.1735 26.4605 39.2118 26.4323C39.2239 26.4233 39.4687 26.3385 39.7557 26.2439C41.9465 25.5212 43.7513 24.4065 44.9829 23.0152C46.0273 21.8354 46.7441 20.3315 46.9952 18.7937C47.1108 18.0852 47.0641 17.8405 46.8131 17.8405C46.6394 17.8405 46.5196 18.0169 46.3626 18.5038C45.9914 19.655 45.1953 20.6625 44.0443 21.438C43.6985 21.671 43.1616 21.9658 43.1337 21.9379C43.122 21.9262 43.1434 21.7692 43.1813 21.5891C43.2588 21.2205 43.273 20.4713 43.2059 20.2946C43.1295 20.0936 43.0158 20.1552 42.7292 20.5527C42.3922 21.0199 41.3467 22.0936 40.6861 22.6507C39.1447 23.9508 37.4007 25.0723 36.0894 25.6069C35.8243 25.7149 35.6033 25.799 35.5984 25.7937C35.5935 25.7881 35.7259 25.5084 35.8927 25.1713C36.6592 23.6224 37.3035 21.8037 37.5731 20.4278C37.7268 19.6435 37.8985 18.3376 37.8612 18.2377C37.8224 18.1338 37.7065 18.1788 37.474 18.388C37.3473 18.5018 37.1535 18.6479 37.0431 18.7126C36.8766 18.8102 36.835 18.8194 36.7983 18.7665C36.7713 18.7275 36.7635 18.3428 36.7783 17.7724C36.8104 16.5273 36.9551 15.5818 37.2749 14.5268C38.0865 11.8494 40.0455 9.5172 41.7834 9.15946C42.1026 9.09374 42.2076 9.09076 42.531 9.13793C43.3071 9.25107 44.1646 9.80956 44.5212 10.4342L44.6503 10.6602L44.4762 10.8686C44.2539 11.1348 44.0039 11.5978 43.9119 11.9137C43.8206 12.2272 43.8185 12.904 43.9077 13.2466C44.0909 13.9499 44.4983 14.4314 45.0925 14.6467C45.4893 14.7904 46.2396 14.785 46.6729 14.6354C46.8457 14.5757 47.0063 14.4952 47.03 14.4566C47.0603 14.407 47.0255 14.2596 46.9119 13.9563C46.6894 13.3621 46.6379 13.0177 46.6657 12.3079C46.6838 11.8439 46.7157 11.6224 46.8102 11.304C46.9398 10.8677 47.1628 10.3686 47.3537 10.0878C47.4996 9.87303 47.5067 9.71015 47.372 9.66739C47.2381 9.6249 46.8551 9.26089 46.6865 9.0159C46.5497 8.81705 46.5495 8.81602 46.6581 8.84627C46.7181 8.86304 46.9102 8.89957 47.085 8.92747C47.5487 9.00157 47.8456 8.91336 48.4596 8.51889C49.0904 8.11372 49.4159 7.95226 49.9874 7.76097C50.7986 7.48944 51.4447 7.5533 51.8475 7.9448C51.958 8.05223 52.1113 8.26473 52.1881 8.41704C52.2783 8.59567 52.3558 8.69403 52.4067 8.69414C52.5589 8.69445 52.7854 8.87679 52.8728 9.06939C52.9567 9.25426 53.0022 9.90958 52.9357 9.97607C52.9212 9.9905 52.8046 9.94792 52.6765 9.88149C52.479 9.77904 52.3881 9.76106 52.0787 9.76315C51.7765 9.76557 51.6743 9.78612 51.4828 9.8851C51.092 10.0872 50.6021 10.7121 50.6021 11.0085C50.6021 11.0922 50.6317 11.0998 50.9589 11.0998C51.8666 11.0998 52.4689 11.4068 53.0328 12.1571C53.4035 12.6504 53.655 13.2256 53.8702 14.0724C53.9399 14.3467 54.0272 14.5902 54.0642 14.6136C54.1625 14.6756 54.5982 14.4491 54.8338 14.2134C55.2269 13.8202 55.4389 13.1702 55.3977 12.4842C55.362 11.891 55.172 11.4032 54.7934 10.9332C54.7096 10.8292 54.6411 10.7266 54.6411 10.7054C54.6411 10.6337 55.4785 9.84112 55.7302 9.67459C57.1241 8.75243 59.0187 9.10628 60.3587 10.539C61.7587 12.036 62.7648 14.2716 63.0624 16.5468C63.1367 17.115 63.1778 18.7355 63.1194 18.7942C63.0656 18.8481 62.5424 18.5378 62.3754 18.3529C62.1527 18.1063 62.0708 18.1352 62.0239 18.4766C61.9749 18.8329 62.0182 19.8698 62.1077 20.4843C62.1911 21.0571 62.4125 22.0455 62.7205 23.2195C62.9908 24.2498 63.1653 24.7756 63.4475 25.4097C63.5669 25.678 63.6432 25.8976 63.617 25.8976C63.5248 25.8976 62.692 25.5133 62.3201 25.2992C61.2613 24.6895 60.0268 23.7445 59.1838 22.8982C58.3876 22.0991 57.5252 20.8045 56.9102 19.4855C56.7467 19.1348 56.6866 19.047 56.6089 19.0454C56.5339 19.0438 56.5053 19.0783 56.483 19.1969C56.4329 19.4639 56.454 20.5017 56.5186 20.9499C56.5528 21.187 56.5731 21.3897 56.5638 21.4002C56.5208 21.4484 56.0317 21.2912 55.654 21.1078C55.1897 20.8824 54.7821 20.5396 54.5521 20.181C54.4739 20.0591 54.3817 19.9485 54.3473 19.9353C54.2105 19.8828 54.1942 20.0133 54.2372 20.8139C54.3639 23.1761 53.9788 25.1754 53.0307 27.0778C52.7509 27.6391 52.6879 27.8756 52.6764 28.4067C52.6664 28.8721 52.6795 28.891 53.0904 29.0008C53.9598 29.233 54.5957 29.736 54.5957 30.1913C54.5957 30.2985 54.5802 30.3956 54.5614 30.4073C54.5425 30.419 54.4148 30.3812 54.2777 30.3233Z" fill="#14463A"/>
</svg>
