<svg width="134" height="37" viewBox="0 0 134 37" fill="none" xmlns="http://www.w3.org/2000/svg">
<path d="M0.34375 29.7188C0.640625 29.3125 0.914062 28.4844 1.16406 27.2344C1.41406 25.9688 1.53906 24.25 1.53906 22.0781C1.53906 21.0938 1.40625 20.3438 1.14062 19.8281C0.875 19.2969 0.492188 18.9453 -0.0078125 18.7734C0.273438 18.6953 0.515625 18.5156 0.71875 18.2344C0.921875 17.9531 1.09375 17.6094 1.23438 17.2031C1.375 16.7969 1.47656 16.3516 1.53906 15.8672C1.60156 15.3672 1.63281 14.8594 1.63281 14.3438C1.63281 13 1.51562 11.8125 1.28125 10.7812C1.0625 9.73437 0.75 8.98437 0.34375 8.53125H0.53125C1.0625 8.53125 1.65625 8.41406 2.3125 8.17969C2.98438 7.94531 3.66406 7.64062 4.35156 7.26562C5.03906 6.875 5.71094 6.44531 6.36719 5.97656C7.02344 5.49219 7.60938 5 8.125 4.5C8.65625 4 9.08594 3.51562 9.41406 3.04688C9.75781 2.5625 9.94531 2.14062 9.97656 1.78125C10.2266 1.92188 10.5391 2.07031 10.9141 2.22656C11.3047 2.36719 11.7812 2.50781 12.3438 2.64844C12.9062 2.77344 13.5703 2.875 14.3359 2.95312C15.1172 3.03125 16.0391 3.07031 17.1016 3.07031C17.6172 3.07031 18.1484 3.03906 18.6953 2.97656C19.2578 2.91406 19.7969 2.82813 20.3125 2.71875C20.8438 2.59375 21.3359 2.45313 21.7891 2.29688C22.2422 2.14062 22.6172 1.96875 22.9141 1.78125C23.1016 2.375 23.3672 2.89844 23.7109 3.35156C24.0703 3.78906 24.4766 4.14844 24.9297 4.42969C25.3047 4.08594 25.5781 3.71875 25.75 3.32812C25.9219 2.92188 26.0469 2.5625 26.125 2.25C26.2656 2.32812 26.5312 2.39844 26.9219 2.46094C27.3125 2.50781 27.7578 2.55469 28.2578 2.60156C28.7734 2.63281 29.3047 2.66406 29.8516 2.69531C30.4141 2.71094 30.9297 2.71875 31.3984 2.71875C32.5859 2.71875 33.7422 2.5625 34.8672 2.25C34.8359 2.375 34.7812 2.61719 34.7031 2.97656C34.6406 3.33594 34.5781 3.75 34.5156 4.21875C34.4531 4.6875 34.3984 5.1875 34.3516 5.71875C34.3047 6.25 34.2812 6.75781 34.2812 7.24219C34.2812 8.24219 34.3047 9.1875 34.3516 10.0781C34.3984 10.9688 34.4453 11.7734 34.4922 12.4922C34.5547 13.2109 34.6172 13.8281 34.6797 14.3438C34.7578 14.8594 34.8203 15.2422 34.8672 15.4922C34.1172 15.3672 33.3906 15.2812 32.6875 15.2344C31.9844 15.1719 31.2969 15.1406 30.625 15.1406C30.1562 15.1406 29.6406 15.1484 29.0781 15.1641C28.5312 15.1797 27.9844 15.2031 27.4375 15.2344C26.8906 15.25 26.3672 15.2812 25.8672 15.3281C25.3672 15.375 24.9297 15.4297 24.5547 15.4922C24.5547 14.4297 24.4531 13.4219 24.25 12.4688C24.0469 11.5156 23.7188 10.6875 23.2656 9.98438C22.8281 9.26562 22.25 8.69531 21.5312 8.27344C20.8281 7.85156 19.9766 7.64062 18.9766 7.64062C18.4297 7.64062 17.8828 7.6875 17.3359 7.78125C16.7891 7.875 16.2656 8.07031 15.7656 8.36719C15.2812 8.64844 14.8203 9.05469 14.3828 9.58594C13.9609 10.1172 13.5938 10.8281 13.2812 11.7188C12.9844 12.5938 12.7422 13.6719 12.5547 14.9531C12.3828 16.2344 12.2969 17.7656 12.2969 19.5469C12.2969 21.8125 12.4922 23.6641 12.8828 25.1016C13.2734 26.5234 13.7969 27.6484 14.4531 28.4766C15.1094 29.2891 15.8672 29.8516 16.7266 30.1641C17.5859 30.4609 18.4922 30.6094 19.4453 30.6094C20.3828 30.6094 21.1484 30.5156 21.7422 30.3281C22.3516 30.1406 22.8281 29.8984 23.1719 29.6016C23.5156 29.3047 23.75 28.9688 23.875 28.5938C24 28.2031 24.0625 27.8047 24.0625 27.3984C24.0625 27.0547 24.0156 26.7656 23.9219 26.5312C23.8438 26.2812 23.6797 26.0781 23.4297 25.9219C23.1953 25.7656 22.8594 25.6484 22.4219 25.5703C21.9844 25.4922 21.4219 25.4531 20.7344 25.4531C20.8594 25.0156 20.9453 24.5625 20.9922 24.0938C21.0547 23.625 21.0859 23.0391 21.0859 22.3359C21.0859 21.7891 21.0469 21.3125 20.9688 20.9062C20.9062 20.4844 20.8281 20.0859 20.7344 19.7109C21.5781 19.9297 22.4922 20.0859 23.4766 20.1797C24.4609 20.2578 25.4219 20.2969 26.3594 20.2969C27.1562 20.2969 28.0078 20.2891 28.9141 20.2734C29.8359 20.2422 30.7266 20.2031 31.5859 20.1562C32.4609 20.0938 33.2656 20.0312 34 19.9688C34.7344 19.8906 35.3125 19.8047 35.7344 19.7109C35.4375 20.4609 35.1875 21.2891 34.9844 22.1953C34.7969 23.0859 34.6406 24.0078 34.5156 24.9609C34.4062 25.9141 34.3203 26.8672 34.2578 27.8203C34.2109 28.7734 34.1875 29.6875 34.1875 30.5625C34.1875 31.8281 34.2266 32.9453 34.3047 33.9141C34.3984 34.8828 34.5078 35.5781 34.6328 36C34.2422 36 33.7578 35.9141 33.1797 35.7422C32.6172 35.5547 32.0234 35.3203 31.3984 35.0391C30.7891 34.7578 30.1875 34.4375 29.5938 34.0781C29.0156 33.7188 28.5156 33.3594 28.0938 33C27.6875 33.0156 27.2344 33.1562 26.7344 33.4219C26.2344 33.6719 25.7656 33.9766 25.3281 34.3359C24.8906 34.6953 24.5234 35.0703 24.2266 35.4609C23.9453 35.8516 23.8047 36.1875 23.8047 36.4688C23.5391 36.3281 23.1562 36.1953 22.6562 36.0703C22.1562 35.9453 21.6094 35.8359 21.0156 35.7422C20.4375 35.6328 19.8594 35.5547 19.2812 35.5078C18.7031 35.4453 18.2109 35.4141 17.8047 35.4141C15.6797 35.4141 13.9453 35.5234 12.6016 35.7422C11.2734 35.9453 10.3516 36.1875 9.83594 36.4688C9.71094 35.9844 9.46875 35.4922 9.10938 34.9922C8.75 34.4766 8.3125 33.9844 7.79688 33.5156C7.28125 33.0312 6.71094 32.5781 6.08594 32.1562C5.46094 31.7188 4.8125 31.3281 4.14062 30.9844C3.48438 30.6406 2.82812 30.3594 2.17188 30.1406C1.51562 29.9219 0.90625 29.7812 0.34375 29.7188ZM36.8589 32.5547C37.062 32.1953 37.2105 31.7812 37.3042 31.3125C37.398 30.8438 37.4448 30.3672 37.4448 29.8828C37.4448 29.3828 37.3901 28.8828 37.2808 28.3828C37.1714 27.8828 37.0308 27.4766 36.8589 27.1641C37.2808 27.0234 37.6558 26.7969 37.9839 26.4844C38.3276 26.1719 38.6167 25.8203 38.8511 25.4297C39.1011 25.0391 39.3042 24.6406 39.4605 24.2344C39.6167 23.8281 39.7183 23.4531 39.7651 23.1094C39.8433 23.1406 39.9292 23.1562 40.023 23.1562C40.1167 23.1562 40.2183 23.1562 40.3276 23.1562C41.4839 23.1562 42.8823 23.0469 44.523 22.8281C46.1636 22.6094 47.937 22.3203 49.8433 21.9609C50.7339 21.7891 51.4683 21.5781 52.0464 21.3281C52.6245 21.0781 53.0855 20.7969 53.4292 20.4844C53.773 20.1562 54.0073 19.8047 54.1323 19.4297C54.273 19.0547 54.3433 18.6562 54.3433 18.2344C54.3433 17.4688 54.148 16.8828 53.7573 16.4766C53.3823 16.0547 52.7261 15.8438 51.7886 15.8438C50.5542 15.8438 49.6401 16.1562 49.0464 16.7812C48.4683 17.3906 48.1792 18.3984 48.1792 19.8047C47.6636 19.6797 47.0386 19.5938 46.3042 19.5469C45.5698 19.4844 44.7573 19.4531 43.8667 19.4531C43.4136 19.4531 42.9526 19.4609 42.4839 19.4766C42.0308 19.4922 41.5855 19.5156 41.148 19.5469C40.7105 19.5625 40.3042 19.5938 39.9292 19.6406C39.5542 19.6875 39.2339 19.7422 38.9683 19.8047C39.062 19.3203 39.1401 18.7734 39.2026 18.1641C39.2808 17.5547 39.3198 16.8438 39.3198 16.0312C39.3198 15.7656 39.312 15.5234 39.2964 15.3047C39.2964 15.0703 39.2808 14.8438 39.2495 14.625C39.2339 14.4062 39.2026 14.1797 39.1558 13.9453C39.1089 13.6953 39.0464 13.4219 38.9683 13.125C39.6245 13.125 40.3433 13.0625 41.1245 12.9375C41.9058 12.7969 42.6636 12.6172 43.398 12.3984C44.148 12.1797 44.8276 11.9219 45.437 11.625C46.0464 11.3281 46.5151 11.0156 46.8433 10.6875C47.1245 10.8281 47.398 10.9531 47.6636 11.0625C47.9292 11.1562 48.2339 11.2422 48.5776 11.3203C48.9214 11.3828 49.3198 11.4297 49.773 11.4609C50.2261 11.4922 50.773 11.5078 51.4136 11.5078C52.8823 11.5078 54.1323 11.4375 55.1636 11.2969C56.2105 11.1406 56.9605 10.9375 57.4136 10.6875C57.6636 11.1562 58.023 11.6016 58.4917 12.0234C58.9605 12.4453 59.4683 12.8125 60.0151 13.125C60.5776 13.4219 61.1401 13.6641 61.7026 13.8516C62.2808 14.0234 62.8042 14.1094 63.273 14.1094H63.4839C63.3433 14.4531 63.2261 14.9297 63.1323 15.5391C63.0386 16.1484 62.9605 16.8359 62.898 17.6016C62.8355 18.3516 62.7886 19.1484 62.7573 19.9922C62.7261 20.8359 62.6948 21.6719 62.6636 22.5C62.648 23.3125 62.6401 24.0781 62.6401 24.7969C62.6401 25.5156 62.6401 26.125 62.6401 26.625C62.6401 27.2656 62.6948 27.7891 62.8042 28.1953C62.9136 28.5859 63.1245 28.8906 63.437 29.1094C63.7651 29.3281 64.2183 29.4766 64.7964 29.5547C65.3901 29.6328 66.1558 29.6719 67.0933 29.6719C67.0308 29.8594 66.9683 30.0938 66.9058 30.375C66.8589 30.6406 66.812 30.9297 66.7651 31.2422C66.7183 31.5547 66.6792 31.8672 66.648 32.1797C66.6323 32.4922 66.6245 32.7812 66.6245 33.0469C66.6245 34.2656 66.7808 35.25 67.0933 36C66.7183 35.8281 66.1089 35.6875 65.2651 35.5781C64.4214 35.4688 63.4995 35.4141 62.4995 35.4141C61.3745 35.4141 60.3745 35.4688 59.4995 35.5781C58.6401 35.6875 57.9605 35.8281 57.4605 36C57.3355 35.1406 57.0933 34.4531 56.7339 33.9375C56.3901 33.4219 56.0386 33.0156 55.6792 32.7188C55.1323 32.8906 54.6323 33.125 54.1792 33.4219C53.7261 33.7031 53.3198 34.0156 52.9605 34.3594C52.6167 34.6875 52.3355 35.0234 52.1167 35.3672C51.898 35.6953 51.7573 35.9844 51.6948 36.2344C51.3355 36.1406 51.0073 36.0469 50.7105 35.9531C50.4292 35.8594 50.1401 35.7734 49.8433 35.6953C49.5464 35.6016 49.2261 35.5312 48.8823 35.4844C48.5386 35.4375 48.1323 35.4141 47.6636 35.4141C47.1792 35.4141 46.6636 35.4375 46.1167 35.4844C45.5855 35.5312 45.0542 35.6016 44.523 35.6953C43.9917 35.7734 43.4917 35.8594 43.023 35.9531C42.5698 36.0469 42.1792 36.1406 41.8511 36.2344C41.5855 35.7969 41.2573 35.3672 40.8667 34.9453C40.4761 34.5078 40.0542 34.1172 39.6011 33.7734C39.1636 33.4141 38.7026 33.125 38.2183 32.9062C37.7495 32.6875 37.2964 32.5703 36.8589 32.5547ZM46.937 28.1953C46.937 28.5703 47.0151 28.9062 47.1714 29.2031C47.3276 29.4844 47.523 29.7266 47.7573 29.9297C48.0073 30.1172 48.2808 30.2656 48.5776 30.375C48.8745 30.4688 49.1636 30.5156 49.4448 30.5156C49.9605 30.5156 50.4839 30.4141 51.0151 30.2109C51.562 30.0078 52.062 29.6875 52.5151 29.25C52.9683 28.7969 53.3511 28.2109 53.6636 27.4922C53.9761 26.7734 54.1636 25.8984 54.2261 24.8672C52.8823 24.8984 51.7417 24.9922 50.8042 25.1484C49.8823 25.2891 49.1323 25.5 48.5542 25.7812C47.9761 26.0469 47.562 26.3828 47.312 26.7891C47.062 27.1953 46.937 27.6641 46.937 28.1953ZM66.9522 36C67.0772 35.5938 67.1631 35.1094 67.21 34.5469C67.2569 33.9844 67.2803 33.4297 67.2803 32.8828C67.2803 32.3828 67.249 31.8828 67.1865 31.3828C67.124 30.8828 67.0459 30.3906 66.9522 29.9062C67.8272 29.9062 68.5459 29.8672 69.1084 29.7891C69.6865 29.7109 70.1475 29.5781 70.4912 29.3906C70.835 29.1875 71.0694 28.9062 71.1944 28.5469C71.335 28.1875 71.4053 27.7266 71.4053 27.1641V20.6484C71.3897 19.9766 71.3037 19.4453 71.1475 19.0547C70.9912 18.6484 70.7725 18.3438 70.4912 18.1406C70.2256 17.9219 69.8897 17.7812 69.4834 17.7188C69.0928 17.6406 68.6475 17.6016 68.1475 17.6016H67.4209C67.5459 17.2891 67.6553 16.8594 67.749 16.3125C67.8428 15.75 67.8897 15.1641 67.8897 14.5547C67.8897 13.9609 67.8428 13.3984 67.749 12.8672C67.6709 12.3203 67.5615 11.8828 67.4209 11.5547C67.874 11.6172 68.4131 11.6641 69.0381 11.6953C69.6787 11.7266 70.3662 11.7422 71.1006 11.7422C71.8506 11.7422 72.624 11.7266 73.4209 11.6953C74.2334 11.6484 75.0225 11.5859 75.7881 11.5078C76.5537 11.4297 77.2725 11.3203 77.9444 11.1797C78.6319 11.0391 79.2256 10.875 79.7256 10.6875C79.6162 11 79.5381 11.3203 79.4912 11.6484C79.46 11.9609 79.4444 12.2891 79.4444 12.6328C79.4444 13.1172 79.4756 13.6016 79.5381 14.0859C79.6162 14.5703 79.6944 15.0391 79.7725 15.4922C80.4444 15.3047 81.1475 15.0391 81.8819 14.6953C82.6319 14.3359 83.3272 13.9375 83.9678 13.5C84.624 13.0625 85.1787 12.6016 85.6319 12.1172C86.085 11.6328 86.3662 11.1562 86.4756 10.6875C86.9287 10.9531 87.5147 11.1562 88.2334 11.2969C88.9678 11.4375 89.8037 11.5078 90.7412 11.5078C91.1162 11.5078 91.5069 11.5 91.9131 11.4844C92.3194 11.4531 92.71 11.4141 93.085 11.3672C93.4756 11.3047 93.8272 11.2188 94.1397 11.1094C94.4678 11 94.7334 10.8594 94.9365 10.6875C94.8115 11 94.71 11.3906 94.6319 11.8594C94.5694 12.3281 94.5147 12.8359 94.4678 13.3828C94.4365 13.9141 94.4131 14.4609 94.3975 15.0234C94.3819 15.5703 94.374 16.0859 94.374 16.5703C94.374 17.0547 94.3897 17.6094 94.4209 18.2344C94.4522 18.8438 94.4912 19.4375 94.5381 20.0156C94.585 20.5781 94.6397 21.0703 94.7022 21.4922C94.7803 21.9141 94.8584 22.1797 94.9365 22.2891C94.4209 22.1641 93.7725 22.0625 92.9912 21.9844C92.2256 21.8906 91.4209 21.8438 90.5772 21.8438C89.7334 21.8438 88.9365 21.8906 88.1865 21.9844C87.4365 22.0625 86.8272 22.1641 86.3584 22.2891C86.3584 20.6172 86.1631 19.4453 85.7725 18.7734C85.3975 18.1016 84.835 17.7656 84.085 17.7656C83.71 17.7656 83.2959 17.875 82.8428 18.0938C82.4053 18.2969 81.9912 18.6016 81.6006 19.0078C81.2256 19.4141 80.8975 19.9141 80.6162 20.5078C80.335 21.0859 80.1709 21.75 80.124 22.5L80.1475 27.1641C80.1475 27.7266 80.3037 28.1875 80.6162 28.5469C80.9444 28.9062 81.3897 29.1875 81.9522 29.3906C82.5147 29.5781 83.1865 29.7109 83.9678 29.7891C84.749 29.8672 85.6006 29.9062 86.5225 29.9062C86.4287 30.2344 86.3506 30.6406 86.2881 31.125C86.2412 31.6094 86.2178 32.125 86.2178 32.6719C86.2178 33.2656 86.2412 33.8672 86.2881 34.4766C86.335 35.0703 86.4131 35.5781 86.5225 36C86.0225 35.9219 85.4053 35.8516 84.6709 35.7891C83.9365 35.7109 83.1319 35.6484 82.2569 35.6016C81.3819 35.5391 80.4522 35.4922 79.4678 35.4609C78.4834 35.4297 77.499 35.4141 76.5147 35.4141C75.7647 35.4141 74.9209 35.4297 73.9834 35.4609C73.0615 35.4766 72.1475 35.5156 71.2412 35.5781C70.335 35.625 69.4912 35.6875 68.71 35.7656C67.9444 35.8281 67.3584 35.9062 66.9522 36ZM96.1079 36C96.2329 35.5938 96.3189 35.1094 96.3658 34.5469C96.4126 33.9844 96.4361 33.4297 96.4361 32.8828C96.4361 32.3828 96.4048 31.8828 96.3423 31.3828C96.2798 30.8828 96.2017 30.3906 96.1079 29.9062C96.9829 29.9062 97.7017 29.8672 98.2642 29.7891C98.8423 29.7109 99.3033 29.5781 99.647 29.3906C99.9908 29.1875 100.225 28.9062 100.35 28.5469C100.491 28.1875 100.561 27.7266 100.561 27.1641V20.6484C100.545 19.9766 100.46 19.4453 100.303 19.0547C100.147 18.6484 99.9283 18.3438 99.647 18.1406C99.3814 17.9219 99.0454 17.7812 98.6392 17.7188C98.2486 17.6406 97.8033 17.6016 97.3033 17.6016H96.5767C96.7017 17.2891 96.8111 16.8594 96.9048 16.3125C96.9986 15.75 97.0454 15.1641 97.0454 14.5547C97.0454 13.9609 96.9986 13.3984 96.9048 12.8672C96.8267 12.3203 96.7173 11.8828 96.5767 11.5547C97.0298 11.6172 97.5689 11.6641 98.1939 11.6953C98.8345 11.7266 99.522 11.7422 100.256 11.7422C101.006 11.7422 101.78 11.7266 102.577 11.6953C103.389 11.6484 104.178 11.5859 104.944 11.5078C105.71 11.4297 106.428 11.3203 107.1 11.1797C107.788 11.0391 108.381 10.875 108.881 10.6875C108.772 11 108.694 11.3203 108.647 11.6484C108.616 11.9609 108.6 12.2891 108.6 12.6328C108.6 13.1172 108.631 13.6016 108.694 14.0859C108.772 14.5703 108.85 15.0391 108.928 15.4922C109.6 15.3047 110.303 15.0391 111.038 14.6953C111.788 14.3359 112.483 13.9375 113.124 13.5C113.78 13.0625 114.335 12.6016 114.788 12.1172C115.241 11.6328 115.522 11.1562 115.631 10.6875C116.085 10.9531 116.67 11.1562 117.389 11.2969C118.124 11.4375 118.96 11.5078 119.897 11.5078C120.272 11.5078 120.663 11.5 121.069 11.4844C121.475 11.4531 121.866 11.4141 122.241 11.3672C122.631 11.3047 122.983 11.2188 123.295 11.1094C123.624 11 123.889 10.8594 124.092 10.6875C123.967 11 123.866 11.3906 123.788 11.8594C123.725 12.3281 123.67 12.8359 123.624 13.3828C123.592 13.9141 123.569 14.4609 123.553 15.0234C123.538 15.5703 123.53 16.0859 123.53 16.5703C123.53 17.0547 123.545 17.6094 123.577 18.2344C123.608 18.8438 123.647 19.4375 123.694 20.0156C123.741 20.5781 123.795 21.0703 123.858 21.4922C123.936 21.9141 124.014 22.1797 124.092 22.2891C123.577 22.1641 122.928 22.0625 122.147 21.9844C121.381 21.8906 120.577 21.8438 119.733 21.8438C118.889 21.8438 118.092 21.8906 117.342 21.9844C116.592 22.0625 115.983 22.1641 115.514 22.2891C115.514 20.6172 115.319 19.4453 114.928 18.7734C114.553 18.1016 113.991 17.7656 113.241 17.7656C112.866 17.7656 112.452 17.875 111.999 18.0938C111.561 18.2969 111.147 18.6016 110.756 19.0078C110.381 19.4141 110.053 19.9141 109.772 20.5078C109.491 21.0859 109.327 21.75 109.28 22.5L109.303 27.1641C109.303 27.7266 109.46 28.1875 109.772 28.5469C110.1 28.9062 110.545 29.1875 111.108 29.3906C111.67 29.5781 112.342 29.7109 113.124 29.7891C113.905 29.8672 114.756 29.9062 115.678 29.9062C115.585 30.2344 115.506 30.6406 115.444 31.125C115.397 31.6094 115.374 32.125 115.374 32.6719C115.374 33.2656 115.397 33.8672 115.444 34.4766C115.491 35.0703 115.569 35.5781 115.678 36C115.178 35.9219 114.561 35.8516 113.827 35.7891C113.092 35.7109 112.288 35.6484 111.413 35.6016C110.538 35.5391 109.608 35.4922 108.624 35.4609C107.639 35.4297 106.655 35.4141 105.67 35.4141C104.92 35.4141 104.077 35.4297 103.139 35.4609C102.217 35.4766 101.303 35.5156 100.397 35.5781C99.4908 35.625 98.647 35.6875 97.8658 35.7656C97.1001 35.8281 96.5142 35.9062 96.1079 36Z" fill="#14463A"/>
<path d="M128.83 9.36C127.518 9.36 126.43 8.944 125.566 8.112C124.734 7.248 124.318 6.16 124.318 4.848C124.318 3.504 124.734 2.416 125.566 1.584C126.43 0.751999 127.518 0.335999 128.83 0.335999C130.142 0.335999 131.214 0.751999 132.046 1.584C132.91 2.416 133.342 3.504 133.342 4.848C133.342 6.128 132.91 7.2 132.046 8.064C131.214 8.928 130.142 9.36 128.83 9.36ZM124.99 36C124.766 36 124.59 35.936 124.462 35.808C124.334 35.68 124.27 35.504 124.27 35.28V11.76C124.27 11.536 124.334 11.36 124.462 11.232C124.59 11.104 124.766 11.04 124.99 11.04H132.574C132.798 11.04 132.974 11.104 133.102 11.232C133.23 11.36 133.294 11.536 133.294 11.76V35.28C133.294 35.504 133.23 35.68 133.102 35.808C132.974 35.936 132.798 36 132.574 36H124.99Z" fill="#F2940A"/>
</svg>
