<svg width="135" height="37" viewBox="0 0 135 37" fill="none" xmlns="http://www.w3.org/2000/svg">
<path d="M101.415 36.5458H104.171C104.896 36.5458 105.331 36.2555 105.766 35.82C106.057 35.5297 106.202 34.9491 106.202 34.3684V3.59463C106.202 3.01399 106.057 2.57851 105.766 2.14303C105.476 1.70756 104.896 1.41724 104.171 1.41724H101.415C100.689 1.41724 100.254 1.70756 99.819 2.14303C99.5288 2.43335 99.3838 3.01399 99.3838 3.59463V34.3684C99.3838 34.9491 99.5288 35.3845 99.819 35.82C100.254 36.2555 100.689 36.5458 101.415 36.5458Z" fill="#14463A"/>
<path d="M133.472 25.223C133.907 24.7875 134.052 24.3521 134.052 23.3359C134.052 20.2876 133.037 17.0941 131.006 14.6264C128.975 12.1587 125.784 10.4167 121.287 10.4167C113.164 10.4167 108.522 16.8038 108.522 23.4811C108.522 30.5939 113.454 36.9809 121.287 36.9809C125.204 36.9809 129.12 35.5293 131.296 32.9165C132.312 31.7552 133.037 30.1584 133.037 29.2875C133.037 28.9972 133.037 28.7068 132.747 28.4165C132.602 28.1262 132.312 27.981 131.731 27.981H127.96C127.235 27.981 126.654 28.2714 126.364 28.852C125.204 30.4488 123.608 31.3197 121.287 31.3197C117.806 31.3197 115.485 28.7068 115.34 25.6585H131.731C132.602 25.6585 133.182 25.5133 133.472 25.223ZM115.485 20.7231C115.775 17.8199 117.951 15.6425 121.287 15.6425C124.624 15.6425 126.799 17.8199 127.09 20.7231H115.485Z" fill="#14463A"/>
<path d="M70.6618 31.6093C69.5014 31.6093 68.3409 31.4641 67.4705 30.8835C66.7452 30.5932 66.3101 30.1577 65.8749 29.4319C65.5848 28.8513 65.4397 28.561 64.8595 28.1255C64.5693 27.9803 64.1342 27.9803 63.5539 27.9803H60.6527C60.0725 27.9803 59.7824 28.1255 59.4923 28.4158C59.3472 28.7061 59.2021 28.9964 59.2021 29.4319C59.2021 30.3029 59.4923 31.6093 60.3626 32.6254C62.1033 35.0931 65.8749 36.9802 70.6618 36.9802C75.3037 36.9802 81.8314 35.0931 81.8314 28.7061C81.8314 27.1094 81.3962 25.6578 80.5259 24.4965C79.3654 23.0449 77.9148 22.0288 75.1587 21.4481L69.7915 20.1417C67.6156 19.5611 66.6002 19.1256 66.6002 17.8191C66.6002 16.5127 67.7606 15.4966 70.5168 15.4966C72.1124 15.4966 73.563 15.7869 74.5784 16.803C75.3037 17.674 75.1587 18.1095 75.884 18.3998C76.3191 18.5449 76.7543 18.5449 77.3346 18.5449H79.9456C80.3808 18.5449 80.6709 18.5449 80.961 18.2546C81.1061 18.1095 81.2512 17.674 81.2512 17.2385C81.2512 16.0772 80.5259 14.4805 79.0753 13.174C77.1895 11.5773 74.2883 10.416 70.6618 10.416C64.2792 10.416 60.0725 13.4644 60.0725 18.3998C60.0725 20.1417 60.6527 21.5933 61.6682 22.6094C62.8286 23.9158 64.5693 24.7868 67.0353 25.3674L72.4025 26.6739C73.8531 27.1094 75.1587 27.5448 75.1587 28.8513C75.0136 30.8835 72.8377 31.6093 70.6618 31.6093Z" fill="#14463A"/>
<path d="M96.0472 16.0775C96.4824 16.0775 96.9176 15.9323 97.2077 15.642C97.4978 15.3517 97.6429 14.9162 97.6429 14.4807V12.884C97.6429 12.3033 97.4978 12.013 97.2077 11.7227C96.9176 11.4324 96.4824 11.2872 96.0472 11.2872H91.8405V3.59377C91.8405 3.01314 91.6955 2.57766 91.4053 2.14218C91.1152 1.7067 90.535 1.41638 89.8097 1.41638H87.1986C86.4733 1.41638 86.0381 1.7067 85.603 2.14218C85.3129 2.4325 85.1678 3.01314 85.1678 3.59377V11.2872H83.8623C83.4271 11.2872 82.9919 11.4324 82.7018 11.7227C82.4117 12.013 82.2666 12.4485 82.2666 12.884V14.4807C82.2666 15.0614 82.4117 15.4968 82.7018 15.642C82.9919 15.9323 83.4271 16.0775 83.8623 16.0775H85.0227V27.8354C85.0227 30.8837 85.8931 32.7708 87.3437 34.2224C88.7943 35.674 90.535 36.545 93.7263 36.545H95.7571C96.1923 36.545 96.6275 36.3998 96.9176 36.1095C97.2077 35.8192 97.3528 35.3837 97.3528 34.9482V32.916C97.3528 32.3353 97.2077 32.045 96.9176 31.7547C96.6275 31.4644 96.3374 31.3192 95.9022 31.3192H95.6121C94.3065 31.3192 93.4362 31.0289 92.8559 30.4483C92.1306 29.7225 91.8405 28.8515 91.8405 27.3999V16.0775H96.0472Z" fill="#14463A"/>
<path d="M131.731 6.78733C132.167 6.78733 132.602 6.64218 132.892 6.35186C133.182 6.06154 133.327 5.62606 133.327 5.19058V3.01319C133.327 2.14223 133.182 1.70676 132.892 1.41644C132.602 1.12612 132.167 0.980957 131.731 0.980957C131.296 0.980957 131.006 0.980955 130.281 1.12611L111.568 3.01319C110.988 3.01319 110.843 3.15836 110.553 3.44867C110.408 3.73899 110.263 4.02931 110.263 4.46479V5.62607C110.263 6.06154 110.408 6.35186 110.553 6.49702C110.698 6.78734 111.133 6.78733 111.423 6.78733H131.731Z" fill="#14463A"/>
<path d="M0.888184 34.0773C0.888184 34.8031 1.03324 35.2385 1.46842 35.674C1.9036 36.1095 2.48384 36.3998 3.35419 36.3998H5.53008C6.40044 36.3998 6.98067 36.1095 7.41585 35.674C7.70597 35.2385 7.99609 34.8031 7.99609 34.0773V12.3033H8.14115C8.14115 12.3033 20.3261 33.7869 20.7613 34.5127C21.4866 35.674 22.6471 36.545 24.2427 36.545H28.0143C28.8846 36.545 29.4649 36.2546 29.9 35.8192C30.1902 35.3837 30.4803 34.9482 30.4803 34.2224V6.78728H79.2202C79.6554 6.78728 80.0906 6.64212 80.3807 6.3518C80.6708 6.06149 80.8159 5.626 80.8159 5.19052V3.15829C80.8159 2.57765 80.6708 2.28734 80.3807 1.99702C80.0906 1.7067 79.6554 1.56154 79.2202 1.56154H25.6933C24.823 1.56154 24.2427 1.85186 23.8076 2.28734C23.5174 2.72281 23.2273 3.15829 23.2273 3.88409V25.2225H23.0823C23.0823 25.2225 11.4775 4.46473 10.8973 3.44862C10.4621 2.72282 10.0269 2.28734 9.44668 1.99702C8.86645 1.7067 8.28621 1.41638 7.12573 1.41638H3.20913C2.33878 1.41638 1.75854 1.7067 1.32336 2.14218C1.03324 2.57766 0.888184 3.01313 0.888184 3.88409V34.0773Z" fill="#14463A"/>
<path d="M57.3159 25.2227C57.7511 24.7872 57.8962 24.3517 57.8962 23.3356C57.8962 20.2872 56.8807 17.0937 54.8499 14.626C52.8191 12.1583 49.6278 10.4164 45.1309 10.4164C37.0076 10.4164 32.3657 16.8034 32.3657 23.4807C32.3657 30.5935 37.2977 36.9806 45.1309 36.9806C49.0475 36.9806 52.9641 35.529 55.14 32.9161C56.1554 31.7548 56.8807 30.1581 56.8807 29.2871C56.8807 28.9968 56.8807 28.7065 56.5906 28.4162C56.4456 28.1258 56.1554 27.9807 55.5752 27.9807H51.8037C51.0784 27.9807 50.4981 28.271 50.208 28.8516C49.0475 30.4484 47.4519 31.3193 45.1309 31.3193C41.6495 31.3193 39.3286 28.7065 39.1835 25.6581H55.5752C56.4456 25.6581 56.8807 25.513 57.3159 25.2227ZM39.3286 20.7227C39.6187 17.8195 41.7946 15.6421 45.1309 15.6421C48.4673 15.6421 50.6432 17.8195 50.9333 20.7227H39.3286Z" fill="#14463A"/>
</svg>
