<svg width="179" height="37" viewBox="0 0 179 37" fill="none" xmlns="http://www.w3.org/2000/svg">
<g clip-path="url(#clip0_146_1462)">
<path d="M37.0674 29.2742C37.9074 29.0762 38.6745 28.6249 39.5339 28.6947C40.9545 28.9139 41.6275 28.6363 42.7123 27.9335C43.5086 28.3896 44.454 29.3407 46.3967 29.3196C47.021 29.3602 47.7459 29.0518 47.5999 28.3912C47.561 27.8183 48.6832 28.0666 48.7545 27.3362C48.8794 26.8996 48.787 26.9174 48.1059 26.5068C46.9707 25.8851 46.9902 24.697 46.1356 23.9276C46.0415 23.8157 45.7643 23.6144 45.7561 23.4732C42.9069 15.7553 46.2653 18.3896 39.795 11.1066C37.9545 9.73998 35.2642 6.59763 32.8739 6.78428C30.7042 6.85408 30.1544 8.08278 28.5555 8.6038C26.5382 9.31959 25.3284 9.52411 23.7052 11.0385C22.6544 11.9214 21.2581 10.8307 19.7646 12.4035C16.6008 15.5962 16.2457 12.595 11.0516 16.6528C8.36617 18.9869 4.65588 17.3021 7.64617 14.3009C9.1624 13.2183 11.0824 11.8857 10.3738 9.81789C10.1338 8.26944 7.9105 7.84093 6.50941 7.61857C5.69859 7.45626 4.31372 6.38987 3.85642 6.10095C2.48452 7.64129 3.17047 11.2008 6.1267 11.5627C6.24898 11.5699 6.34654 11.6676 6.35373 11.79C6.36508 11.8968 6.33868 12.0042 6.27913 12.0935C4.15966 13.7637 3.70398 14.4454 3.62939 16.3428C3.46722 18.9398 5.60616 20.907 8.33212 20.8178C8.76586 20.825 9.19952 20.7995 9.62943 20.7415C9.70402 20.7415 9.78024 20.7415 9.78024 20.8178C9.99429 21.9913 10.0851 23.4261 10.4629 23.853C10.5375 24.0039 10.5375 24.1565 10.3867 24.2312C9.51916 25.0849 7.67049 24.1224 7.20346 25.6725C6.91319 26.3055 6.98292 27.0927 6.29535 27.4174C5.80886 27.3102 5.67913 26.5896 5.00615 26.5831C4.33318 26.5766 3.22236 27.0797 2.73587 28.177C2.21695 28.5324 1.69154 28.2906 1.44829 29.0859C1.33802 29.0778 1.27802 29.5063 1.29748 29.693C1.27644 30.0414 1.17247 30.3798 0.994236 30.6798C0.494773 31.3112 1.0364 32.0838 1.82775 32.1974C2.41316 32.2429 2.7829 32.4734 2.9629 32.2721C3.03749 32.2721 3.03749 32.1974 3.11371 32.1974C3.27587 32.0432 3.40074 32.1552 3.56777 32.1974C3.90507 32.2153 4.3948 32.4782 4.78075 32.4247C4.86406 32.4144 4.94754 32.4424 5.00777 32.501C6.14292 32.4912 6.50292 32.0384 6.90184 31.4378C6.88076 31.1684 7.09644 30.9833 7.20509 30.7561C7.30887 30.6474 7.38347 30.5938 7.50833 30.6035C7.70455 30.6603 8.15698 30.7269 8.26726 30.7561C10.0024 30.9087 10.4565 29.133 11.8348 28.935C12.1754 28.935 12.8078 29.0015 14.183 29.1622C15.0846 29.2336 15.9668 28.5779 16.836 28.1007C17.2252 27.9059 17.5641 27.7972 17.8965 27.3411C18.3052 27.0164 18.7965 25.0135 19.3365 24.9908C20.4441 24.9681 21.4917 24.6045 22.5944 24.611C23.9484 24.5509 25.3252 24.9275 26.5349 24.46C26.5803 24.4763 26.8463 24.4195 26.9144 24.5347C27.0863 24.7895 27.5712 24.9031 27.4447 25.218C27.4447 25.2943 27.2922 25.369 27.2176 25.4453C26.9679 25.4453 26.6047 25.4647 26.3841 25.7488C26.2739 25.8494 25.9657 25.8786 25.8522 25.7488C25.1274 25.8137 23.076 25.5102 22.8214 26.5831C23.0144 27.4141 23.6971 29.4949 25.0917 29.3148C25.1679 29.3148 25.3187 29.3894 25.3187 29.4657C25.849 30.5272 26.7587 31.2106 27.589 31.2106C28.4193 31.2106 30.4852 30.4688 32.0598 29.693H32.7312C33.6928 29.6037 34.0771 29.3456 34.6253 28.2516C35.3534 27.5245 34.7647 29.74 37.0739 29.2774L37.0674 29.2742ZM35.608 24.3837C35.3809 24.611 35.1539 24.6873 34.8507 25.1417C34.3204 24.9145 34.2442 24.2312 34.1696 23.9276C34.6236 23.853 35.608 23.6241 36.1399 23.5495C35.835 23.853 35.6826 24.0039 35.6063 24.3837H35.608Z" fill="#14463A"/>
<path d="M47.452 26.8378C46.4676 26.3076 46.088 25.1708 45.4815 24.3373C43.8952 22.6963 43.626 19.8893 43.2108 17.5915C42.7924 15.3602 40.8866 13.7094 39.5648 11.9841C38.3922 11.0273 35.3317 8.12792 33.8882 7.66414C31.9825 6.87119 30.32 8.36954 28.7338 9.10412C27.4461 9.63438 26.0821 9.78519 24.9451 10.7711C23.161 13.0608 22.089 11.2284 20.0178 13.0413C16.9362 16.2716 15.7685 13.4289 11.5305 17.2105C10.3952 17.8915 9.33282 18.5742 7.96232 18.498C5.78413 18.3958 5.04293 15.4689 6.74915 14.1781C7.938 12.8484 10.8574 11.4814 9.4058 9.33114C7.89745 7.98684 6.1231 8.55926 4.32929 7.06091C3.50213 8.35819 4.5596 10.1176 5.92037 10.5473C6.4783 10.8944 7.77581 10.3414 8.0418 11.1489C7.46765 12.2987 5.89928 12.9213 5.16295 14.0305C3.32859 16.1483 5.14024 19.6201 7.7385 19.7823C8.69866 20.0936 9.92319 19.3088 10.5427 19.6315C10.619 20.3888 10.5427 21.0715 10.6952 21.7542C10.7649 22.5001 11.6148 23.3011 11.1493 24.0244C10.3953 24.6736 9.41787 25.0034 8.42456 24.9438C7.90718 25.5389 7.8196 26.2151 7.51468 26.9141C7.13678 27.5951 6.37936 27.8984 5.84738 28.2016C5.49705 28.7351 5.14835 29.3254 4.40715 29.4145C3.95302 29.9448 3.87679 30.6275 3.72595 31.3102C5.62194 31.8113 6.02741 31.5567 7.06055 29.9448C7.44008 29.567 7.97043 29.8702 8.34833 29.9448C9.42527 29.8167 10.2281 29.0967 11.0017 28.4302C13.759 27.7086 13.733 29.5151 16.9119 27.4443C17.4439 27.2173 17.6709 26.6108 17.898 26.1551C18.164 25.6476 18.8987 24.6698 17.9742 24.4136C15.5949 29.2297 11.4526 25.3103 8.2721 28.954C7.78554 29.0886 8.16344 28.3313 8.2721 28.1951C10.5541 24.8708 15.7441 27.7978 17.5169 23.4925C17.8283 22.8309 17.6515 20.1942 18.4267 20.2331C18.503 20.2331 18.73 20.3093 18.73 20.4601C17.9937 23.6741 18.4803 24.6714 21.9122 24.1087C23.0864 23.7682 26.4535 24.9665 26.3837 23.3514C26.3837 23.0482 26.0804 22.8974 26.3837 22.6703C26.4583 22.5941 26.687 22.6703 26.7616 22.7449C26.9757 24.0422 28.1143 24.9941 29.1945 25.5503C31.3727 27.0324 30.492 28.967 27.9813 28.8843C27.1476 28.4302 26.9206 27.5951 26.314 26.9141C25.6052 26.293 24.637 26.5897 23.813 26.7616C23.4043 27.3795 24.3758 28.1157 24.5705 28.7335C24.95 28.9605 25.4803 28.581 25.7836 29.0351C26.0869 29.4891 26.2378 29.9448 26.6935 30.248C28.0072 31.508 30.7482 29.2945 32.1495 29.1875C33.3741 29.3205 33.9336 28.2048 34.3472 27.2919C35.0381 26.0303 33.2005 24.7833 33.0594 23.6547C32.641 23.5395 32.0863 23.212 31.77 23.6547C32.0019 24.219 33.3027 26.2833 33.2103 26.9141C33.04 27.3697 32.6539 28.427 32.0749 28.354C32.2274 27.8238 32.4545 27.2189 32.4545 26.6108C32.1787 25.9622 30.9607 24.0892 30.8634 23.4276C31.105 22.7871 32.349 23.1584 32.8323 22.5179C33.3643 21.6844 33.5152 20.8509 33.6676 19.7904C33.7002 19.6809 33.7854 19.5951 33.8947 19.5618C34.6326 20.0369 33.8817 22.3185 33.4389 22.8212C33.3968 23.606 34.944 23.0806 35.2587 22.8212C35.8442 22.9428 37.0314 22.359 37.3039 22.7449C36.949 23.1924 36.6911 23.7087 36.5465 24.2611C36.0923 24.7914 35.3349 25.1708 35.3349 25.9281C35.4176 26.4049 36.0583 25.6362 36.0923 26.2314C35.4322 27.0697 35.515 27.2724 35.7128 28.2016C36.4054 29.1746 37.7288 28.3735 38.5933 28.127C40.053 27.5546 41.696 28.4611 42.8378 26.9141C43.1468 26.9405 43.4263 27.1081 43.5952 27.3681C44.4395 28.255 45.6309 28.7264 46.8536 28.6573C47.3499 28.3119 46.2648 28.0411 46.0961 27.8984C45.5658 27.5951 44.883 27.1411 44.7321 26.5346C44.5326 25.6881 43.9212 24.913 43.519 24.1103C45.2885 24.1363 45.475 27.8319 48.0603 27.2935C48.1868 27.2059 48.1738 27.1119 48.1365 26.9903L47.452 26.8378ZM34.7202 15.3943C34.644 15.4705 34.5678 15.4705 34.4169 15.4705C34.2142 14.7051 34.1428 13.9056 33.7341 13.2716C33.5217 13.064 33.2476 12.7932 33.4308 12.4381C33.5446 12.3063 33.7361 12.2743 33.8866 12.3619C34.5807 12.8808 34.6975 13.604 34.7202 14.4846C34.8711 14.6354 34.7948 15.091 34.7202 15.3943ZM40.9337 26.0806C40.5873 26.1727 40.2313 26.2233 39.873 26.2314H39.7984C39.3491 25.8179 40.2849 24.9925 40.7828 25.0184C40.8315 25.0184 40.9596 25.0184 41.0099 25.0184C41.2873 25.1335 41.2159 25.8649 40.9337 26.0806ZM42.9043 21.6844C42.8199 21.832 42.6902 22.2179 42.5264 22.2147C42.3626 22.2114 42.2912 22.239 42.2993 22.0639C42.2847 21.5547 42.202 20.9288 41.7673 20.6239C40.778 19.085 40.5282 21.0131 40.1763 20.7747C39.9654 20.3466 40.2979 19.8618 40.4796 19.4872C40.5639 19.385 40.5979 19.2666 40.7066 19.1839C40.8688 18.2515 41.7203 18.7834 41.9198 19.3347C42.442 19.9834 43.0551 20.7147 42.9805 21.4574C42.9043 21.3812 42.9043 21.5336 42.9043 21.6844ZM4.48013 28.6573C5.01049 28.354 5.31378 27.8238 5.54085 27.3681C5.37866 27.1135 5.18079 26.7778 4.78342 26.9141C4.42302 27.1925 4.04366 27.4456 3.6481 27.6713C3.45834 28.187 3.93193 28.8356 4.48175 28.6573M2.81445 28.6573C1.9143 29.0254 2.39114 30.1345 1.82997 30.7037C1.82997 30.7783 1.67751 30.9307 1.82997 31.0069C2.20787 31.0815 2.51116 31.234 2.96529 31.3102C3.16802 30.6324 3.36427 29.8783 3.49564 29.2637C3.34319 29.0351 3.11612 28.7335 2.81283 28.6573M27.3682 26.9903C27.6715 27.3681 27.6715 27.8984 28.051 28.2016C28.5146 28.2664 28.9837 28.1287 29.3388 27.8238C29.5659 27.6713 29.2626 27.4443 29.188 27.2173C28.9593 26.9141 29.1117 26.3076 28.5814 26.3076C28.0072 26.4405 27.3779 26.2751 26.8379 26.4584C26.8379 26.687 27.292 26.687 27.3682 26.9903Z" fill="#14463A"/>
<path d="M64.4818 21.832C64.4444 20.5791 63.9379 19.2191 63.0905 18.326L63.0515 18.2807C62.618 19.9907 61.9963 21.4997 60.2105 24.2179C59.5237 25.2585 58.3045 25.3039 57.5496 26.2586C57.371 26.1614 57.423 26.0284 57.1925 26.2748C58.1438 25.2537 57.0561 25.7788 57.5009 25.2877C59.1601 23.4561 60.6796 21.8061 61.3225 19.3342C61.0514 19.673 60.8874 19.7783 60.6147 20.122C60.9232 19.07 61.1634 18.1769 61.3923 17.0974L61.1001 16.9807C60.0822 20.4154 58.4019 23.4205 55.3271 25.4822C51.3334 28.3803 54.7053 27.4111 55.3775 26.8113C50.3448 31.9414 39.2046 35.2399 32.8018 30.0207C33.7369 30.93 34.8846 31.9463 35.9756 32.6141C35.3116 32.5006 34.8392 31.9868 34.2125 31.7907C34.2223 31.8117 35.7353 33.7779 40.2518 34.2933C40.5424 34.3257 40.82 34.3549 41.0878 34.3792C47.2456 34.8655 47.6206 33.7649 51.9179 32.8572C52.1111 32.9399 50.5331 33.7535 48.3625 34.3662C44.9354 35.6176 40.9563 34.6904 38.052 34.3889H38.065C38.1315 34.4213 38.5829 34.6288 40.893 35.4538C40.7307 35.5122 39.9758 35.6159 36.8263 34.2674C44.5539 38.7167 52.8708 35.3485 59.6991 30.293C59.6991 30.3157 59.6893 30.3481 59.6893 30.3756C59.7494 30.3854 59.8257 30.3951 59.8874 30.4C59.8501 30.5086 59.8501 30.5086 59.3208 31.1391C60.4735 30.2103 61.0644 28.7694 62.2852 27.8973C61.6602 29.1503 60.8615 30.0482 59.3744 31.5005C59.4876 31.4141 59.596 31.3216 59.6991 31.2234C57.4506 33.3208 54.4846 35.402 49.8821 36.4944C50.2152 36.4558 50.5447 36.3908 50.8675 36.2999C50.2847 36.462 50.2685 36.4815 50.0217 36.5625C50.1743 36.5431 50.1743 36.5431 50.9682 36.3826C50.5055 36.6095 49.9714 36.7181 48.6791 36.9807C56.3402 35.7683 64.3081 29.8164 64.4818 21.832Z" fill="#14463A"/>
<path d="M56.7195 32.308C53.6803 34.2303 50.3178 35.9072 46.562 36.3353C51.08 36.4968 56.4415 33.2449 59.362 30.5811C58.4877 31.1626 57.6133 31.7474 56.7195 32.308Z" fill="#14463A"/>
<path d="M51.8416 32.8209C47.5173 33.7407 47.2723 34.8395 41.0853 34.3714C40.5985 34.5209 38.0267 34.3632 37.6016 34.2236C37.6227 34.2236 37.8222 34.3106 37.9942 34.3796H37.9829C38.6319 34.2975 42.9107 35.2206 44.277 35.0366C46.0505 35.1582 51.616 33.4845 51.8416 32.8209Z" fill="#14463A"/>
<path d="M61.4908 17.2068L61.3376 17.1407C61.1062 18.2072 60.8667 19.0998 60.5571 20.1453C60.8308 19.8038 60.9954 19.6991 61.2675 19.3623C60.6157 21.8192 59.097 23.4592 57.4317 25.2796C56.9852 25.7629 58.0835 25.2458 57.1221 26.2607C57.3535 26.0159 57.3013 26.148 57.4806 26.2446C58.2367 25.2957 59.462 25.2506 60.1513 24.2164C61.9438 21.5131 62.5679 20.0148 63.0013 18.3152C63.0158 18.3294 63.0294 18.3445 63.0421 18.3603C62.6057 17.8798 62.0787 17.488 61.4908 17.2068Z" fill="#14463A"/>
<path d="M41.2382 30.6431C38.4001 29.0344 40.4574 30.1042 42.9439 30.6919C44.7655 31.1407 46.6449 31.3055 48.5162 31.1804C51.4774 30.0407 54.0076 28.3848 55.4137 26.8136C54.7398 27.4323 51.4077 28.3587 55.3651 25.4784C58.4298 23.4074 60.1097 20.3919 61.1221 16.9434C60.3282 16.6501 59.5038 16.448 58.6647 16.3409C57.479 19.1756 57.3024 21.1441 54.675 22.7105C51.743 24.6285 53.5783 24.1368 53.6075 24.1221C53.8359 24.0309 54.0532 23.914 54.2554 23.7737C53.1215 25.5973 51.1485 26.7614 48.7965 27.2874C48.722 28.0233 47.5994 27.7758 47.6431 28.3457C47.7873 29.0084 47.0648 29.3226 46.4412 29.277C44.4973 29.2982 43.5562 28.3441 42.7608 27.8865C41.52 28.7137 40.9369 28.8195 39.3753 28.6453C38.5994 28.6567 37.8915 29.0523 37.1221 29.2314C38.2236 30.2214 42.9666 31.4946 41.2382 30.6431ZM56.1977 22.7463C56.6917 21.6635 57.8386 21.0823 58.216 19.7748C58.1609 19.967 58.5708 20.0467 58.7328 20.0467C59.3807 19.936 59.3969 19.0438 59.6059 18.8581C59.4439 20.8853 58.0751 22.546 56.5783 23.9202C56.3814 23.8004 56.1373 23.7893 55.9304 23.8909C55.8672 23.5099 56.6885 22.9791 56.1977 22.7463Z" fill="#14463A"/>
<path d="M58.7953 10.8076C56.8948 9.7223 54.7483 9.46884 52.7297 8.66297C55.7665 9.31287 59.378 9.97414 61.6233 12.2553C61.6589 12.2732 61.7431 12.356 61.7852 12.3674C61.9794 12.499 62.2012 12.9653 62.4716 12.7931C57.7609 3.56615 43.4507 4.59299 36.6421 8.37701C37.0128 8.66297 37.4207 8.99929 37.8011 9.32424C39.0962 8.27141 44.3492 7.53702 44.8121 7.60851C43.0574 7.96108 40.15 9.02041 38.3839 9.81491L38.6316 10.0245C42.235 8.75233 47.7195 7.86522 51.6062 8.80107C48.4997 9.14714 42.9619 9.10003 39.2775 10.572C40.2892 11.3405 41.1909 12.7395 42.0602 13.7663C48.0708 10.8239 51.5382 10.728 54.5783 11.1131C54.8697 11.2756 52.4221 11.3779 53.0162 11.5583C53.6766 11.711 54.915 11.3438 55.2016 11.3064C55.3877 11.2463 56.5565 11.2853 56.9256 11.3552C58.3307 11.698 57.013 11.8767 56.5225 11.7614C56.2809 11.7419 56.0379 11.7468 55.7973 11.776C55.255 11.8783 54.5994 11.9986 54.0587 12.0798C53.913 12.1042 52.2634 12.0603 52.5144 12.2748C52.83 12.2537 54.2189 12.5055 54.5767 12.4632C54.792 12.4145 55.0105 12.4876 55.2145 12.3771C55.3149 12.3073 55.726 12.2569 55.7439 12.4291C55.276 13.4755 53.8547 12.6907 52.7847 12.9165C51.8312 12.988 50.8195 13.4153 50.6479 13.2659C53.7754 11.3568 46.1784 14.1936 46.3063 14.6761C46.3147 14.6786 46.3237 14.6786 46.3322 14.6761C46.3548 15.1035 47.5479 14.4812 47.7891 14.5267C48.312 14.4861 49.0194 14.1595 49.5293 14.0392C49.9113 14.0392 50.0619 14.231 50.4423 14.1465C51.2776 14.1319 52.032 13.7712 52.8381 13.6119C52.9093 13.6119 53.4128 13.8248 53.3885 13.8833C54.9069 15.2497 55.7082 14.1107 57.374 14.5608C57.6395 14.5965 57.3254 14.7688 57.2348 14.8224C56.3558 15.443 55.3116 15.5389 54.2934 15.6136C54.1229 15.5935 53.9502 15.6217 53.7948 15.6949C53.4597 15.6689 53.1473 15.8573 52.8122 15.807C51.8587 15.8265 50.9166 15.9694 50.0603 16.4065C49.7365 16.4699 49.369 16.5219 49.1278 16.7639C48.8818 16.9638 48.5111 16.8874 48.2942 17.1116C47.9251 17.3342 45.1408 17.924 45.4548 18.4975C45.4548 18.4975 45.4451 18.4975 45.4386 18.4975H45.4548C45.4562 18.51 45.4562 18.5225 45.4548 18.5349C50.0538 17.8753 55.5366 14.6209 61.3368 17.058C63.7245 18.2782 65.06 20.4001 64.1082 24.501C64.1163 24.4815 64.2199 24.2085 64.2182 24.1971L64.2004 24.2101C64.4708 23.2532 64.7184 22.4311 64.712 21.4627C65.3352 17.9224 62.6577 12.9117 58.7953 10.8076ZM53.3529 7.34368C54.1963 7.53377 55.7422 7.81648 56.2473 8.35102C54.9215 8.3364 54.2643 7.76124 54.2853 7.77586C54.0312 7.69787 53.2331 7.41192 53.3529 7.34368Z" fill="#14463A"/>
<path d="M38.4004 9.85023L37.8454 9.38937C39.1679 8.30916 44.3363 7.62029 44.8604 7.67365C44.0818 7.83058 43.3151 8.04131 42.5659 8.30431C41.1931 8.75224 39.6807 9.31175 38.4004 9.85023ZM65.2432 17.2888C64.4319 11.2522 62.3645 5.95309 54.9991 4.00614C59.554 5.10736 59.8964 5.67496 60.4903 6.0679C56.9528 2.7998 51.2539 1.663 45.4932 2.64133C48.8522 1.55628 54.3727 1.68888 57.8258 3.82341C49.589 -1.25904 39.6888 0.938555 33.6021 6.74222C34.7379 6.96214 35.7359 7.71246 36.6625 8.42721C43.5703 4.67237 57.8258 3.64391 62.5674 12.8289C62.2947 13.0003 62.0805 12.5378 61.8793 12.4052C61.842 12.3939 61.7576 12.3114 61.7171 12.2936C59.4647 10.0297 55.8494 9.36026 52.8019 8.71828C54.8352 9.52682 56.9771 9.77261 58.8822 10.8528C63.8525 13.7021 66.0221 19.4767 64.302 24.1807L64.3199 24.1678C65.0851 21.9597 65.399 19.6213 65.2432 17.2904V17.2888ZM48.4953 8.46117C45.344 8.46117 41.3553 9.05302 38.6698 10.0782L39.2994 10.6086C42.5075 9.38937 47.8997 9.08051 50.5382 8.98025C53.3958 8.89293 49.5403 8.47087 48.4953 8.46117ZM54.3581 7.83536C54.3062 7.80787 55.0185 8.40134 56.3248 8.4078C55.8137 7.87417 54.2721 7.59927 53.4218 7.40522C53.305 7.47314 54.1049 7.75774 54.3597 7.83536H54.3581Z" fill="#14463A"/>
<path fill-rule="evenodd" clip-rule="evenodd" d="M153.877 24.6806C153.877 26.0306 155.002 27.1556 156.427 27.1556C157.852 27.1556 158.977 26.0306 158.977 24.6806V16.5806H163.402V25.5806C163.402 28.5806 160.252 31.0556 156.352 31.0556C152.452 31.0556 149.302 28.5806 149.302 25.5806V16.5806H153.802V24.6806H153.877ZM173.527 30.5306H178.027V6.90564H173.527V30.5306ZM165.952 30.5306H170.452V6.90564H165.952V30.5306ZM83.6021 11.8556H81.1271V30.5306H76.3271V8.03064H84.5771C88.3271 8.03064 91.3271 11.0306 91.3271 14.7056C91.3271 17.7806 89.1522 20.4806 86.1521 21.1556L92.7521 30.6056H87.1271L82.3271 23.2556V17.8556H83.4521C85.2521 17.8556 86.6771 16.5056 86.6771 14.9306C86.6771 13.2056 85.3271 11.8556 83.6021 11.8556Z" fill="#14463A"/>
<path fill-rule="evenodd" clip-rule="evenodd" d="M97.0272 21.9055C96.9522 20.4055 98.0772 19.0555 99.6522 18.9805C101.152 18.9055 102.502 20.0305 102.577 21.6055C102.577 21.6805 102.577 21.8305 102.577 21.9055H97.0272ZM106.927 24.4555C106.927 24.1555 107.002 23.8555 107.002 23.4805C107.077 18.6055 103.852 15.9055 99.7272 15.9055C95.6022 15.9055 92.3022 19.2805 92.3022 23.4055C92.3022 27.5305 95.6022 30.9055 99.7272 30.9055C102.877 30.9055 105.277 29.4805 106.552 27.3055L102.877 25.5805C102.352 26.6305 101.227 27.3055 100.027 27.3055C98.3022 27.3055 96.9522 26.0305 96.9522 24.5305V24.3805C97.0272 24.4555 106.927 24.4555 106.927 24.4555ZM117.127 27.0805C115.327 27.0805 113.827 25.4305 113.827 23.4805C113.827 21.4555 115.327 19.8805 117.127 19.8805C118.927 19.8805 120.427 21.5305 120.427 23.4805C120.427 25.5055 118.927 27.0805 117.127 27.0805ZM124.852 30.5305V6.90552H120.352V18.0805C119.152 16.8805 117.502 16.2055 115.852 16.2055C112.177 16.2055 109.102 19.5055 109.102 23.5555C109.102 27.6055 112.102 30.9055 115.852 30.9055C117.577 30.9055 119.227 30.1555 120.427 28.9555V30.5305H124.852ZM140.152 26.6305H135.877V11.8555H138.877C140.227 11.8555 141.277 13.0555 141.277 14.4055C141.277 15.7555 140.227 16.8055 138.877 16.8055H137.302V20.8555H140.152C141.727 20.8555 142.927 22.1305 142.927 23.7055V23.7805C142.852 25.3555 141.877 26.5555 140.152 26.6305ZM143.902 18.3055C145.177 17.1805 145.852 15.6055 145.852 13.9555C145.852 12.4555 145.252 11.0305 144.202 9.90552C143.152 8.70552 141.202 8.10552 138.652 8.10552H131.002V30.6055H140.977C144.802 30.5305 147.877 27.6805 147.877 24.1555C147.802 21.5305 146.902 19.7305 143.902 18.3055Z" fill="#14463A"/>
</g>
<defs>
<clipPath id="clip0_146_1462">
<rect width="178.5" height="36" fill="white" transform="translate(0.0522461 0.980957)"/>
</clipPath>
</defs>
</svg>
