<svg width="208" height="21" viewBox="0 0 208 21" fill="none" xmlns="http://www.w3.org/2000/svg">
<g clip-path="url(#clip0_146_1478)">
<path d="M133.184 11.841C133.184 17.781 129.809 20.961 123.507 20.961C117.327 20.961 113.83 17.701 113.83 11.881V1.38098H120.783V11.581C120.783 14.401 121.576 15.661 123.446 15.661C125.316 15.661 126.211 14.521 126.211 11.301V1.38098H133.164L133.184 11.841Z" fill="#14463A"/>
<path d="M33.4255 6.24098V20.581H26.3914V6.24098H20.5161V1.38098H39.3009V6.24098H33.4255Z" fill="#14463A"/>
<path d="M51.1535 5.76096L49.4254 12.341H52.9425L51.1535 5.76096ZM55.6667 20.581L54.4876 17.061H47.8804L46.6403 20.581H39.6265L46.7419 1.36096H55.6464L62.6601 20.581H55.6667Z" fill="#14463A"/>
<path d="M155.75 19.0808L153.636 14.1008C152.396 15.0208 151.135 15.8408 149.102 15.8408C146.338 15.8408 144.508 13.6008 144.508 10.8808C144.508 8.12082 146.114 5.82082 149.001 5.82082C150.81 5.82082 152.396 6.70081 153.656 7.70081L155.73 2.84082C153.311 1.58082 150.607 0.960815 147.883 0.980815C141.987 0.980815 137.494 4.96082 137.494 10.8408C137.494 17.0408 141.865 20.9808 148.086 20.9808C151.501 20.9808 153.921 20.2008 155.75 19.0808Z" fill="#14463A"/>
<path d="M171.546 20.581L167.155 13.581V20.581H160.324V1.38098H167.155V8.40098L171.262 1.38098H178.906L172.481 10.841L179.719 20.581H171.546Z" fill="#14463A"/>
<path d="M8.76549 20.981C13.1974 20.981 17.7919 19.421 17.7919 14.521C17.7919 10.101 13.9699 8.88096 10.9814 8.24096C8.72483 7.76096 7.64735 7.54096 7.64735 6.66096C7.64735 5.48096 9.17209 5.40096 9.98528 5.40096C12.0183 5.40096 13.9089 6.22096 15.515 7.18096L17.3447 2.80096C14.9254 1.78096 12.0589 0.980957 9.35506 0.980957C4.76052 0.980957 1.16214 3.16096 1.16214 7.56096C1.16214 11.161 3.94733 12.541 6.9968 13.301C9.13143 13.801 10.4732 13.961 10.4732 15.001C10.4732 16.041 9.43638 16.341 8.41989 16.341C6.34624 16.321 4.33359 15.581 2.74787 14.281L0.552246 18.501C2.99182 20.081 5.838 20.941 8.76549 20.981Z" fill="#14463A"/>
<path d="M190.067 20.981C194.499 20.981 199.093 19.421 199.093 14.521C199.093 10.101 195.271 8.88098 192.262 8.24098C190.006 7.76098 188.928 7.54098 188.928 6.66098C188.928 5.48098 190.453 5.40098 191.266 5.40098C193.299 5.40098 195.19 6.22098 196.796 7.18098L198.626 2.80098C196.227 1.80098 193.36 1.00098 190.656 1.00098C186.062 1.00098 182.463 3.18098 182.463 7.58098C182.463 11.181 185.249 12.561 188.298 13.321C190.412 13.841 191.774 14.001 191.774 15.021C191.774 16.061 190.738 16.361 189.721 16.361C187.648 16.321 185.655 15.601 184.049 14.301L181.854 18.541C184.293 20.081 187.139 20.941 190.067 20.981Z" fill="#14463A"/>
<path d="M81.2009 13.401C83.5998 12.541 84.8806 10.181 84.8806 7.96098C84.8806 3.42098 81.7295 1.38098 77.2569 1.38098H66.7261V20.581H73.4959V14.881H75.2036L78.7207 20.581H86.0191L81.2009 13.401ZM78.0295 8.00098C78.0295 9.26098 77.2163 10.001 75.8745 10.001H73.4756V5.96098H75.8948C77.1756 5.96098 78.0091 6.60098 78.0091 7.92098V8.00098H78.0295Z" fill="#14463A"/>
<path d="M104.926 10.761C107.467 10.221 108.707 8.82098 108.707 6.46098C108.707 3.20098 106.227 1.38098 101.836 1.38098H90.6948V20.581H101.388C106.552 20.581 109.134 18.801 109.134 15.181C109.134 12.661 107.528 10.981 104.926 10.761ZM97.4037 5.54098H99.8636C101.165 5.54098 101.998 6.10098 101.998 7.22098V7.26098C101.998 8.34098 101.185 8.96098 99.8432 8.96098H97.424V5.54098H97.4037ZM102.1 14.621C102.1 15.761 101.266 16.401 99.8839 16.401H97.4037V12.801H99.9042C101.226 12.801 102.1 13.381 102.1 14.561V14.621Z" fill="#14463A"/>
<path d="M204.481 0.981304C206.127 0.981304 207.449 2.3013 207.449 3.9013C207.449 5.5213 206.107 6.8213 204.481 6.8213C202.854 6.8213 201.512 5.5413 201.512 3.9213C201.512 3.9013 201.512 3.9013 201.512 3.8813C201.492 2.2813 202.814 0.961304 204.44 0.961304C204.46 0.981304 204.46 0.981304 204.481 0.981304ZM204.481 6.4213C205.843 6.4013 206.941 5.3013 206.941 3.9613C206.941 3.9413 206.941 3.9213 206.941 3.9213C206.981 2.5813 205.924 1.4813 204.562 1.4413C203.2 1.4013 202.082 2.4413 202.041 3.7813C202.041 3.8413 202.041 3.8813 202.041 3.9413C202 5.2813 203.058 6.4013 204.42 6.4413C204.44 6.4213 204.46 6.4213 204.481 6.4213ZM203.342 2.2013H204.664C205.497 2.2013 205.883 2.5213 205.883 3.1813C205.883 3.8413 205.477 4.0613 204.969 4.1213L205.965 5.6413H205.395L204.44 4.1613H203.891V5.6213H203.362L203.342 2.2013ZM203.871 3.7213H204.42C204.908 3.7213 205.355 3.7013 205.355 3.1413C205.355 2.6613 204.928 2.6213 204.582 2.6213H203.891V3.7213H203.871Z" fill="#14463A"/>
</g>
<defs>
<clipPath id="clip0_146_1478">
<rect width="206.897" height="20" fill="white" transform="translate(0.552246 0.980957)"/>
</clipPath>
</defs>
</svg>
