<svg width="173" height="37" viewBox="0 0 173 37" fill="none" xmlns="http://www.w3.org/2000/svg">
<path fill-rule="evenodd" clip-rule="evenodd" d="M167.611 15.8251C170.69 15.8251 172.742 17.5881 172.888 19.7919C172.888 21.408 171.569 22.7302 169.957 22.7302C166.439 22.7302 167.318 20.0857 165.852 20.0857C162.628 20.0857 159.989 25.0809 157.497 30.5168L157.057 31.3983L156.471 32.7205L156.031 33.8958C154.712 36.5403 154.126 36.9811 153.1 36.9811C150.608 36.9811 150.168 30.3699 149.142 27.4315C147.09 31.839 142.986 36.9811 136.536 36.9811C132.725 36.8342 129.061 34.9243 129.061 29.0476C129.061 22.4364 133.458 17.7351 137.855 17.7351C141.227 17.7351 143.425 21.261 143.425 23.6117C143.279 30.076 134.631 30.2229 134.631 31.5452C134.631 32.8674 136.829 33.3082 138.149 33.3082C143.719 33.3082 147.383 26.1093 148.702 21.1141C148.996 20.2326 149.728 18.4696 151.341 18.4696C153.1 18.4696 152.22 29.3414 154.712 29.3414C156.325 29.3414 158.377 15.8251 167.611 15.8251ZM80.8353 0.986609C83.767 0.839693 86.1122 3.6311 86.4054 8.03859C86.9917 19.7919 83.034 24.4932 80.9819 28.7538C81.4217 30.3699 84.2067 33.1613 86.8452 33.1613C87.8712 33.1613 89.0439 32.7205 89.337 32.2798C89.0439 31.5452 88.8973 30.8106 88.8973 29.4884C88.8973 22.7302 93.4413 17.1474 97.2524 17.1474C100.331 17.1474 102.09 21.1141 102.09 23.7586C102.09 26.8439 99.4511 29.3414 95.4934 31.6921C96.2263 32.4267 97.5456 32.8674 98.5716 32.8674C104.142 33.0143 107.22 26.2562 109.419 20.2326C109.858 19.0573 110.591 17.4412 111.911 17.4412C114.256 17.4412 115.135 32.7205 119.093 32.7205C120.705 32.7205 122.171 29.3414 122.171 26.6969C122.318 24.6401 121.585 24.4932 121.585 21.7018C121.585 18.6166 123.197 15.9721 125.543 15.9721C127.008 15.9721 127.448 17.2943 127.448 18.9104C127.302 25.0809 122.758 36.5403 116.015 36.5403C111.031 36.5403 111.471 28.0192 109.712 28.0192C107.806 28.0192 105.021 36.5403 95.2003 36.5403C93.5879 36.5403 91.8289 35.8058 90.5097 34.1897C88.1644 35.8058 86.1122 36.3934 83.9135 36.3934C80.249 36.3934 78.6366 32.7205 77.1708 32.7205C75.4118 32.7205 73.3597 36.3934 67.4964 36.3934C62.8059 36.3934 61.9264 30.2229 60.314 30.2229C58.8482 30.2229 56.5029 36.3934 54.011 36.3934C51.9588 36.3934 50.7862 33.8958 49.6135 31.2513L49.3204 30.5168C48.1477 28.0192 47.1217 25.8155 45.3627 25.8155C44.0435 25.8155 41.2584 28.313 38.4734 30.8106L37.7405 31.5452C34.9554 34.0428 32.1704 36.5403 30.9978 36.3934C29.9717 36.2465 29.5319 35.6588 29.6785 34.6304C29.8251 33.3082 31.1443 29.6353 31.5841 28.0192C32.4636 25.0809 33.1965 21.8487 33.6362 20.8203C33.9294 19.7919 35.102 19.0573 35.9815 19.2042C36.4213 19.2042 36.5678 19.9388 36.7144 20.6734C37.1542 23.024 37.8871 25.5216 38.62 25.5216C39.9392 25.5216 44.6298 17.0005 47.2683 17.0005C50.6396 17.0005 50.9328 30.5168 55.3302 30.5168C56.796 30.5168 57.8221 28.7538 58.8482 26.6969C58.9947 23.171 60.0208 18.0289 62.9524 18.0289C65.0046 18.0289 65.8841 22.5833 64.4182 26.55C64.2717 31.2514 67.4964 32.4267 69.5486 32.4267C71.0144 32.4267 73.5063 31.9859 75.5584 28.9007C74.3858 26.4031 73.6529 21.261 73.5063 19.4981C73.0665 9.9485 76.7311 1.13353 80.8353 0.986609ZM24.4016 3.92493C26.1606 3.33727 26.8935 4.21877 27.6264 6.2756C28.5059 9.36084 28.5059 13.4745 28.2127 19.2042C27.773 27.1377 23.6687 36.6872 13.5546 36.3934C4.75974 36.2465 0.948627 30.6637 0.655465 22.2895C0.508884 18.3227 0.802045 14.356 2.56102 8.77317C3.58709 5.83484 4.31999 4.80643 7.10504 4.21877C9.30375 3.77802 9.01059 5.98176 8.57085 8.62625C7.3982 14.356 6.95845 17.1474 7.25161 23.7586C7.69136 30.6637 10.9161 33.4551 14.4341 33.4551C19.8576 33.602 22.2029 29.3414 23.229 23.024C23.9619 18.0289 23.3755 15.6782 22.9358 14.0622C22.6426 13.1807 21.7631 11.2707 21.6166 9.80158C21.0302 6.56942 22.7892 4.36568 24.4016 3.92493ZM95.7866 21.7018C94.9071 21.5549 92.855 22.5833 92.855 25.6685C92.855 28.1661 93.7345 29.3414 94.1742 29.7822C97.1058 28.9007 97.8387 26.55 97.6922 24.6401C97.6922 23.024 96.8127 21.7018 95.7866 21.7018ZM136.536 21.5549C132.725 21.5549 133.018 27.5784 133.605 28.9007C136.39 28.4599 138.295 26.8439 138.735 25.3747C139.175 23.9055 138.588 21.5549 136.536 21.5549ZM80.9819 6.71634C79.0764 6.86326 78.1969 12.8868 78.49 19.2042C78.7832 23.3179 79.3695 23.9055 79.9558 23.9055C80.9819 23.9055 83.6204 16.4128 83.3272 10.5362C83.1806 7.89167 82.4477 6.56943 80.9819 6.71634ZM64.1251 2.16194C65.8841 2.16194 67.0567 3.19036 67.2033 4.80643C67.4965 7.01018 65.8841 9.36083 63.6853 9.36083C61.7798 9.36083 60.9003 8.03859 60.6071 6.42251C60.4606 4.07185 62.2195 2.16194 64.1251 2.16194Z" fill="#14463A"/>
</svg>
